<svg xmlns="http://www.w3.org/2000/svg" width="258" height="38" viewBox="0 0 131 12"><defs><style>.cls-1{fill:#0c4d8e;}.cls-2{fill:#ffc95c;}</style></defs><g id="Layer_2" data-name="Layer 2"><g id="Layer_1-2" data-name="Layer 1"><path class="cls-1" d="M37.86,10.44C37.42,9,37,7.49,36.56,6.08s-.86-2.85-1.3-4.34l-.1-.36h0A1.72,1.72,0,0,1,35,1.17L35,1H32.62l0,.18a1.72,1.72,0,0,0-.07.21h-.09l-.1.36c-.44,1.49-.9,2.94-1.38,4.33-.21.61-.41,1.21-.61,1.83a2.81,2.81,0,0,0-.2-1l-.1-.2a2,2,0,0,0-.11-.35l0-.06a3.34,3.34,0,0,0,.45-1.7A3,3,0,0,0,30,3.24a2.23,2.23,0,0,0-.29-.73,2.76,2.76,0,0,0-.92-.91,4,4,0,0,0-1.22-.49A9,9,0,0,0,25.52,1L24.8,1H23v.24a.76.76,0,0,1,0,.15h-.25v.49c0,.21,0,.42,0,.62a2.94,2.94,0,0,0-.9-.89,4.17,4.17,0,0,0-1.23-.49A9,9,0,0,0,18.48,1l-.72,0H15.94v.39h-.25l0,.49c0,1.46-.08,2.91-.11,4.35,0,.58,0,1.17,0,1.76-.2-.64-.39-1.27-.58-1.9-.43-1.4-.86-2.85-1.29-4.34l-.11-.36h0l-.06-.21L13.36,1H11l-.05.18c0,.07,0,.14-.07.21h-.09l-.1.36c-.43,1.49-.9,2.94-1.38,4.33C9,6.83,8.78,7.6,8.54,8.38l-.1-1.3V5.41H8.21V5l-2.09.16,2-2.43-.37-.32-.13-.1.17-.2L7.63,2A4.69,4.69,0,0,0,4.48.8a4.05,4.05,0,0,0-.92.1,4.73,4.73,0,0,0-.88.28A3.9,3.9,0,0,0,1.55,2,4.09,4.09,0,0,0,.8,3c-.06.13-.11.27-.17.41s-.05.08-.07.13A4.39,4.39,0,0,0,.13,4.89,7,7,0,0,0,0,6.27,6.41,6.41,0,0,0,.28,8.14a4.61,4.61,0,0,0,.86,1.57,4.17,4.17,0,0,0,1.4,1.09,4.37,4.37,0,0,0,1.92.4,4.82,4.82,0,0,0,1.1-.12H8.27l2.93.52.36-1.44.5,0,.55,0a2.68,2.68,0,0,0,.07.27l.15.62.1.47,2.87-.51h2.6l1.17,0a7.11,7.11,0,0,0,1.3-.09,3.16,3.16,0,0,0,1.62-.9c0,.17,0,.34,0,.52l0,.51h3l1.17,0a7.11,7.11,0,0,0,1.3-.09,3.08,3.08,0,0,0,1.75-1,.61.61,0,0,1,.07-.1c-.07.21-.13.43-.2.64l-.15.54,3.45.61.35-1.44.5,0,.55,0a2.68,2.68,0,0,1,.07.27,6.23,6.23,0,0,1,.15.62l.11.47L38,11ZM4.05,5.35v.4l-.27,0V7.61l0,0a1.26,1.26,0,0,1-.43-.43s0-.07,0-.11a5.14,5.14,0,0,1-.07-.78,2.94,2.94,0,0,1,.1-.74A1.71,1.71,0,0,1,3.56,5a1.19,1.19,0,0,1,.38-.36,1,1,0,0,1,.93,0,2.38,2.38,0,0,1,.65.46l.15.14Z"/><path class="cls-1" d="M76,8.86c0-.52,0-1-.07-1.58l2.51-5.11L78,1.91l.14-.29L76.06.41,74.38,3.08,72.73.39,70.57,1.65l0,.06A4.73,4.73,0,0,0,67.81.8a4,4,0,0,0-.91.1,4.51,4.51,0,0,0-.88.28,3.82,3.82,0,0,0-1.14.8A4.3,4.3,0,0,0,64.14,3a3.42,3.42,0,0,0-.17.4,1,1,0,0,1-.08.14,5,5,0,0,0-.43,1.31c0,.05,0,.1,0,.15l-1.87.15,2-2.43-.37-.32-.13-.1.17-.2L63.08,2A4.69,4.69,0,0,0,59.93.8,4.05,4.05,0,0,0,59,.9a4.73,4.73,0,0,0-.88.28A3.9,3.9,0,0,0,57,2,4.34,4.34,0,0,0,56.25,3c-.06.13-.11.27-.16.41a.57.57,0,0,0-.08.13c-.06.12-.11.25-.16.38,0,0,0-.08-.05-.12l0-.14a4.36,4.36,0,0,0-.83-1.53,3.89,3.89,0,0,0-1.36-1,4.79,4.79,0,0,0-3.74,0,3.93,3.93,0,0,0-1.37,1,4.52,4.52,0,0,0-.73,1.31c-.1.2-.2.4-.28.61l0-.06a4.1,4.1,0,0,0-.66-1.36,4.26,4.26,0,0,0-1.11-1,5,5,0,0,0-1.39-.55A6.94,6.94,0,0,0,42.75,1h-2.1l0,.39h-.25l-.31,9.7h3l.5,0v0A7,7,0,0,0,45,10.67a4.35,4.35,0,0,0,1.55-.91,4,4,0,0,0,.94-1.36,4.82,4.82,0,0,0,.77,1.39,4.18,4.18,0,0,0,1.45,1.15,4.47,4.47,0,0,0,2,.42,4.54,4.54,0,0,0,2-.42,4.21,4.21,0,0,0,1.45-1.15,4.74,4.74,0,0,0,.73-1.35,4.53,4.53,0,0,0,.73,1.27A4.11,4.11,0,0,0,58,10.8a4.29,4.29,0,0,0,1.91.4,4.82,4.82,0,0,0,1.1-.12h3.18l-.15-2a3.62,3.62,0,0,0,.44.64,4.17,4.17,0,0,0,1.4,1.09,4.35,4.35,0,0,0,1.91.4,4.91,4.91,0,0,0,1.11-.12h3.18l-.3-4V5.41h-.23V5l-2.1.16L70.87,3.5l1.9,3.77c0,.53-.06,1.06-.08,1.59l-.09,2.23h3.51l0-.53ZM59.51,5.35v.4l-.28,0V7.61l0,0a1.26,1.26,0,0,1-.43-.43s0-.07,0-.11a5.12,5.12,0,0,1-.06-.78,2.94,2.94,0,0,1,.09-.74A1.71,1.71,0,0,1,59,5a1.3,1.3,0,0,1,.38-.36,1,1,0,0,1,.93,0,2.38,2.38,0,0,1,.65.46l.15.14ZM52.58,5a1.36,1.36,0,0,1,.17.48,5.46,5.46,0,0,1,0,.73,4,4,0,0,1-.06.7,1.29,1.29,0,0,1-.19.53.82.82,0,0,1-.32.32,1.28,1.28,0,0,1-1.08,0,.85.85,0,0,1-.33-.32,1.4,1.4,0,0,1-.19-.52,3.49,3.49,0,0,1-.07-.71,4.38,4.38,0,0,1,.06-.75A1.15,1.15,0,0,1,50.79,5a.6.6,0,0,1,.29-.25,1.41,1.41,0,0,1,.61-.11,1.4,1.4,0,0,1,.6.11A.74.74,0,0,1,52.58,5Zm-9-.55a1.61,1.61,0,0,1,.55.24,1.16,1.16,0,0,1,.35.45,2.34,2.34,0,0,1,.2.83,3.15,3.15,0,0,1-.11.92.83.83,0,0,1-.26.41,1.1,1.1,0,0,1-.49.21l-.4.06L43.35,4.4Zm23.77.9v.4l-.27,0V7.61l-.05,0a1.18,1.18,0,0,1-.43-.43s0-.07,0-.11a4.11,4.11,0,0,1-.07-.78,2.55,2.55,0,0,1,.1-.74A1.92,1.92,0,0,1,66.89,5a1.43,1.43,0,0,1,.38-.36,1,1,0,0,1,.94,0,2.21,2.21,0,0,1,.64.46l.16.14Z"/><path class="cls-1" d="M100.11,1.51l.13-.26L98.14,0l-1.78,2.8L94.61,0,92.39,1.28l.13.24-.28.16c0-.13-.08-.25-.11-.38L92,1h0l-.06-.2L91.88.61H89.44l0,.16-.06.2h-.08l-.09.33c-.39,1.32-.81,2.62-1.25,3.9V5.12a6.11,6.11,0,0,0-.17-.74,5.36,5.36,0,0,0-.33-.88,3.93,3.93,0,0,0-.6-1.15,4.25,4.25,0,0,0-1.16-1A4.93,4.93,0,0,0,84.21.78,7.66,7.66,0,0,0,82.62.61H80.44V1h-.22l-.33,10h3.06l.45,0v0A7.51,7.51,0,0,0,85,10.52a4.27,4.27,0,0,0,1.5-.86c-.07.24-.14.48-.22.72l-.14.48,3.48.62.1-.42q.09-.37.18-.72L90,10l.59,0,.63,0,.09.33c0,.22.11.43.16.66l.1.42,3-.54v0H98.1l0-.48L98,8.7c0-.55,0-1.11-.08-1.66l2.62-5.29ZM83.55,4a1.63,1.63,0,0,1,.6.26,1.31,1.31,0,0,1,.4.49,2.48,2.48,0,0,1,.21.89,3.17,3.17,0,0,1-.12,1,1,1,0,0,1-.29.47,1.21,1.21,0,0,1-.55.23l-.51.07L83.17,4ZM94.66,8.7l0,.86c-.38-1.27-.75-2.52-1.13-3.74-.31-1-.63-2.06-.95-3.13L94.74,7C94.71,7.58,94.68,8.14,94.66,8.7Z"/><path class="cls-1" d="M130.91.36l-.24,0-1.93.11-1.92.12h-1.59V1H125v.44l-.06,2.32s0-.09,0-.14l-.09-.17c0-.1-.06-.22-.1-.33a4,4,0,0,0-.91-1.33,4.11,4.11,0,0,0-1.37-.87A4.77,4.77,0,0,0,120.7.58h-.58l-.57,0h-2V1h-.23v.44c0,1.52-.08,3-.11,4.54l-.06,2.28c-.25-.81-.49-1.62-.74-2.41-.45-1.46-.9-3-1.36-4.52L115,1h0l-.06-.2,0-.16h-2.44l0,.16-.06.2h-.08l-.1.33c-.45,1.53-.94,3.05-1.45,4.51-.24.69-.47,1.39-.7,2.09l-.32-.12,0-.08.09-.22-2.4-.88-.1.18a1.38,1.38,0,0,1-.62.62,1.82,1.82,0,0,1-.86.23,1.45,1.45,0,0,1-1-.3,1.54,1.54,0,0,1-.37-.47,2.56,2.56,0,0,1-.07-.79,2.93,2.93,0,0,1,.23-1,2,2,0,0,1,.52-.74.94.94,0,0,1,1.13-.11,2.84,2.84,0,0,1,.68.5l.35.33,2.25-2.69-.33-.29A.94.94,0,0,0,109.1,2l.15-.18-.16-.15a5,5,0,0,0-1.45-.93A4.62,4.62,0,0,0,106,.4a4.71,4.71,0,0,0-2,.39,4,4,0,0,0-1.44,1.06A4.51,4.51,0,0,0,101.85,3a5.17,5.17,0,0,0-.42,1,6.71,6.71,0,0,0-.29,2,6.16,6.16,0,0,0,.29,1.94,4.91,4.91,0,0,0,.89,1.64,4.29,4.29,0,0,0,1.47,1.13,4.5,4.5,0,0,0,2,.42,4.41,4.41,0,0,0,2.51-.71,4.37,4.37,0,0,0,1.44-1.74c-.18.56-.35,1.12-.52,1.7l-.15.48,3.49.62.1-.42.18-.72.09-.36.58,0,.64,0c0,.11.05.22.08.33s.11.43.16.66l.1.42,3-.53h3.22l0-.47c0-.12,0-.24,0-.36l.28,0a4.38,4.38,0,0,0,.51,0l1.43,1.75L123,12h.34l1.77-1h1.87l1.85.12,2.33.13V7.63l-.21,0V7.29l-.24,0h-.28V4.24l-.2,0v0l.45,0,.48,0V.71h-.21ZM124.78,9l-.44-.72a5.37,5.37,0,0,0,.49-.88C124.81,8,124.8,8.49,124.78,9Zm-4.27-2.47,0-1.26q0-.63,0-1.29l.42,0a1.61,1.61,0,0,1,.62.16.75.75,0,0,1,.34.34,1.4,1.4,0,0,1,.15.74,1.09,1.09,0,0,1-.14.59,1.15,1.15,0,0,1-.4.39,2,2,0,0,1-.62.24Z"/><path class="cls-2" d="M6.16,9.4l0,.2H8L7.79,6.36V5.48l-3.16.25V7.18l1.77.14L6,7.71a2.05,2.05,0,0,1-1.41.47,1.92,1.92,0,0,1-1-.24,1.84,1.84,0,0,1-.63-.64,2.37,2.37,0,0,1-.3-.86,5.47,5.47,0,0,1-.08-.9,3.19,3.19,0,0,1,.13-.94A2.56,2.56,0,0,1,3,3.8a2,2,0,0,1,.61-.56,1.68,1.68,0,0,1,1.62,0,3,3,0,0,1,.66.43L7.19,2.12a4.18,4.18,0,0,0-2.64-.9,4.45,4.45,0,0,0-.81.08A4.2,4.2,0,0,0,3,1.56a3.33,3.33,0,0,0-1,.69,3.54,3.54,0,0,0-.65.93A4.14,4.14,0,0,0,1,4.29,7.45,7.45,0,0,0,.85,5.54a5.51,5.51,0,0,0,.24,1.64A4.21,4.21,0,0,0,1.81,8.5,3.43,3.43,0,0,0,3,9.39a3.57,3.57,0,0,0,1.58.33,3.86,3.86,0,0,0,1.22-.18Z"/><path class="cls-2" d="M8.8,9.66l1.94.35c0-.16.07-.32.11-.48l.23-.89h.2l.92.06.92.06h.19l0,.18.15.62c0,.14.07.27.1.41l1.93-.34c-.4-1.4-.81-2.75-1.22-4.08s-.83-2.74-1.24-4.17H11.44c-.42,1.43-.87,2.84-1.33,4.19S9.21,8.3,8.8,9.66Zm2.82-3q.11-.32.18-.63l.43-1.58.23,1,.15.61c.06.2.11.41.16.62l.07.29L11.52,7Z"/><path class="cls-2" d="M20.8,9.49a2.34,2.34,0,0,0,1.34-.79,2.17,2.17,0,0,0,.5-1.47,2.07,2.07,0,0,0-.15-.8,2.23,2.23,0,0,0-.4-.64l-.15-.16.14-.16a2.45,2.45,0,0,0,.56-1.63,2.1,2.1,0,0,0-.29-1.14,2.4,2.4,0,0,0-.76-.76,3.37,3.37,0,0,0-1.07-.42,8,8,0,0,0-1.95-.14l-.73,0H16.5c0,1.38-.07,2.74-.1,4.11s-.07,2.72-.1,4.09l3.34,0A7.45,7.45,0,0,0,20.8,9.49Zm-2.68-5c0-.21,0-.43,0-.63s0-.41,0-.61V2.94h.26l.76,0a4.76,4.76,0,0,1,.8.09,2.15,2.15,0,0,1,.65.22.62.62,0,0,1,.37.57.64.64,0,0,1-.26.52,1.38,1.38,0,0,1-.47.23,3.23,3.23,0,0,1-.53.08,3.4,3.4,0,0,1-.42,0h-1.1Zm.3,3.23h-.23v-.5a1.62,1.62,0,0,0,0-.22l0-.29.29,0c.24,0,.5,0,.78,0l.78.08a2.47,2.47,0,0,1,.6.13.44.44,0,0,1,.29.27.35.35,0,0,1-.07.3.65.65,0,0,1-.47.21,3.49,3.49,0,0,1-.59,0l-.67,0Z"/><path class="cls-2" d="M27.84,9.49a2.41,2.41,0,0,0,1.34-.79,2.21,2.21,0,0,0,.49-1.47,2.07,2.07,0,0,0-.14-.8,2.26,2.26,0,0,0-.41-.64L29,5.63l.14-.16a2.49,2.49,0,0,0,.55-1.63,2.09,2.09,0,0,0-.28-1.14,2.4,2.4,0,0,0-.76-.76,3.43,3.43,0,0,0-1.08-.42,8,8,0,0,0-1.95-.14l-.72,0H23.54c0,1.38-.07,2.74-.11,4.11s-.06,2.72-.1,4.09l3.35,0A7.45,7.45,0,0,0,27.84,9.49Zm-2.69-5c0-.21,0-.43,0-.63s0-.41,0-.61V2.94h.26l.76,0a4.64,4.64,0,0,1,.79.09,2.13,2.13,0,0,1,.66.22.64.64,0,0,1,.11,1.09,1.34,1.34,0,0,1-.48.23,3,3,0,0,1-.52.08,3.4,3.4,0,0,1-.42,0H25.16Zm.31,3.23h-.23v-.5c0-.07,0-.15,0-.22l0-.29.28,0c.25,0,.51,0,.79,0l.77.08a2.36,2.36,0,0,1,.6.13.42.42,0,0,1,.29.27.33.33,0,0,1-.06.3.65.65,0,0,1-.47.21,3.54,3.54,0,0,1-.6,0l-.67,0Z"/><path class="cls-2" d="M34.69,1.4H33.07c-.42,1.43-.87,2.84-1.34,4.19s-.9,2.71-1.3,4.07l1.93.35.12-.48.22-.89h.21l.92.06.91.06h.19L35,9c.05.2.1.41.16.62s.07.27.1.41l1.93-.34c-.41-1.4-.82-2.75-1.22-4.08S35.11,2.83,34.69,1.4ZM33.14,7l.11-.34L33.43,6l.43-1.58.23,1,.15.61c0,.2.1.41.16.62l.07.29Z"/><path class="cls-2" d="M46.14,8.48A3.32,3.32,0,0,0,47,7.25a4.75,4.75,0,0,0,.3-1.79,4.62,4.62,0,0,0,0-.65c0-.21-.09-.43-.15-.64a3.42,3.42,0,0,0-.61-1.27,3.45,3.45,0,0,0-1-.86,4.21,4.21,0,0,0-1.24-.48,6,6,0,0,0-1.41-.16H41.21l-.27,8.2,2.19,0a6.4,6.4,0,0,0,1.72-.34A3.75,3.75,0,0,0,46.14,8.48Zm-3.06-.87h-.25l-.16-4.79.27,0a6.85,6.85,0,0,1,.94.14,2.3,2.3,0,0,1,.83.36,2,2,0,0,1,.58.72,2.93,2.93,0,0,1,.27,1.12v0a3.81,3.81,0,0,1-.15,1.18,1.66,1.66,0,0,1-.5.76,1.93,1.93,0,0,1-.82.37A7.44,7.44,0,0,1,43.08,7.61Z"/><path class="cls-2" d="M55.37,7.19a6,6,0,0,0,.24-1.71,5.84,5.84,0,0,0-.24-1.71,3.87,3.87,0,0,0-.73-1.36,3.39,3.39,0,0,0-1.2-.91,4.32,4.32,0,0,0-3.31,0,3.39,3.39,0,0,0-1.2.91,3.87,3.87,0,0,0-.73,1.36,5.52,5.52,0,0,0-.26,1.71,5.66,5.66,0,0,0,.26,1.71,4,4,0,0,0,.74,1.4,3.46,3.46,0,0,0,1.19.95,4.22,4.22,0,0,0,3.32,0,3.46,3.46,0,0,0,1.19-.95A4.34,4.34,0,0,0,55.37,7.19Zm-1.79-.88a2.21,2.21,0,0,1-.29.78,1.64,1.64,0,0,1-.58.59,2.05,2.05,0,0,1-1.85,0,1.69,1.69,0,0,1-.58-.58A2.21,2.21,0,0,1,50,6.32a4,4,0,0,1-.08-.84A5.85,5.85,0,0,1,50,4.61a2,2,0,0,1,.28-.76,1.46,1.46,0,0,1,.6-.52,2.47,2.47,0,0,1,1.87,0,1.43,1.43,0,0,1,.6.54,2.23,2.23,0,0,1,.27.75,5.57,5.57,0,0,1,.06.85A4.57,4.57,0,0,1,53.58,6.31Z"/><path class="cls-2" d="M57.26,8.5a3.43,3.43,0,0,0,1.16.89A3.6,3.6,0,0,0,60,9.72a3.86,3.86,0,0,0,1.22-.18l.4-.14,0,.2h1.9l-.24-3.24V5.48l-3.16.25V7.18l1.77.14-.43.39A2.1,2.1,0,0,1,60,8.18a2,2,0,0,1-1-.24,1.84,1.84,0,0,1-.63-.64,2.58,2.58,0,0,1-.3-.86,5.47,5.47,0,0,1-.08-.9,3.56,3.56,0,0,1,.13-.94,2.37,2.37,0,0,1,.38-.8,1.89,1.89,0,0,1,.6-.56,1.68,1.68,0,0,1,1.62,0,2.75,2.75,0,0,1,.66.43l1.26-1.51A4.16,4.16,0,0,0,60,1.22a4.54,4.54,0,0,0-.81.08,4.1,4.1,0,0,0-.77.26,3.08,3.08,0,0,0-1,.69,3.57,3.57,0,0,0-.66.93,4.14,4.14,0,0,0-.37,1.11,7.45,7.45,0,0,0-.11,1.25,5.21,5.21,0,0,0,.25,1.64A4,4,0,0,0,57.26,8.5Z"/><path class="cls-2" d="M67.89,1.22a4.45,4.45,0,0,0-.81.08,4.2,4.2,0,0,0-.78.26,3.33,3.33,0,0,0-1,.69,3.57,3.57,0,0,0-.66.93,4.13,4.13,0,0,0-.36,1.11,6.54,6.54,0,0,0-.12,1.25,5.52,5.52,0,0,0,.25,1.64,3.84,3.84,0,0,0,.72,1.32,3.49,3.49,0,0,0,1.15.89,3.64,3.64,0,0,0,1.59.33,3.8,3.8,0,0,0,1.21-.18l.4-.14,0,.2h1.9l-.24-3.24V5.48L68,5.73V7.18l1.77.14-.44.39a2.05,2.05,0,0,1-1.41.47,2,2,0,0,1-1-.24,1.9,1.9,0,0,1-.62-.64,2.37,2.37,0,0,1-.3-.86,4.56,4.56,0,0,1-.08-.9A3.19,3.19,0,0,1,66,4.6a2.56,2.56,0,0,1,.37-.8,2.12,2.12,0,0,1,.6-.56,1.7,1.7,0,0,1,1.63,0,3.21,3.21,0,0,1,.66.43l1.26-1.51A4.2,4.2,0,0,0,67.89,1.22Z"/><path class="cls-2" d="M72.64,1l-1.34.78,2.33,4.62v.06c0,.58-.06,1.15-.08,1.72l-.07,1.45h1.94c0-.48,0-1-.07-1.45s0-1.13-.08-1.7V6.39l0-.06,2.27-4.6L76.3,1,74.46,4Z"/><path class="cls-2" d="M86.19,8.42a3.4,3.4,0,0,0,.88-1.29,5,5,0,0,0,.31-1.87,5.09,5.09,0,0,0,0-.69,5,5,0,0,0-.16-.67,3.71,3.71,0,0,0-.64-1.34,4,4,0,0,0-1-.9,4.7,4.7,0,0,0-1.31-.51A6.73,6.73,0,0,0,82.69,1H81L80.67,9.6l2.34,0a7.16,7.16,0,0,0,1.82-.36A3.69,3.69,0,0,0,86.19,8.42ZM83,7.46h-.22l-.17-4.92.25,0a7.46,7.46,0,0,1,1,.14,2.2,2.2,0,0,1,.85.38,2,2,0,0,1,.61.73A3.24,3.24,0,0,1,85.53,5V5a4.06,4.06,0,0,1-.15,1.21,1.63,1.63,0,0,1-.52.78,1.79,1.79,0,0,1-.84.37A5.65,5.65,0,0,1,83,7.46Z"/><path class="cls-2" d="M91.61,1H89.85c-.44,1.49-.92,3-1.41,4.39s-1,2.82-1.38,4.28l2.1.37c0-.18.09-.35.13-.52l.23-.9h.19q.5,0,1,.06l1,.05h.16l0,.17c.06.21.11.43.17.65s.07.31.11.46l2.1-.37q-.64-2.21-1.29-4.29C92.49,3.94,92.05,2.49,91.61,1ZM90,6.8l.1-.31c.07-.23.13-.45.19-.66l.18-.66.23-.85.21.86c0,.21.11.42.16.63l.17.65.06.26Z"/><path class="cls-2" d="M95.51,6.28l-.09,1.78-.06,1.56h2.11c0-.52,0-1-.08-1.55s0-1.18-.09-1.78V6.23l2.42-4.87L98.36.56,96.43,3.61,94.52.54l-1.46.84,2.46,4.84Z"/><path class="cls-2" d="M109.23,7.67l-1.58-.58a2,2,0,0,1-.71.63,2.24,2.24,0,0,1-1.08.29,1.88,1.88,0,0,1-1.25-.41,2.22,2.22,0,0,1-.67-1,3.36,3.36,0,0,1-.14-1.24,3.41,3.41,0,0,1,.29-1.24,2.7,2.7,0,0,1,.68-1,1.62,1.62,0,0,1,1.87-.22,3.59,3.59,0,0,1,.69.46l1.36-1.63a4.38,4.38,0,0,0-1.15-.7A4,4,0,0,0,106,.78a4.57,4.57,0,0,0-1.81.34,3.57,3.57,0,0,0-1.27.95,4,4,0,0,0-.77,1.43,6,6,0,0,0-.27,1.83,5.47,5.47,0,0,0,.27,1.74,4.13,4.13,0,0,0,.76,1.42,3.74,3.74,0,0,0,1.24.95,3.92,3.92,0,0,0,1.69.34A3.72,3.72,0,0,0,108,9.19,3.66,3.66,0,0,0,109.23,7.67Z"/><path class="cls-2" d="M115.07,10l2.11-.37c-.44-1.47-.87-2.9-1.3-4.29S115,2.49,114.56,1H112.8c-.44,1.49-.91,3-1.41,4.39s-1,2.82-1.38,4.28l2.1.37c0-.18.09-.35.14-.52l.22-.9h.19c.33,0,.65,0,1,.06l1,.05h.17l0,.17c0,.21.1.43.16.65S115,9.87,115.07,10ZM113,6.8l.09-.31c.07-.23.14-.45.19-.66s.13-.43.19-.66l.23-.85.21.86c0,.21.1.42.16.63s.11.43.16.65l.06.26Z"/><path class="cls-2" d="M121.75,8.65l1.56,1.91,1.48-.85-1.26-2,.11-.13a3.51,3.51,0,0,0,.74-1.25,4.64,4.64,0,0,0,.25-1.56,3.93,3.93,0,0,0-.29-1.55,3.38,3.38,0,0,0-.8-1.18,3.57,3.57,0,0,0-1.22-.77A5.48,5.48,0,0,0,120.2,1l-.58,0h-1.51c0,1.44-.07,2.88-.11,4.31s-.07,2.86-.11,4.3H120V9.42c0-.13,0-.26,0-.39l0-.24h.24l.72,0a5.05,5.05,0,0,0,.68-.08Zm-1.57-2-.24,0V6.42c0-.6,0-1.19,0-1.77s0-1.16,0-1.76V2.66h.24c.33,0,.65,0,1,0a2.32,2.32,0,0,1,.86.23,1.48,1.48,0,0,1,.63.61,2.09,2.09,0,0,1,.23,1.08,1.74,1.74,0,0,1-.24,1,1.78,1.78,0,0,1-.62.6,2.28,2.28,0,0,1-.82.33A8.08,8.08,0,0,1,120.18,6.64Z"/><path class="cls-2" d="M126.91,1h-1.17c0,1.44-.08,2.88-.11,4.31s-.07,2.86-.11,4.3h1.54l1.86.12,1.61.09V7.7l-1.23.08-1.46.08-.23,0V7.65c0-.2,0-.39,0-.58s0-.38,0-.57V6.24l.25,0c.38,0,.76,0,1.13.09l.87.06V4.31l-.9.06q-.57,0-1.14.09l-.24,0V4.24c0-.22,0-.43,0-.65s0-.43,0-.64V2.7h.25l1.53.09,1.29.08V.77l-1.69.1Z"/></g></g></svg>