<svg xmlns="http://www.w3.org/2000/svg" width="96.86" height="96.86" viewBox="0 0 96.86 96.86"><defs><style>.cls-1{fill:#159bff;}.cls-2{fill:transparent;}.cls-3{fill:#114393;}.cls-4{fill:none;}.cls-5{fill:#0c4d8e;}.cls-6{fill:#ffc95c;}</style></defs><g id="Layer_2" data-name="Layer 2"><g id="Layer_1-2" data-name="Layer 1"><path class="cls-1" d="M48.53,93.6A45.18,45.18,0,1,0,3.25,48.43,45.17,45.17,0,0,0,48.53,93.6Zm12.63-68c.89-3.06,3.75-5,6.31-4.44s3.85,3.55,3,6.61-3.75,5-6.31,4.43S60.27,28.6,61.16,25.55ZM50.61,15.39c1-3.85,4-6.32,6.8-5.63s4.05,4.44,3.06,8.29-4,6.31-6.81,5.62S49.62,19.23,50.61,15.39Zm14.5,28.9c0,3.05-2.37,4.93-6.32,4.93-4.34,0-7.2-2.17-10.65-2.17s-6.31,2.17-10.65,2.17c-4,0-6.31-1.88-6.31-4.93,0-6.81,10-17.66,17-17.66S65.11,37.48,65.11,44.29ZM38.87,9.76c2.66-.69,5.72,1.78,6.81,5.63s-.3,7.59-3.06,8.28-5.72-1.77-6.81-5.62S36.11,10.46,38.87,9.76ZM28.81,21.11c2.56-.59,5.42,1.38,6.31,4.44s-.39,6-3,6.6-5.32-1.38-6.31-4.43S26.24,21.7,28.81,21.11Z"/><path class="cls-1" d="M48.43,96.86A48.43,48.43,0,1,0,0,48.43,48.45,48.45,0,0,0,48.43,96.86ZM10,22.49A47.56,47.56,0,0,1,22.49,10a46.48,46.48,0,0,1,51.88,0A47.56,47.56,0,0,1,86.9,22.49,46.51,46.51,0,0,1,66.48,91.24a47.35,47.35,0,0,1-18.05,3.65A46.46,46.46,0,0,1,10,22.49Z"/><path class="cls-2" d="M22.49,87a46.74,46.74,0,0,0,25.94,7.89,47.35,47.35,0,0,0,18.05-3.65A46.51,46.51,0,0,0,86.9,22.49,47.56,47.56,0,0,0,74.37,10a46.48,46.48,0,0,0-51.88,0A47.56,47.56,0,0,0,10,22.49,46.65,46.65,0,0,0,22.49,87ZM3.25,48.43A45.23,45.23,0,1,1,48.53,93.6,45.17,45.17,0,0,1,3.25,48.43Z"/><path class="cls-3" d="M31.18,44.29c0,3.05,2.36,4.93,6.31,4.93,4.34,0,7.2-2.17,10.65-2.17s6.31,2.17,10.65,2.17c4,0,6.32-1.88,6.32-4.93,0-6.81-10-17.66-17-17.66S31.18,37.48,31.18,44.29Z"/><path class="cls-3" d="M32.16,32.15c2.57-.59,3.85-3.55,3-6.6s-3.75-5-6.31-4.44-3.95,3.55-3,6.61S29.6,32.75,32.16,32.15Z"/><path class="cls-3" d="M42.62,23.67c2.76-.69,4.14-4.44,3.06-8.28s-4.15-6.32-6.81-5.63-4.14,4.44-3.06,8.29S39.86,24.36,42.62,23.67Z"/><path class="cls-3" d="M64.12,32.15c2.56.6,5.42-1.38,6.31-4.43s-.39-6-3-6.61-5.42,1.38-6.31,4.44S61.56,31.56,64.12,32.15Z"/><path class="cls-3" d="M53.66,23.67c2.77.69,5.82-1.77,6.81-5.62s-.3-7.5-3.06-8.29-5.82,1.78-6.8,5.63S50.9,23,53.66,23.67Z"/><path class="cls-4" d="M61.36,56.28a1,1,0,0,0-.39-.35,1.61,1.61,0,0,0-.71-.13,1.63,1.63,0,0,0-.72.13.89.89,0,0,0-.4.34,1.44,1.44,0,0,0-.2.56,4.88,4.88,0,0,0-.06.79,3.91,3.91,0,0,0,.07.76,1.72,1.72,0,0,0,.23.61,1.05,1.05,0,0,0,.41.4,1.55,1.55,0,0,0,1.33,0,1.08,1.08,0,0,0,.41-.41,1.72,1.72,0,0,0,.23-.61,4.56,4.56,0,0,0,.06-.75,4.72,4.72,0,0,0-.06-.77A1.55,1.55,0,0,0,61.36,56.28Z"/><path class="cls-4" d="M53.41,58.38a3.76,3.76,0,0,0,.13-1,2.69,2.69,0,0,0-.23-.93,1.38,1.38,0,0,0-.43-.54,1.78,1.78,0,0,0-.64-.28l-.59-.1.13,3.73a4.66,4.66,0,0,0,.7-.08,1.28,1.28,0,0,0,.59-.26A1,1,0,0,0,53.41,58.38Z"/><path class="cls-4" d="M20.68,58.56v0h0Z"/><path class="cls-4" d="M30.3,73.94l-.06.21h.11A1.46,1.46,0,0,0,30.3,73.94Z"/><path class="cls-4" d="M42.3,58.56v0h0Z"/><path class="cls-4" d="M24,73.89a4.08,4.08,0,0,0,.15-1.18,3.23,3.23,0,0,0-.26-1.08,1.73,1.73,0,0,0-.52-.63,1.87,1.87,0,0,0-.76-.33c-.23,0-.47-.09-.73-.12L22,74.92a6.42,6.42,0,0,0,.85-.1,1.57,1.57,0,0,0,.72-.3A1.3,1.3,0,0,0,24,73.89Z"/><path class="cls-4" d="M66.88,73.07a1.41,1.41,0,0,0,.19-.78,1.9,1.9,0,0,0-.19-1,1.11,1.11,0,0,0-.49-.47,1.93,1.93,0,0,0-.76-.2c-.24,0-.49,0-.75,0,0,.57,0,1.13,0,1.68s0,1.11,0,1.67c.22,0,.43-.06.64-.1a2.57,2.57,0,0,0,.76-.3A1.58,1.58,0,0,0,66.88,73.07Z"/><path class="cls-4" d="M28,59.38l-.3,0-.5,0v0l.42,0Z"/><path class="cls-4" d="M57.52,73.94l-.06.21h.11C57.55,74.07,57.54,74,57.52,73.94Z"/><path class="cls-4" d="M31.42,57.07a2.67,2.67,0,0,1-.36.69,2.84,2.84,0,0,1,.33.56c0-.22,0-.45,0-.68S31.41,57.26,31.42,57.07Z"/><path class="cls-4" d="M34.58,55.6h-.49c0,.12,0,.24,0,.35s0,.26,0,.39h.2a5.62,5.62,0,0,0,.81,0,2,2,0,0,0,.43-.07.83.83,0,0,0,.3-.14.14.14,0,0,0,.06-.13s0-.07-.1-.13a1.81,1.81,0,0,0-.51-.16A5.05,5.05,0,0,0,34.58,55.6Z"/><path class="cls-4" d="M35,59.38l-.3,0-.49,0v0l.42,0Z"/><path class="cls-4" d="M27.54,55.6h-.48c0,.12,0,.24,0,.35s0,.26,0,.39h.19a5.75,5.75,0,0,0,.82,0,1.94,1.94,0,0,0,.42-.07.89.89,0,0,0,.31-.14.16.16,0,0,0,.06-.13s0-.07-.1-.13a1.88,1.88,0,0,0-.52-.16A5.05,5.05,0,0,0,27.54,55.6Z"/><path class="cls-5" d="M21.24,58.75c0-.2-.1-.41-.16-.62l-.15-.61-.23-1-.43,1.58q-.07.3-.18.63l-.1.34,1.32-.07Zm-.56-.19v0h0Z"/><path class="cls-5" d="M27.26,56.83h.44l.42,0a2.45,2.45,0,0,0,.53-.09,1.38,1.38,0,0,0,.47-.23A.64.64,0,0,0,29,55.41a2.48,2.48,0,0,0-.65-.21,6,6,0,0,0-.8-.1h-1v.25c0,.21,0,.41,0,.61s0,.42,0,.64v.24h.66ZM28.88,56a.16.16,0,0,1-.06.13.89.89,0,0,1-.31.14,1.94,1.94,0,0,1-.42.07,5.75,5.75,0,0,1-.82,0h-.19c0-.13,0-.26,0-.39s0-.23,0-.35h.48a5.05,5.05,0,0,1,.72.09,1.88,1.88,0,0,1,.52.16C28.88,55.91,28.88,56,28.88,56Z"/><path class="cls-5" d="M28.82,59.85a.62.62,0,0,0,.47-.22.34.34,0,0,0,.07-.3.46.46,0,0,0-.29-.27,3.05,3.05,0,0,0-.6-.13l-.78-.07c-.28,0-.54,0-.78,0h-.29l0,.28a1.77,1.77,0,0,1,0,.23v.49l.23,0,.66,0c.24,0,.46,0,.68,0A5.15,5.15,0,0,0,28.82,59.85Zm-1.66-.53.5,0,.3,0-.38,0-.42,0Z"/><path class="cls-5" d="M35.86,59.85a.62.62,0,0,0,.47-.22.33.33,0,0,0,.06-.3.42.42,0,0,0-.29-.27,2.89,2.89,0,0,0-.6-.13l-.77-.07c-.28,0-.55,0-.79,0h-.28l0,.28c0,.08,0,.15,0,.23v.49l.23,0,.66,0c.23,0,.46,0,.67,0A5.21,5.21,0,0,0,35.86,59.85Zm-1.66-.53.49,0,.3,0-.37,0-.42,0Z"/><path class="cls-5" d="M34.3,56.83h.44l.42,0a2.27,2.27,0,0,0,.52-.09,1.34,1.34,0,0,0,.48-.23.63.63,0,0,0,.25-.52.65.65,0,0,0-.36-.57,2.44,2.44,0,0,0-.66-.21,5.86,5.86,0,0,0-.79-.1h-1v.25c0,.21,0,.41,0,.61s0,.42,0,.64v.24h.67ZM35.91,56a.14.14,0,0,1-.06.13.83.83,0,0,1-.3.14,2,2,0,0,1-.43.07,5.62,5.62,0,0,1-.81,0h-.2c0-.13,0-.26,0-.39s0-.23,0-.35h.49a5.05,5.05,0,0,1,.72.09,1.81,1.81,0,0,1,.51.16C35.91,55.91,35.91,56,35.91,56Z"/><path class="cls-5" d="M42.71,58.13l-.15-.61-.23-1-.43,1.58-.18.63-.11.34,1.32-.07-.06-.3C42.81,58.55,42.76,58.34,42.71,58.13Zm-.41.43v0h0Z"/><path class="cls-5" d="M53.89,58.54A3.85,3.85,0,0,0,54,57.36v0a2.88,2.88,0,0,0-.27-1.12,1.91,1.91,0,0,0-.58-.72,2.32,2.32,0,0,0-.83-.37,6.87,6.87,0,0,0-.94-.13l-.27,0,.16,4.78h.25a6.07,6.07,0,0,0,1-.1,1.81,1.81,0,0,0,.82-.36A1.66,1.66,0,0,0,53.89,58.54Zm-2.11.71-.13-3.73.59.1a1.78,1.78,0,0,1,.64.28,1.38,1.38,0,0,1,.43.54,2.69,2.69,0,0,1,.23.93,3.76,3.76,0,0,1-.13,1,1,1,0,0,1-.34.53,1.28,1.28,0,0,1-.59.26A4.66,4.66,0,0,1,51.78,59.25Z"/><path class="cls-5" d="M61.79,56a1.5,1.5,0,0,0-.6-.54,2.52,2.52,0,0,0-1.87,0,1.39,1.39,0,0,0-.6.52,2,2,0,0,0-.28.75,5.94,5.94,0,0,0-.06.87,4.08,4.08,0,0,0,.08.85,2.21,2.21,0,0,0,.29.78,1.67,1.67,0,0,0,.58.57,2.05,2.05,0,0,0,1.85,0,1.61,1.61,0,0,0,.58-.58,2.21,2.21,0,0,0,.29-.78,5.14,5.14,0,0,0,0-1.69A2,2,0,0,0,61.79,56Zm-.23,2.35a1.72,1.72,0,0,1-.23.61,1.08,1.08,0,0,1-.41.41,1.55,1.55,0,0,1-1.33,0,1.05,1.05,0,0,1-.41-.4,1.72,1.72,0,0,1-.23-.61,3.91,3.91,0,0,1-.07-.76,4.88,4.88,0,0,1,.06-.79,1.44,1.44,0,0,1,.2-.56.89.89,0,0,1,.4-.34,1.63,1.63,0,0,1,.72-.13,1.61,1.61,0,0,1,.71.13,1,1,0,0,1,.39.35,1.55,1.55,0,0,1,.2.57,4.72,4.72,0,0,1,.06.77A4.56,4.56,0,0,1,61.56,58.37Z"/><path class="cls-5" d="M24.45,74.05a4.58,4.58,0,0,0,.17-1.35v0a3.38,3.38,0,0,0-.31-1.27,2.18,2.18,0,0,0-.67-.82,2.59,2.59,0,0,0-.94-.41A7.21,7.21,0,0,0,21.61,70l-.28,0,.19,5.43h.25A8,8,0,0,0,23,75.32a2.14,2.14,0,0,0,.93-.41A1.89,1.89,0,0,0,24.45,74.05ZM22,74.92l-.15-4.37c.26,0,.5.07.73.12a1.87,1.87,0,0,1,.76.33,1.73,1.73,0,0,1,.52.63,3.23,3.23,0,0,1,.26,1.08A4.08,4.08,0,0,1,24,73.89a1.3,1.3,0,0,1-.4.63,1.57,1.57,0,0,1-.72.3A6.42,6.42,0,0,1,22,74.92Z"/><path class="cls-5" d="M30.73,73.61l-.18-.71-.23-1-.25,1c-.07.24-.13.49-.2.72l-.21.73-.11.34L31,74.61l-.07-.29Zm-.43.33a1.46,1.46,0,0,1,.05.2h-.11Z"/><path class="cls-5" d="M58,73.61l-.18-.71-.23-1-.25,1c-.07.24-.14.49-.2.72l-.21.73-.11.34,1.43-.08-.07-.29Zm-.43.33c0,.07,0,.13,0,.2h-.11Z"/><path class="cls-5" d="M67.3,73.34a1.91,1.91,0,0,0,.27-1,2.55,2.55,0,0,0-.25-1.2,1.8,1.8,0,0,0-.7-.67,2.61,2.61,0,0,0-1-.25c-.33,0-.69,0-1,0h-.26v.26c0,.66,0,1.31,0,1.94s0,1.29,0,2v.27l.26,0a7.55,7.55,0,0,0,1-.15,2.8,2.8,0,0,0,.91-.36A2,2,0,0,0,67.3,73.34ZM65,74c0-.56,0-1.12,0-1.67s0-1.11,0-1.68c.26,0,.51,0,.75,0a1.93,1.93,0,0,1,.76.2,1.11,1.11,0,0,1,.49.47,1.9,1.9,0,0,1,.19,1,1.41,1.41,0,0,1-.19.78,1.58,1.58,0,0,1-.52.51,2.57,2.57,0,0,1-.76.3C65.39,73.92,65.18,74,65,74Z"/><path class="cls-5" d="M46.41,62.5c-.44-1.49-.87-2.94-1.3-4.35s-.87-2.86-1.3-4.34l-.11-.36h-.05l-.06-.22-.05-.18H41.16l0,.18-.06.22H41l-.11.36c-.43,1.48-.89,2.93-1.38,4.33L38.87,60a2.81,2.81,0,0,0-.2-1,2,2,0,0,0-.11-.2,1.4,1.4,0,0,0-.1-.35s0,0,0-.06a3.34,3.34,0,0,0,.44-1.7,2.77,2.77,0,0,0-.31-1.32,2.27,2.27,0,0,0-.28-.74,3,3,0,0,0-.92-.91,4.06,4.06,0,0,0-1.23-.49A9,9,0,0,0,34.07,53l-.73,0H31.52v.24a.81.81,0,0,0,0,.16h-.25v.48c0,.21,0,.42,0,.63a3,3,0,0,0-.9-.9,4.17,4.17,0,0,0-1.23-.49A9,9,0,0,0,27,53l-.72,0H24.49v.4h-.26v.48c0,1.46-.08,2.91-.11,4.35,0,.59,0,1.18-.05,1.76l-.57-1.89c-.43-1.41-.86-2.86-1.3-4.34l-.1-.36h0c0-.08-.05-.15-.07-.22l-.05-.18H19.54l-.05.18c0,.07,0,.14-.07.22h-.09l-.1.36c-.44,1.48-.9,2.93-1.38,4.33-.27.76-.52,1.53-.76,2.3l-.1-1.3V57.47l-.23,0v-.4l-2.1.16,2-2.43-.38-.32a.6.6,0,0,0-.13-.09l.18-.21L16.18,54A4.73,4.73,0,0,0,13,52.86a4,4,0,0,0-.91.1,4.54,4.54,0,0,0-.88.29,3.8,3.8,0,0,0-1.14.79,4.3,4.3,0,0,0-.74,1.06,3,3,0,0,0-.17.41l-.08.13A5.16,5.16,0,0,0,8.67,57a7.87,7.87,0,0,0-.12,1.38,6,6,0,0,0,.28,1.87,4.66,4.66,0,0,0,.86,1.58,4.28,4.28,0,0,0,1.4,1.08,4.35,4.35,0,0,0,1.91.4,5,5,0,0,0,1.11-.12h2.71l2.93.52.35-1.44.5,0,.56,0,.06.27q.09.31.15.63l.11.46,2.87-.51H27l1.17,0a7.1,7.1,0,0,0,1.3-.08A3.18,3.18,0,0,0,31,62.11c0,.17,0,.34,0,.52v.51h3l1.17,0A6.94,6.94,0,0,0,36.45,63,3.08,3.08,0,0,0,38.2,62l.08-.1c-.07.22-.14.43-.2.64l-.16.54,3.46.61.35-1.44.5,0,.55,0c0,.09,0,.18.07.27l.15.63.11.46L46.56,63ZM12.6,57.41v.4l-.27,0v1.85l-.05,0a1.21,1.21,0,0,1-.43-.44s0-.07,0-.11a4.11,4.11,0,0,1-.07-.78,2.48,2.48,0,0,1,.1-.73A1.87,1.87,0,0,1,12.1,57a1.43,1.43,0,0,1,.38-.36,1,1,0,0,1,.94,0,2.58,2.58,0,0,1,.64.46l.16.15Z"/><path class="cls-5" d="M84.54,60.92c0-.52-.05-1.05-.08-1.58L87,54.23,86.53,54l.14-.29-2.06-1.21-1.68,2.68-1.65-2.7-2.17,1.26,0,.06a4.67,4.67,0,0,0-2.78-.91,4,4,0,0,0-.91.1,4.63,4.63,0,0,0-.89.29,3.88,3.88,0,0,0-1.13.79,4.3,4.3,0,0,0-.74,1.06,3,3,0,0,0-.17.41,1.48,1.48,0,0,0-.08.13A4.8,4.8,0,0,0,72,57s0,.1,0,.16l-1.88.14,2-2.43-.37-.32-.13-.09.17-.21L71.63,54a4.71,4.71,0,0,0-3.16-1.18,4,4,0,0,0-.91.1,4.54,4.54,0,0,0-.88.29,3.63,3.63,0,0,0-1.13.79,4.09,4.09,0,0,0-.75,1.06c-.06.13-.12.27-.17.41s0,.08-.07.13a2.54,2.54,0,0,0-.16.38.61.61,0,0,1-.05-.12s0-.09,0-.14a4.34,4.34,0,0,0-.82-1.53,3.93,3.93,0,0,0-1.37-1,4.77,4.77,0,0,0-3.73,0,3.93,3.93,0,0,0-1.37,1,4.68,4.68,0,0,0-.74,1.31,6.65,6.65,0,0,0-.27.61l0-.06a3.81,3.81,0,0,0-1.78-2.33,4.52,4.52,0,0,0-1.38-.54,6.44,6.44,0,0,0-1.52-.17H49.19v.4h-.25l-.31,9.69h3l.5,0v0a7.15,7.15,0,0,0,1.45-.34,4.21,4.21,0,0,0,1.55-.91A4,4,0,0,0,56,60.46a4.85,4.85,0,0,0,.76,1.4A4.27,4.27,0,0,0,58.25,63a4.82,4.82,0,0,0,4,0,4.18,4.18,0,0,0,1.45-1.15,4.74,4.74,0,0,0,.73-1.35,4.73,4.73,0,0,0,.73,1.28,4.28,4.28,0,0,0,1.4,1.08,4.35,4.35,0,0,0,1.91.4,4.84,4.84,0,0,0,1.11-.12h3.18l-.15-2a5.5,5.5,0,0,0,.43.64,4.2,4.2,0,0,0,3.32,1.48,5,5,0,0,0,1.11-.12h3.17l-.29-4V57.47l-.23,0v-.4l-2.1.16,1.42-1.69,1.9,3.77c0,.53-.06,1.06-.08,1.59l-.1,2.23h3.52l0-.53C84.59,62.06,84.57,61.49,84.54,60.92ZM68.05,57.41v.4l-.27,0v1.85l0,0a1.39,1.39,0,0,1-.43-.44s0-.07,0-.11a4.11,4.11,0,0,1-.07-.78,2.86,2.86,0,0,1,.1-.73,1.67,1.67,0,0,1,.27-.57,1.19,1.19,0,0,1,.38-.36,1,1,0,0,1,.93,0,2.62,2.62,0,0,1,.65.46l.15.15Zm-6.92-.35a1.43,1.43,0,0,1,.16.48,4.23,4.23,0,0,1,.06.73,4.17,4.17,0,0,1-.06.71,1.6,1.6,0,0,1-.19.52,1,1,0,0,1-.32.33,1.38,1.38,0,0,1-1.09,0,1.08,1.08,0,0,1-.32-.32,1.67,1.67,0,0,1-.2-.53,4.25,4.25,0,0,1-.06-.71,5.78,5.78,0,0,1,0-.75,1.31,1.31,0,0,1,.17-.47.75.75,0,0,1,.3-.25,1.4,1.4,0,0,1,.6-.11,1.33,1.33,0,0,1,.6.11A.77.77,0,0,1,61.13,57.06Zm-9-.55a1.46,1.46,0,0,1,.55.24,1.26,1.26,0,0,1,.36.45,2.34,2.34,0,0,1,.2.83,3.1,3.1,0,0,1-.12.92.91.91,0,0,1-.25.42,1.15,1.15,0,0,1-.49.2c-.13,0-.26,0-.41.06l-.11-3.17Zm23.78.9v.4l-.27,0v1.85l0,0a1.32,1.32,0,0,1-.44-.44s0-.07,0-.11a5.12,5.12,0,0,1-.06-.78,2.48,2.48,0,0,1,.1-.73,1.87,1.87,0,0,1,.26-.57,1.43,1.43,0,0,1,.38-.36,1,1,0,0,1,.94,0,2.78,2.78,0,0,1,.64.46l.15.15Z"/><path class="cls-5" d="M40.79,68.78l.14-.29-2.32-1.35-2,3.09-1.94-3.12-2.44,1.41.13.27-.3.17c0-.14-.09-.28-.13-.42l-.1-.36h-.05c0-.08-.05-.15-.07-.22l-.05-.18H29L29,68a1.42,1.42,0,0,0-.07.22H28.8l-.1.36c-.43,1.45-.9,2.89-1.38,4.3v-.08a7,7,0,0,0-.19-.82,5.56,5.56,0,0,0-.36-1,4.39,4.39,0,0,0-.67-1.27,4.79,4.79,0,0,0-1.27-1.11,5.61,5.61,0,0,0-1.6-.62,7.89,7.89,0,0,0-1.75-.19h-2.4l0,.4h-.24l-.37,11h3.38l.5,0v0a9.05,9.05,0,0,0,1.74-.39,5,5,0,0,0,1.65-1l-.24.79-.16.54,3.85.67.11-.45c.06-.28.13-.55.2-.81l.09-.39.65,0,.7,0,.09.36c.07.24.12.48.18.73l.11.46,3.36-.59v0h3.91l0-.53c0-.66-.07-1.31-.1-2l-.09-1.84L41.24,69ZM22.51,71.56a1.73,1.73,0,0,1,.66.29,1.49,1.49,0,0,1,.44.54,2.66,2.66,0,0,1,.23,1,3.52,3.52,0,0,1-.13,1.09,1,1,0,0,1-.32.51,1.37,1.37,0,0,1-.6.26l-.56.07-.14-3.82ZM34.77,76.7l-.05,1c-.41-1.4-.83-2.79-1.24-4.13-.35-1.12-.7-2.28-1-3.45l2.43,4.78C34.82,75.47,34.79,76.09,34.77,76.7Z"/><path class="cls-5" d="M76.66,67.51H76.4l-2.13.13-2.12.13H70.39V68s0,.11,0,.16h-.25v.48c0,.86-.05,1.71-.07,2.56,0,0,0-.1,0-.15a1.08,1.08,0,0,0-.11-.18c0-.13-.06-.25-.1-.37a4.66,4.66,0,0,0-1-1.48,4.83,4.83,0,0,0-1.52-1,5.08,5.08,0,0,0-1.89-.34h-.63l-.64,0H62V68s0,.11,0,.16h-.25v.48c-.05,1.68-.09,3.35-.13,5,0,.84,0,1.68-.07,2.52-.27-.9-.54-1.78-.81-2.66-.49-1.61-1-3.28-1.5-5l-.11-.36h0C59,68.1,59,68,59,68l0-.18H56.23l-.06.18-.06.22H56l-.11.36c-.49,1.69-1,3.37-1.6,5-.26.76-.52,1.53-.77,2.31l-.36-.13,0-.1.1-.24-2.65-1-.11.2a1.59,1.59,0,0,1-.68.68,2,2,0,0,1-1,.26,1.54,1.54,0,0,1-1.06-.34,1.68,1.68,0,0,1-.41-.51,2.83,2.83,0,0,1-.08-.88,3.11,3.11,0,0,1,.26-1.11,2.32,2.32,0,0,1,.57-.82,1,1,0,0,1,1.24-.12,3.17,3.17,0,0,1,.76.55l.39.36,2.47-3-.35-.32-.14-.1.17-.2-.18-.16a5.44,5.44,0,0,0-1.6-1,5.14,5.14,0,0,0-1.87-.34,5.4,5.4,0,0,0-2.2.42,4.35,4.35,0,0,0-1.58,1.18,4.7,4.7,0,0,0-.74,1.27,5.33,5.33,0,0,0-.47,1.06,7.67,7.67,0,0,0-.32,2.24,7.17,7.17,0,0,0,.32,2.15,5.31,5.31,0,0,0,1,1.81,4.74,4.74,0,0,0,1.62,1.25,5.1,5.1,0,0,0,2.19.46,4.52,4.52,0,0,0,4.36-2.71c-.2.62-.4,1.25-.58,1.88l-.16.54,3.84.67.11-.45c.07-.28.14-.55.2-.81l.1-.39.65,0,.7,0,.09.36.18.73.11.46,3.25-.58h3.56l0-.52c0-.14,0-.27,0-.4h.32l.55,0,1.58,1.93.16.18h.37l2-1.13h2.06l2,.13,2.56.15V75.53l-.23,0v-.4l-.27,0-.3,0v-3.4h-.23v0l.5,0,.53,0V67.89h-.23ZM69.9,77.07l-.49-.79a5.73,5.73,0,0,0,.54-1C69.93,75.89,69.92,76.48,69.9,77.07Zm-4.72-2.72c0-.47,0-.94,0-1.39s0-.95,0-1.43l.47,0a2.18,2.18,0,0,1,.68.18.89.89,0,0,1,.39.38,1.66,1.66,0,0,1,.15.82,1.17,1.17,0,0,1-.15.64,1.29,1.29,0,0,1-.44.43,2.15,2.15,0,0,1-.68.27Z"/><path class="cls-6" d="M14.71,61.46l0,.2h1.9l-.24-3.24v-.87l-3.16.24v1.45l1.77.14-.44.39a2,2,0,0,1-1.41.48,2,2,0,0,1-1-.25,1.81,1.81,0,0,1-.62-.64,2.61,2.61,0,0,1-.31-.85,5.58,5.58,0,0,1-.07-.91,3.61,3.61,0,0,1,.12-.94,2.82,2.82,0,0,1,.38-.8,2.12,2.12,0,0,1,.6-.56,1.7,1.7,0,0,1,1.63,0,2.77,2.77,0,0,1,.66.42l1.26-1.51a4.2,4.2,0,0,0-2.64-.9,3.72,3.72,0,0,0-.81.09,3.55,3.55,0,0,0-.78.25,3.33,3.33,0,0,0-1,.69,3.75,3.75,0,0,0-.66.93,4.13,4.13,0,0,0-.36,1.11,6.54,6.54,0,0,0-.12,1.25,5.47,5.47,0,0,0,.25,1.64,3.75,3.75,0,0,0,.72,1.32,3.65,3.65,0,0,0,1.15.9,4.13,4.13,0,0,0,2.8.14Z"/><path class="cls-6" d="M17.35,61.72l1.93.35.12-.48.22-.89.21,0,.92.05.92.06h.18l0,.18c0,.21.09.41.15.62s.07.28.1.42l1.93-.35c-.41-1.39-.81-2.75-1.22-4.08s-.83-2.74-1.25-4.16H20c-.42,1.43-.87,2.83-1.34,4.18S17.75,60.36,17.35,61.72Zm2.82-3,.18-.62.43-1.58.23.95.15.61c.05.21.11.41.16.62l.07.29L20.06,59Z"/><path class="cls-6" d="M29.35,61.55a2.41,2.41,0,0,0,1.34-.79,2.22,2.22,0,0,0,.5-1.47A2,2,0,0,0,31,58.5a2.53,2.53,0,0,0-.4-.65l-.15-.16.14-.16a2.5,2.5,0,0,0,.56-1.63,2.1,2.1,0,0,0-.29-1.14,2.5,2.5,0,0,0-.76-.76,3.68,3.68,0,0,0-1.08-.42,8,8,0,0,0-1.95-.13l-.72,0H25.05c0,1.37-.07,2.74-.1,4.1s-.07,2.72-.11,4.09l3.35,0A7.45,7.45,0,0,0,29.35,61.55Zm-2.69-5c0-.21,0-.42,0-.63s0-.4,0-.61V55h.26l.76,0a5.94,5.94,0,0,1,.79.09,2.13,2.13,0,0,1,.66.22.64.64,0,0,1,.11,1.09,1.34,1.34,0,0,1-.48.23,4.34,4.34,0,0,1-.52.09l-.42,0H26.67ZM27,59.74l-.23,0v-.49c0-.08,0-.15,0-.23l0-.28H27l.79,0,.78.08a2.47,2.47,0,0,1,.6.13.42.42,0,0,1,.28.27.33.33,0,0,1-.06.3.62.62,0,0,1-.47.22,5.15,5.15,0,0,1-.59,0l-.68,0Z"/><path class="cls-6" d="M36.39,61.55a2.41,2.41,0,0,0,1.34-.79,2.21,2.21,0,0,0,.49-1.47,2,2,0,0,0-.15-.79,2.08,2.08,0,0,0-.4-.65l-.14-.16.13-.16a2.45,2.45,0,0,0,.56-1.63,2.1,2.1,0,0,0-.29-1.14,2.47,2.47,0,0,0-.75-.76,3.68,3.68,0,0,0-1.08-.42,8,8,0,0,0-2-.13l-.72,0H32.09c0,1.37-.08,2.74-.11,4.1s-.06,2.72-.1,4.09l3.35,0A7.45,7.45,0,0,0,36.39,61.55Zm-2.69-5c0-.21,0-.42,0-.63s0-.4,0-.61V55h.26l.77,0a6.14,6.14,0,0,1,.79.09,2.06,2.06,0,0,1,.65.22.64.64,0,0,1,.37.57.65.65,0,0,1-.25.52,1.53,1.53,0,0,1-.48.23,4.71,4.71,0,0,1-.52.09l-.43,0h-1.1Zm.3,3.24-.23,0v-.49a1.77,1.77,0,0,0,0-.23l0-.28H34l.79,0,.77.08a2.36,2.36,0,0,1,.6.13.44.44,0,0,1,.29.27.31.31,0,0,1-.07.3.62.62,0,0,1-.47.22,4.91,4.91,0,0,1-.59,0l-.67,0Z"/><path class="cls-6" d="M43.24,53.47H41.62c-.42,1.43-.87,2.83-1.34,4.18s-.9,2.71-1.3,4.07l1.93.35.12-.48.22-.89.2,0,.93.05.91.06h.19l0,.18.15.62c0,.14.07.28.11.42l1.93-.35c-.41-1.39-.82-2.75-1.22-4.08S43.66,54.89,43.24,53.47ZM41.69,59l.1-.35c.07-.21.13-.42.19-.62l.42-1.58.23.95c0,.21.1.41.16.61l.15.62L43,59Z"/><path class="cls-6" d="M54.68,60.54a3.23,3.23,0,0,0,.83-1.23,4.75,4.75,0,0,0,.3-1.79,3.49,3.49,0,0,0-.06-.65,5.27,5.27,0,0,0-.14-.64A3.58,3.58,0,0,0,55,55a3.46,3.46,0,0,0-1-.85,4.12,4.12,0,0,0-1.24-.49,6.55,6.55,0,0,0-1.41-.15H49.76l-.27,8.19,2.19,0a6.8,6.8,0,0,0,1.72-.35A3.47,3.47,0,0,0,54.68,60.54Zm-3-.87h-.25l-.17-4.79.28,0a6.87,6.87,0,0,1,.94.13,2,2,0,0,1,.82.37,1.89,1.89,0,0,1,.59.71,3.13,3.13,0,0,1,.27,1.13v0A3.78,3.78,0,0,1,54,58.45a1.6,1.6,0,0,1-.49.77,1.92,1.92,0,0,1-.82.36A6.14,6.14,0,0,1,51.63,59.67Z"/><path class="cls-6" d="M63.91,59.25a5.66,5.66,0,0,0,.25-1.71,5.57,5.57,0,0,0-.25-1.71,3.72,3.72,0,0,0-.73-1.36A3.35,3.35,0,0,0,62,53.56a4.32,4.32,0,0,0-3.31,0,3.3,3.3,0,0,0-1.2.91,4.06,4.06,0,0,0-.74,1.36,5.84,5.84,0,0,0-.25,1.71,5.94,5.94,0,0,0,.25,1.71,4.36,4.36,0,0,0,.74,1.4,3.49,3.49,0,0,0,1.2,1,3.74,3.74,0,0,0,1.65.35A3.83,3.83,0,0,0,62,61.6a3.46,3.46,0,0,0,1.19-1A4,4,0,0,0,63.91,59.25Zm-1.78-.87a2.61,2.61,0,0,1-.29.78,1.69,1.69,0,0,1-.58.58,2.05,2.05,0,0,1-1.85,0,1.72,1.72,0,0,1-.59-.58,2.58,2.58,0,0,1-.29-.78,4.68,4.68,0,0,1-.07-.84,5.94,5.94,0,0,1,.06-.87,1.92,1.92,0,0,1,.28-.75,1.41,1.41,0,0,1,.6-.53,2.47,2.47,0,0,1,1.87,0,1.35,1.35,0,0,1,.59.54,1.87,1.87,0,0,1,.27.75,4.57,4.57,0,0,1,.07.85A5.83,5.83,0,0,1,62.13,58.38Z"/><path class="cls-6" d="M65.81,60.56a3.58,3.58,0,0,0,1.16.9,3.71,3.71,0,0,0,1.58.32,3.76,3.76,0,0,0,1.21-.18l.4-.14,0,.2H72l-.24-3.24v-.87l-3.16.24v1.45l1.77.14-.44.39a2,2,0,0,1-1.41.48,1.9,1.9,0,0,1-1-.25,1.76,1.76,0,0,1-.63-.64,2.39,2.39,0,0,1-.3-.85,4.67,4.67,0,0,1-.08-.91,3.24,3.24,0,0,1,.13-.94,2.56,2.56,0,0,1,.37-.8,2,2,0,0,1,.61-.56,1.68,1.68,0,0,1,1.62,0,2.59,2.59,0,0,1,.66.42l1.26-1.51a4.18,4.18,0,0,0-2.64-.9,3.72,3.72,0,0,0-.81.09,3.55,3.55,0,0,0-.78.25,3.33,3.33,0,0,0-1,.69,4,4,0,0,0-.66.93A4.13,4.13,0,0,0,65,56.35a6.53,6.53,0,0,0-.11,1.25,5.47,5.47,0,0,0,.24,1.64A3.92,3.92,0,0,0,65.81,60.56Z"/><path class="cls-6" d="M76.44,53.28a3.72,3.72,0,0,0-.81.09,3.55,3.55,0,0,0-.78.25,3.2,3.2,0,0,0-1,.69,3.75,3.75,0,0,0-.66.93,4.13,4.13,0,0,0-.36,1.11,6.54,6.54,0,0,0-.12,1.25A5.17,5.17,0,0,0,73,59.24a3.75,3.75,0,0,0,.72,1.32,3.65,3.65,0,0,0,1.15.9,3.76,3.76,0,0,0,1.59.32,3.84,3.84,0,0,0,1.21-.18l.4-.14,0,.2h1.9l-.23-3.24v-.87l-3.16.24v1.45l1.77.14-.43.39a2,2,0,0,1-1.41.48,2,2,0,0,1-1-.25,1.93,1.93,0,0,1-.63-.64,2.85,2.85,0,0,1-.3-.85,5.58,5.58,0,0,1-.07-.91,3.61,3.61,0,0,1,.12-.94,2.57,2.57,0,0,1,.38-.8,2,2,0,0,1,.6-.56,1.68,1.68,0,0,1,1.62,0,2.63,2.63,0,0,1,.67.42l1.26-1.51A4.2,4.2,0,0,0,76.44,53.28Z"/><path class="cls-6" d="M81.18,53.05l-1.33.77,2.32,4.62v.07c0,.57-.06,1.14-.08,1.71L82,61.67H84c0-.48,0-1-.07-1.45s0-1.13-.09-1.7v-.07l0-.05,2.26-4.6-1.24-.73L83,56Z"/><path class="cls-6" d="M25.42,76.4a3.7,3.7,0,0,0,1-1.42,5.57,5.57,0,0,0,.35-2.07,4.68,4.68,0,0,0-.06-.76,6.14,6.14,0,0,0-.18-.74,3.92,3.92,0,0,0-.71-1.48,4.31,4.31,0,0,0-1.14-1,4.7,4.7,0,0,0-1.45-.56,7.52,7.52,0,0,0-1.65-.18H19.64l-.31,9.5,2.58,0a8.14,8.14,0,0,0,2-.4A4.22,4.22,0,0,0,25.42,76.4Zm-3.57-1.06H21.6l-.19-5.43.28,0a7.19,7.19,0,0,1,1.08.16,2.49,2.49,0,0,1,.94.41,2.24,2.24,0,0,1,.67.81,3.49,3.49,0,0,1,.31,1.28v0A4.16,4.16,0,0,1,24.52,74a1.77,1.77,0,0,1-.56.86,2.06,2.06,0,0,1-.94.41A5.89,5.89,0,0,1,21.85,75.34Z"/><path class="cls-6" d="M31.4,68.2H29.46c-.49,1.64-1,3.27-1.56,4.84s-1,3.12-1.52,4.73l2.32.41.15-.58.25-1h.2l1.07.06,1.06.07h.19l0,.18.18.71.12.52,2.33-.41c-.48-1.63-1-3.2-1.43-4.74S31.89,69.85,31.4,68.2Zm-1.77,6.41.11-.35.21-.72c.06-.24.13-.48.2-.73l.25-.94.23.95.18.7.18.72.07.29Z"/><path class="cls-6" d="M35.71,74c0,.65-.07,1.31-.1,2l-.07,1.71h2.33c0-.57-.06-1.14-.08-1.71s-.07-1.3-.1-2V74l2.67-5.38-1.5-.87-2.13,3.36-2.1-3.39L33,68.63,35.72,74Z"/><path class="cls-6" d="M52.74,75.57,51,74.93a2.17,2.17,0,0,1-.77.7,2.5,2.5,0,0,1-1.2.31,2.06,2.06,0,0,1-1.38-.45,2.37,2.37,0,0,1-.73-1.1A3.61,3.61,0,0,1,46.73,73a4.05,4.05,0,0,1,.33-1.36,3,3,0,0,1,.75-1.08,1.8,1.8,0,0,1,2.07-.24,3.44,3.44,0,0,1,.75.51l1.51-1.8a5.07,5.07,0,0,0-1.27-.78,4.56,4.56,0,0,0-1.68-.3,4.79,4.79,0,0,0-2,.38,3.86,3.86,0,0,0-1.4,1A4.3,4.3,0,0,0,44.94,71a6.58,6.58,0,0,0-.29,2,6,6,0,0,0,.29,1.92,4.43,4.43,0,0,0,.84,1.56,4,4,0,0,0,1.37,1A4.35,4.35,0,0,0,49,77.9a3.85,3.85,0,0,0,3.73-2.33Z"/><path class="cls-6" d="M59.18,78.17l2.32-.41c-.47-1.63-1-3.2-1.42-4.74s-1-3.17-1.46-4.82H56.68c-.49,1.64-1,3.27-1.56,4.84s-1,3.12-1.53,4.73l2.33.41c0-.2.09-.39.14-.58l.25-1h.21l1.07.06,1.06.07h.18l.05.18c.06.23.11.47.18.71Zm-2.33-3.56.1-.35q.12-.36.21-.72c.07-.24.14-.48.2-.73l.26-.94.23.95.18.7.18.72.07.29Z"/><path class="cls-6" d="M66.56,76.65l1.72,2.11,1.63-.94-1.39-2.24.12-.14a4.22,4.22,0,0,0,.82-1.39,5.24,5.24,0,0,0,.28-1.71,4.31,4.31,0,0,0-.33-1.71,3.76,3.76,0,0,0-.89-1.31,3.93,3.93,0,0,0-1.34-.85,6.38,6.38,0,0,0-2.34-.3l-.63,0H62.54c0,1.59-.09,3.18-.12,4.76s-.08,3.15-.13,4.74h2.35a1.27,1.27,0,0,1,0-.2c0-.14,0-.28,0-.43l0-.26h.26l.79,0c.26,0,.51,0,.76-.09Zm-1.74-2.22-.27,0v-.26c0-.66,0-1.31,0-2s0-1.28,0-1.94V70h.26c.36,0,.71,0,1,0a2.51,2.51,0,0,1,.94.25,1.62,1.62,0,0,1,.7.67,2.4,2.4,0,0,1,.26,1.2,1.91,1.91,0,0,1-.27,1.05,2,2,0,0,1-.68.66,2.8,2.8,0,0,1-.91.36A7.55,7.55,0,0,1,64.82,74.43Z"/><path class="cls-6" d="M72.25,68.2H71c0,1.59-.09,3.18-.12,4.76s-.08,3.15-.13,4.74h1.71l2,.13,1.77.1V75.6c-.45,0-.9.06-1.35.09l-1.61.1H73v-.25c0-.22,0-.44,0-.64s0-.42,0-.63L73,74l.28,0,1.25.09,1,.07V71.86l-1,.07-1.26.1-.26,0v-.26c0-.24,0-.48,0-.72s0-.47,0-.71l0-.28.28,0,1.69.1,1.42.08V68l-1.87.11Z"/></g></g></svg>