<?xml version="1.0" encoding="utf-8"?>
<!-- Generator: Adobe Illustrator 25.0.1, SVG Export Plug-In . SVG Version: 6.00 Build 0)  -->
<svg version="1.1" id="Layer_1" xmlns="http://www.w3.org/2000/svg" xmlns:xlink="http://www.w3.org/1999/xlink" x="0px" y="0px"
	 viewBox="0 0 96.9 96.9" style="enable-background:new 0 0 96.9 96.9;" xml:space="preserve">
<style type="text/css">
	.st0{fill:#159BFF;}
	.st1{fill:none;}
	.st2{fill:#114393;}
	.st3{fill:#0C4D8E;}
	.st4{fill:#FFC95C;}
</style>
<g id="Layer_2_1_">
	<g id="Layer_1-2">
		<path class="st0" d="M48.5,93.6c25-0.1,45.1-20.3,45.1-45.3S73.3,3.2,48.3,3.2C23.4,3.3,3.2,23.5,3.3,48.4
			c0,24.9,20.2,45.2,45.2,45.2C48.5,93.6,48.5,93.6,48.5,93.6z M61.2,25.6c0.9-3.1,3.8-5,6.3-4.4s3.8,3.5,3,6.6s-3.8,5-6.3,4.4
			S60.3,28.6,61.2,25.6L61.2,25.6z M50.6,15.4c1-3.8,4-6.3,6.8-5.6s4,4.4,3.1,8.3s-4,6.3-6.8,5.6S49.6,19.2,50.6,15.4z M65.1,44.3
			c0,3-2.4,4.9-6.3,4.9c-4.3,0-7.2-2.2-10.7-2.2s-6.3,2.2-10.7,2.2c-4,0-6.3-1.9-6.3-4.9c0-6.8,10-17.7,17-17.7S65.1,37.5,65.1,44.3
			z M38.9,9.8c2.7-0.7,5.7,1.8,6.8,5.6s-0.3,7.6-3.1,8.3s-5.7-1.8-6.8-5.6S36.1,10.5,38.9,9.8z M28.8,21.1c2.6-0.6,5.4,1.4,6.3,4.4
			s-0.4,6-3,6.6c-2.6,0.6-5.3-1.4-6.3-4.4S26.2,21.7,28.8,21.1z"/>
		<path class="st0" d="M48.4,96.9c26.7,0,48.4-21.7,48.4-48.4S75.2,0,48.4,0S0,21.7,0,48.4C0,75.2,21.7,96.8,48.4,96.9z M10,22.5
			c3.3-4.9,7.6-9.1,12.5-12.5C38.2-0.5,58.7-0.5,74.4,10c4.9,3.3,9.2,7.6,12.5,12.5c14.3,21.3,8.7,50.2-12.7,64.5
			c-2.4,1.6-5,3.1-7.8,4.2c-5.7,2.4-11.9,3.6-18,3.7C22.8,94.8,2,74,2.1,48.3C2.1,39.1,4.9,30.1,10,22.5z"/>
		<path class="st1" d="M22.5,87c7.7,5.1,16.7,7.9,25.9,7.9c6.2,0,12.3-1.3,18-3.7c23.6-10,34.7-37.3,24.6-61
			c-1.2-2.7-2.6-5.3-4.2-7.8c-3.4-4.9-7.6-9.1-12.5-12.5C58.7-0.5,38.2-0.5,22.5,10c-4.9,3.3-9.1,7.6-12.5,12.5
			C-4.3,43.8,1.3,72.6,22.5,87z M3.3,48.4c0-25,20.2-45.3,45.2-45.3s45.3,20.2,45.3,45.2c0,25-20.2,45.3-45.2,45.3c0,0,0,0,0,0
			C23.6,93.7,3.3,73.5,3.3,48.5C3.3,48.5,3.3,48.5,3.3,48.4z"/>
		<path class="st2" d="M31.2,44.3c0,3,2.4,4.9,6.3,4.9c4.3,0,7.2-2.2,10.6-2.2s6.3,2.2,10.7,2.2c4,0,6.3-1.9,6.3-4.9
			c0-6.8-10-17.7-17-17.7S31.2,37.5,31.2,44.3z"/>
		<path class="st2" d="M32.2,32.2c2.6-0.6,3.8-3.5,3-6.6s-3.8-5-6.3-4.4s-4,3.5-3,6.6S29.6,32.8,32.2,32.2z"/>
		<path class="st2" d="M42.6,23.7c2.8-0.7,4.1-4.4,3.1-8.3s-4.2-6.3-6.8-5.6s-4.1,4.4-3.1,8.3S39.9,24.4,42.6,23.7z"/>
		<path class="st2" d="M64.1,32.2c2.6,0.6,5.4-1.4,6.3-4.4s-0.4-6-3-6.6s-5.4,1.4-6.3,4.4S61.6,31.6,64.1,32.2z"/>
		<path class="st2" d="M53.7,23.7c2.8,0.7,5.8-1.8,6.8-5.6s-0.3-7.5-3.1-8.3s-5.8,1.8-6.8,5.6S50.9,23,53.7,23.7z"/>
		<path class="st1" d="M61.4,56.3c-0.1-0.1-0.2-0.3-0.4-0.3c-0.2-0.1-0.5-0.1-0.7-0.1c-0.2,0-0.5,0-0.7,0.1
			c-0.2,0.1-0.3,0.2-0.4,0.3c-0.1,0.2-0.2,0.4-0.2,0.6c0,0.3-0.1,0.5-0.1,0.8c0,0.3,0,0.5,0.1,0.8c0,0.2,0.1,0.4,0.2,0.6
			c0.1,0.2,0.2,0.3,0.4,0.4c0.4,0.2,0.9,0.2,1.3,0c0.2-0.1,0.3-0.2,0.4-0.4c0.1-0.2,0.2-0.4,0.2-0.6c0-0.2,0.1-0.5,0.1-0.8
			c0-0.3,0-0.5-0.1-0.8C61.5,56.6,61.5,56.5,61.4,56.3z"/>
		<path class="st1" d="M53.4,58.4c0.1-0.3,0.1-0.7,0.1-1c0-0.3-0.1-0.6-0.2-0.9c-0.1-0.2-0.2-0.4-0.4-0.5c-0.2-0.1-0.4-0.2-0.6-0.3
			l-0.6-0.1l0.1,3.7c0.2,0,0.5,0,0.7-0.1c0.2,0,0.4-0.1,0.6-0.3C53.2,58.8,53.4,58.6,53.4,58.4z"/>
		<path class="st1" d="M20.7,58.6L20.7,58.6L20.7,58.6z"/>
		<path class="st1" d="M30.3,73.9l-0.1,0.2h0.1C30.3,74.1,30.3,74,30.3,73.9z"/>
		<path class="st1" d="M42.3,58.6L42.3,58.6L42.3,58.6z"/>
		<path class="st1" d="M24,73.9c0.1-0.4,0.2-0.8,0.1-1.2c0-0.4-0.1-0.7-0.3-1.1c-0.1-0.2-0.3-0.5-0.5-0.6c-0.2-0.2-0.5-0.3-0.8-0.3
			c-0.2,0-0.5-0.1-0.7-0.1l0.1,4.4c0.3,0,0.6,0,0.9-0.1c0.3,0,0.5-0.1,0.7-0.3C23.8,74.4,23.9,74.1,24,73.9z"/>
		<path class="st1" d="M66.9,73.1c0.1-0.2,0.2-0.5,0.2-0.8c0-0.3,0-0.7-0.2-1c-0.1-0.2-0.3-0.4-0.5-0.5c-0.2-0.1-0.5-0.2-0.8-0.2
			c-0.2,0-0.5,0-0.8,0c0,0.6,0,1.1,0,1.7s0,1.1,0,1.7c0.2,0,0.4-0.1,0.6-0.1c0.3-0.1,0.5-0.2,0.8-0.3C66.5,73.5,66.7,73.3,66.9,73.1
			z"/>
		<path class="st1" d="M28,59.4h-0.3h-0.5l0,0h0.4H28z"/>
		<path class="st1" d="M57.5,73.9l-0.1,0.2h0.1C57.5,74.1,57.5,74,57.5,73.9z"/>
		<path class="st1" d="M31.4,57.1c-0.1,0.2-0.2,0.5-0.4,0.7c0.1,0.2,0.2,0.4,0.3,0.6c0-0.2,0-0.5,0-0.7S31.4,57.3,31.4,57.1z"/>
		<path class="st1" d="M34.6,55.6h-0.5c0,0.1,0,0.2,0,0.3s0,0.3,0,0.4h0.2c0.3,0,0.5,0,0.8,0c0.1,0,0.3,0,0.4-0.1
			c0.1,0,0.2-0.1,0.3-0.1c0,0,0.1-0.1,0.1-0.1c0,0,0-0.1-0.1-0.1c-0.2-0.1-0.3-0.1-0.5-0.2C35,55.7,34.8,55.6,34.6,55.6z"/>
		<path class="st1" d="M35,59.4h-0.3h-0.5l0,0h0.4H35z"/>
		<path class="st1" d="M27.5,55.6h-0.5c0,0.1,0,0.2,0,0.3s0,0.3,0,0.4h0.2c0.3,0,0.5,0,0.8,0c0.1,0,0.3,0,0.4-0.1
			c0.1,0,0.2-0.1,0.3-0.1c0,0,0.1-0.1,0.1-0.1c0,0,0-0.1-0.1-0.1c-0.2-0.1-0.3-0.1-0.5-0.2C28,55.7,27.8,55.6,27.5,55.6z"/>
		<path class="st3" d="M21.2,58.8c0-0.2-0.1-0.4-0.2-0.6l-0.1-0.6l-0.2-1l-0.4,1.6c0,0.2-0.1,0.4-0.2,0.6L20,59.1l1.3-0.1L21.2,58.8
			z M20.7,58.6L20.7,58.6L20.7,58.6z"/>
		<path class="st3" d="M27.3,56.8h0.4h0.4c0.2,0,0.4,0,0.5-0.1c0.2,0,0.3-0.1,0.5-0.2c0.3-0.2,0.3-0.6,0.1-0.9
			c-0.1-0.1-0.2-0.2-0.3-0.2c-0.2-0.1-0.4-0.2-0.6-0.2c-0.3-0.1-0.5-0.1-0.8-0.1h-1v0.3c0,0.2,0,0.4,0,0.6s0,0.4,0,0.6v0.2
			L27.3,56.8L27.3,56.8z M28.9,56c0,0.1,0,0.1-0.1,0.1c-0.1,0.1-0.2,0.1-0.3,0.1c-0.1,0-0.3,0.1-0.4,0.1c-0.3,0-0.5,0-0.8,0h-0.2
			c0-0.1,0-0.3,0-0.4s0-0.2,0-0.3h0.5c0.2,0,0.5,0,0.7,0.1c0.2,0,0.4,0.1,0.5,0.2C28.9,55.9,28.9,56,28.9,56z"/>
		<path class="st3" d="M28.8,59.8c0.2,0,0.4-0.1,0.5-0.2c0.1-0.1,0.1-0.2,0.1-0.3c-0.1-0.1-0.2-0.2-0.3-0.3
			c-0.2-0.1-0.4-0.1-0.6-0.1l-0.8-0.1c-0.3,0-0.5,0-0.8,0h-0.3v0.3c0,0.1,0,0.2,0,0.2v0.5h0.2h0.7c0.2,0,0.5,0,0.7,0
			C28.4,59.9,28.6,59.9,28.8,59.8z M27.2,59.3h0.5H28h-0.4H27.2z"/>
		<path class="st3" d="M35.9,59.8c0.2,0,0.4-0.1,0.5-0.2c0.1-0.1,0.1-0.2,0.1-0.3c0-0.1-0.2-0.2-0.3-0.3c-0.2-0.1-0.4-0.1-0.6-0.1
			l-0.8-0.1c-0.3,0-0.5,0-0.8,0h-0.3v0.3c0,0.1,0,0.2,0,0.2v0.5h0.2h0.7c0.2,0,0.5,0,0.7,0C35.4,59.9,35.6,59.9,35.9,59.8z
			 M34.2,59.3h0.5H35h-0.4C34.6,59.3,34.2,59.3,34.2,59.3z"/>
		<path class="st3" d="M34.3,56.8h0.4h0.4c0.2,0,0.4,0,0.5-0.1c0.2,0,0.3-0.1,0.5-0.2c0.2-0.1,0.3-0.3,0.3-0.5
			c0-0.2-0.1-0.5-0.4-0.6c-0.2-0.1-0.4-0.2-0.7-0.2c-0.3-0.1-0.5-0.1-0.8-0.1h-1v0.3c0,0.2,0,0.4,0,0.6s0,0.4,0,0.6v0.2L34.3,56.8
			L34.3,56.8z M35.9,56c0,0.1,0,0.1-0.1,0.1c-0.1,0.1-0.2,0.1-0.3,0.1c-0.1,0-0.3,0.1-0.4,0.1c-0.3,0-0.5,0-0.8,0h-0.2
			c0-0.1,0-0.3,0-0.4s0-0.2,0-0.3h0.5c0.2,0,0.5,0,0.7,0.1c0.2,0,0.3,0.1,0.5,0.2C35.9,55.9,35.9,56,35.9,56z"/>
		<path class="st3" d="M42.7,58.1l-0.2-0.6l-0.2-1l-0.4,1.6l-0.2,0.6l-0.1,0.3l1.3-0.1l-0.1-0.3C42.8,58.5,42.8,58.3,42.7,58.1z
			 M42.3,58.6L42.3,58.6L42.3,58.6z"/>
		<path class="st3" d="M53.9,58.5c0.1-0.4,0.1-0.8,0.1-1.2l0,0c0-0.4-0.1-0.8-0.3-1.1c-0.1-0.3-0.3-0.5-0.6-0.7
			c-0.2-0.2-0.5-0.3-0.8-0.4C52,55.1,51.7,55,51.4,55h-0.3l0.2,4.8h0.3c0.3,0,0.7,0,1-0.1c0.3,0,0.6-0.2,0.8-0.4
			C53.6,59.1,53.8,58.9,53.9,58.5z M51.8,59.3l-0.1-3.7l0.6,0.1c0.2,0.1,0.4,0.1,0.6,0.3c0.2,0.1,0.3,0.3,0.4,0.5
			c0.1,0.3,0.2,0.6,0.2,0.9c0,0.3,0,0.7-0.1,1c-0.1,0.2-0.2,0.4-0.3,0.5c-0.2,0.1-0.4,0.2-0.6,0.3C52.2,59.2,52,59.2,51.8,59.3z"/>
		<path class="st3" d="M61.8,56c-0.1-0.2-0.4-0.4-0.6-0.5c-0.6-0.2-1.3-0.2-1.9,0c-0.2,0.1-0.5,0.3-0.6,0.5
			c-0.1,0.2-0.2,0.5-0.3,0.8c0,0.3-0.1,0.6-0.1,0.9c0,0.3,0,0.6,0.1,0.8c0,0.3,0.1,0.5,0.3,0.8c0.1,0.2,0.3,0.4,0.6,0.6
			c0.6,0.3,1.3,0.3,1.8,0c0.2-0.1,0.4-0.3,0.6-0.6c0.1-0.2,0.2-0.5,0.3-0.8c0.1-0.6,0.1-1.1,0-1.7C62,56.5,61.9,56.2,61.8,56z
			 M61.6,58.3c0,0.2-0.1,0.4-0.2,0.6c-0.1,0.2-0.2,0.3-0.4,0.4c-0.4,0.2-0.9,0.2-1.3,0c-0.2-0.1-0.3-0.2-0.4-0.4
			c-0.1-0.2-0.2-0.4-0.2-0.6c0-0.3-0.1-0.5-0.1-0.8c0-0.3,0-0.5,0.1-0.8c0-0.2,0.1-0.4,0.2-0.6c0.1-0.2,0.2-0.3,0.4-0.3
			c0.2-0.1,0.5-0.1,0.7-0.1c0.2,0,0.5,0,0.7,0.1c0.2,0.1,0.3,0.2,0.4,0.3c0.1,0.2,0.2,0.4,0.2,0.6c0,0.3,0.1,0.5,0.1,0.8
			C61.6,57.9,61.6,58.1,61.6,58.3L61.6,58.3z"/>
		<path class="st3" d="M24.5,74.1c0.1-0.4,0.2-0.9,0.2-1.3l0,0c0-0.4-0.1-0.9-0.3-1.3c-0.2-0.3-0.4-0.6-0.7-0.8
			c-0.3-0.2-0.6-0.3-0.9-0.4C22.3,70.1,22,70,21.6,70h-0.3l0.2,5.4h0.3c0.4,0,0.8,0,1.2-0.1c0.3-0.1,0.7-0.2,0.9-0.4
			C24.2,74.7,24.4,74.4,24.5,74.1z M22,74.9l-0.1-4.4c0.3,0,0.5,0.1,0.7,0.1c0.3,0.1,0.5,0.2,0.8,0.3c0.2,0.2,0.4,0.4,0.5,0.6
			c0.1,0.3,0.2,0.7,0.3,1.1c0,0.4,0,0.8-0.1,1.2c-0.1,0.2-0.2,0.5-0.4,0.6c-0.2,0.2-0.5,0.3-0.7,0.3C22.6,74.9,22.3,74.9,22,74.9z"
			/>
		<path class="st3" d="M30.7,73.6l-0.2-0.7l-0.2-1l-0.3,1c-0.1,0.2-0.1,0.5-0.2,0.7l-0.2,0.7l-0.1,0.3l1.5-0.1l-0.1-0.3L30.7,73.6z
			 M30.3,73.9c0,0.1,0,0.1,0,0.2h-0.1L30.3,73.9z"/>
		<path class="st3" d="M58,73.6l-0.2-0.7l-0.2-1l-0.3,1c-0.1,0.2-0.1,0.5-0.2,0.7l-0.2,0.7l-0.1,0.3l1.4-0.1l-0.1-0.3L58,73.6z
			 M57.6,73.9c0,0.1,0,0.1,0,0.2h-0.1L57.6,73.9z"/>
		<path class="st3" d="M67.3,73.3c0.2-0.3,0.3-0.6,0.3-1c0-0.4-0.1-0.8-0.3-1.2c-0.2-0.3-0.4-0.5-0.7-0.7c-0.3-0.1-0.7-0.2-1-0.3
			c-0.3,0-0.7,0-1,0h-0.3v0.3c0,0.7,0,1.3,0,1.9s0,1.3,0,2v0.3h0.3c0.3,0,0.7-0.1,1-0.2c0.3-0.1,0.6-0.2,0.9-0.4
			C66.9,74,67.1,73.7,67.3,73.3z M65,74c0-0.6,0-1.1,0-1.7s0-1.1,0-1.7c0.3,0,0.5,0,0.8,0c0.3,0,0.5,0.1,0.8,0.2
			c0.2,0.1,0.4,0.3,0.5,0.5c0.2,0.3,0.2,0.7,0.2,1c0,0.3-0.1,0.5-0.2,0.8c-0.1,0.2-0.3,0.4-0.5,0.5c-0.2,0.1-0.5,0.2-0.8,0.3
			C65.4,73.9,65.2,74,65,74z"/>
		<path class="st3" d="M46.4,62.5c-0.4-1.5-0.9-2.9-1.3-4.3s-0.9-2.9-1.3-4.3l-0.1-0.4h0l-0.1-0.2l0-0.2h-2.4v0.2l-0.1,0.2H41
			l-0.1,0.4c-0.4,1.5-0.9,2.9-1.4,4.3L38.9,60c0-0.3-0.1-0.7-0.2-1c0-0.1-0.1-0.1-0.1-0.2c0-0.1-0.1-0.2-0.1-0.3c0,0,0,0,0-0.1
			c0.3-0.5,0.4-1.1,0.4-1.7c0-0.5-0.1-0.9-0.3-1.3c0-0.3-0.1-0.5-0.3-0.7c-0.2-0.4-0.6-0.7-0.9-0.9c-0.4-0.2-0.8-0.4-1.2-0.5
			c-0.7-0.2-1.4-0.2-2.1-0.2h-0.7h-1.8v0.2c0,0.1,0,0.1,0,0.2h-0.3v0.5c0,0.2,0,0.4,0,0.6c-0.2-0.4-0.5-0.7-0.9-0.9
			c-0.4-0.2-0.8-0.4-1.2-0.5C28.4,53,27.7,53,27,53h-0.7h-1.8v0.4h-0.3v0.5c0,1.5-0.1,2.9-0.1,4.3c0,0.6,0,1.2,0,1.8l-0.6-1.9
			c-0.4-1.4-0.9-2.9-1.3-4.3l-0.1-0.4l0,0c0-0.1,0-0.2-0.1-0.2l0-0.2h-2.4l0,0.2c0,0.1,0,0.1-0.1,0.2h-0.1l-0.1,0.4
			c-0.4,1.5-0.9,2.9-1.4,4.3c-0.3,0.8-0.5,1.5-0.8,2.3L17,59.1v-1.6h-0.2v-0.4l-2.1,0.2l2-2.4l-0.4-0.3c0,0-0.1-0.1-0.1-0.1l0.2-0.2
			L16.2,54c-0.9-0.8-2-1.2-3.2-1.1c-0.3,0-0.6,0-0.9,0.1c-0.3,0.1-0.6,0.2-0.9,0.3c-0.4,0.2-0.8,0.5-1.1,0.8
			c-0.3,0.3-0.5,0.7-0.7,1.1c-0.1,0.1-0.1,0.3-0.2,0.4l-0.1,0.1c-0.2,0.4-0.3,0.9-0.4,1.4c-0.1,0.5-0.1,0.9-0.1,1.4
			c0,0.6,0.1,1.3,0.3,1.9c0.2,0.6,0.5,1.1,0.9,1.6c0.4,0.5,0.9,0.8,1.4,1.1c0.6,0.3,1.3,0.4,1.9,0.4c0.4,0,0.7,0,1.1-0.1h2.7
			l2.9,0.5l0.4-1.4h0.5h0.6l0.1,0.3c0.1,0.2,0.1,0.4,0.1,0.6l0.1,0.5l2.9-0.5H27h1.2c0.4,0,0.9,0,1.3-0.1c0.6-0.2,1.1-0.5,1.5-0.9
			c0,0.2,0,0.3,0,0.5v0.5h3h1.2c0.4,0,0.9-0.1,1.3-0.1c0.7-0.1,1.3-0.5,1.8-1l0.1-0.1c-0.1,0.2-0.1,0.4-0.2,0.6l-0.2,0.5l3.5,0.6
			l0.3-1.4h0.5h0.5c0,0.1,0,0.2,0.1,0.3l0.2,0.6l0.1,0.5l3.5-0.6L46.4,62.5z M12.6,57.4v0.4h-0.3v1.8h-0.1c-0.2-0.1-0.3-0.3-0.4-0.4
			c0,0,0-0.1,0-0.1c0-0.3-0.1-0.5-0.1-0.8c0-0.2,0-0.5,0.1-0.7c0-0.2,0.1-0.4,0.2-0.6c0.1-0.1,0.2-0.3,0.4-0.4
			c0.3-0.2,0.6-0.2,0.9,0c0.2,0.1,0.5,0.3,0.6,0.5l0.2,0.2L12.6,57.4z"/>
		<path class="st3" d="M84.5,60.9c0-0.5-0.1-1-0.1-1.6l2.5-5.1L86.5,54l0.1-0.3l-2.1-1.2l-1.7,2.7l-1.7-2.7l-2.2,1.3v0.1
			c-0.8-0.6-1.8-0.9-2.8-0.9c-0.3,0-0.6,0-0.9,0.1c-0.3,0.1-0.6,0.2-0.9,0.3c-0.4,0.2-0.8,0.5-1.1,0.8c-0.3,0.3-0.5,0.7-0.7,1.1
			c-0.1,0.1-0.1,0.3-0.2,0.4c0,0-0.1,0.1-0.1,0.1c-0.2,0.4-0.3,0.9-0.4,1.3c0,0,0,0.1,0,0.2l-1.9,0.1l2-2.4l-0.4-0.3l-0.1-0.1
			l0.2-0.2L71.6,54c-0.9-0.8-2-1.2-3.2-1.2c-0.3,0-0.6,0-0.9,0.1c-0.3,0.1-0.6,0.2-0.9,0.3c-0.4,0.2-0.8,0.5-1.1,0.8
			c-0.3,0.3-0.6,0.7-0.8,1.1c-0.1,0.1-0.1,0.3-0.2,0.4s0,0.1-0.1,0.1c-0.1,0.1-0.1,0.2-0.2,0.4c0,0,0-0.1-0.1-0.1c0,0,0-0.1,0-0.1
			c-0.2-0.6-0.4-1.1-0.8-1.5c-0.4-0.4-0.8-0.8-1.4-1c-1.2-0.5-2.5-0.5-3.7,0c-0.5,0.2-1,0.6-1.4,1c-0.3,0.4-0.6,0.8-0.7,1.3
			c-0.1,0.2-0.2,0.4-0.3,0.6v-0.1c-0.3-1-0.9-1.8-1.8-2.3c-0.4-0.3-0.9-0.4-1.4-0.5c-0.5-0.1-1-0.2-1.5-0.2h-2.2v0.4h-0.3l-0.3,9.7
			h3h0.5l0,0c0.5-0.1,1-0.2,1.5-0.3c0.6-0.2,1.1-0.5,1.5-0.9c0.4-0.4,0.7-0.9,0.9-1.4c0.2,0.5,0.4,1,0.8,1.4
			c0.4,0.5,0.9,0.9,1.5,1.1c1.3,0.6,2.7,0.6,4,0c0.6-0.3,1.1-0.7,1.5-1.2c0.3-0.4,0.6-0.9,0.7-1.3c0.2,0.5,0.4,0.9,0.7,1.3
			c0.4,0.5,0.9,0.8,1.4,1.1c0.6,0.3,1.3,0.4,1.9,0.4c0.4,0,0.7,0,1.1-0.1h3.2l-0.2-2c0.1,0.2,0.3,0.4,0.4,0.6c0.8,1,2,1.5,3.3,1.5
			c0.4,0,0.7,0,1.1-0.1h3.2l-0.3-4v-1.7h-0.2v-0.4L78,57.2l1.4-1.7l1.9,3.8c0,0.5-0.1,1.1-0.1,1.6l-0.1,2.2h3.5v-0.5
			C84.6,62.1,84.6,61.5,84.5,60.9z M68.1,57.4v0.4h-0.3v1.8l0,0c-0.2-0.1-0.3-0.3-0.4-0.4c0,0,0-0.1,0-0.1c0-0.3-0.1-0.5-0.1-0.8
			c0-0.2,0-0.5,0.1-0.7c0.1-0.2,0.1-0.4,0.3-0.6c0.1-0.1,0.2-0.3,0.4-0.4c0.3-0.2,0.6-0.2,0.9,0c0.2,0.1,0.5,0.3,0.7,0.5l0.2,0.2
			L68.1,57.4z M61.1,57.1c0.1,0.1,0.1,0.3,0.2,0.5c0,0.2,0.1,0.5,0.1,0.7c0,0.2,0,0.5-0.1,0.7c0,0.2-0.1,0.4-0.2,0.5
			c-0.1,0.1-0.2,0.2-0.3,0.3c-0.3,0.1-0.7,0.1-1.1,0c-0.1-0.1-0.2-0.2-0.3-0.3c-0.1-0.2-0.2-0.3-0.2-0.5c0-0.2-0.1-0.5-0.1-0.7
			c0-0.2,0-0.5,0-0.8c0-0.2,0.1-0.3,0.2-0.5c0.1-0.1,0.2-0.2,0.3-0.3c0.2-0.1,0.4-0.1,0.6-0.1c0.2,0,0.4,0,0.6,0.1
			C60.9,56.9,61,56.9,61.1,57.1z M52.1,56.5c0.2,0,0.4,0.1,0.5,0.2c0.2,0.1,0.3,0.3,0.4,0.5c0.1,0.3,0.2,0.5,0.2,0.8
			c0,0.3,0,0.6-0.1,0.9c0,0.2-0.1,0.3-0.3,0.4c-0.1,0.1-0.3,0.2-0.5,0.2c-0.1,0-0.3,0-0.4,0.1l-0.1-3.2L52.1,56.5z M75.9,57.4v0.4
			h-0.3v1.8l0,0c-0.2-0.1-0.3-0.3-0.4-0.4c0,0,0-0.1,0-0.1c0-0.3-0.1-0.5-0.1-0.8c0-0.2,0-0.5,0.1-0.7c0.1-0.2,0.1-0.4,0.3-0.6
			c0.1-0.1,0.2-0.3,0.4-0.4c0.3-0.2,0.6-0.2,0.9,0c0.2,0.1,0.4,0.3,0.6,0.5l0.2,0.2L75.9,57.4z"/>
		<path class="st3" d="M40.8,68.8l0.1-0.3l-2.3-1.3l-2,3.1l-1.9-3.1l-2.4,1.4l0.1,0.3L32.1,69c0-0.1-0.1-0.3-0.1-0.4l-0.1-0.4h0
			c0-0.1,0-0.2-0.1-0.2l0-0.2H29V68c0,0.1-0.1,0.1-0.1,0.2h-0.1l-0.1,0.4c-0.4,1.4-0.9,2.9-1.4,4.3v-0.1c0-0.3-0.1-0.6-0.2-0.8
			c-0.1-0.3-0.2-0.7-0.4-1c-0.2-0.5-0.4-0.9-0.7-1.3c-0.4-0.4-0.8-0.8-1.3-1.1c-0.5-0.3-1-0.5-1.6-0.6c-0.6-0.1-1.2-0.2-1.8-0.2
			h-2.4v0.4h-0.2l-0.4,11h3.4h0.5l0,0c0.6-0.1,1.2-0.2,1.7-0.4c0.6-0.2,1.2-0.6,1.6-1l-0.2,0.8l-0.2,0.5l3.9,0.7l0.1-0.4
			c0.1-0.3,0.1-0.6,0.2-0.8l0.1-0.4h0.6h0.7l0.1,0.4c0.1,0.2,0.1,0.5,0.2,0.7l0.1,0.5l3.4-0.6l0,0h3.9v-0.5c0-0.7-0.1-1.3-0.1-2
			l-0.1-1.8l2.8-5.7L40.8,68.8z M22.5,71.6c0.2,0,0.5,0.1,0.7,0.3c0.2,0.1,0.3,0.3,0.4,0.5c0.1,0.3,0.2,0.7,0.2,1
			c0,0.4,0,0.7-0.1,1.1c-0.1,0.2-0.2,0.4-0.3,0.5c-0.2,0.1-0.4,0.2-0.6,0.3l-0.6,0.1l-0.1-3.8L22.5,71.6z M34.8,76.7l0,1
			c-0.4-1.4-0.8-2.8-1.2-4.1c-0.3-1.1-0.7-2.3-1-3.4l2.4,4.8C34.8,75.5,34.8,76.1,34.8,76.7z"/>
		<path class="st3" d="M76.7,67.5h-0.3l-2.1,0.1l-2.1,0.1h-1.8V68c0,0,0,0.1,0,0.2h-0.3v0.5c0,0.9-0.1,1.7-0.1,2.6c0,0,0-0.1,0-0.2
			c0-0.1-0.1-0.1-0.1-0.2c0-0.1-0.1-0.3-0.1-0.4c-0.2-0.6-0.6-1.1-1-1.5c-0.4-0.4-1-0.8-1.5-1c-0.6-0.2-1.2-0.3-1.9-0.3h-0.6h-0.6
			H62V68c0,0,0,0.1,0,0.2h-0.3v0.5c0,1.7-0.1,3.3-0.1,5c0,0.8,0,1.7-0.1,2.5c-0.3-0.9-0.5-1.8-0.8-2.7c-0.5-1.6-1-3.3-1.5-5
			l-0.1-0.4l0,0C59,68.1,59,68,59,68v-0.2h-2.8L56.2,68l-0.1,0.2H56l-0.1,0.4c-0.5,1.7-1,3.4-1.6,5c-0.3,0.8-0.5,1.5-0.8,2.3
			l-0.4-0.1v-0.1l0.1-0.2l-2.7-1l-0.1,0.2c-0.2,0.3-0.4,0.5-0.7,0.7c-0.3,0.2-0.6,0.3-1,0.3c-0.4,0-0.8-0.1-1.1-0.3
			c-0.2-0.1-0.3-0.3-0.4-0.5c-0.1-0.3-0.1-0.6-0.1-0.9c0-0.4,0.1-0.8,0.3-1.1c0.1-0.3,0.3-0.6,0.6-0.8c0.3-0.3,0.8-0.4,1.2-0.1
			c0.3,0.1,0.5,0.3,0.8,0.6l0.4,0.4l2.5-3l-0.3-0.3l-0.1-0.1l0.2-0.2l-0.2-0.2c-0.5-0.4-1-0.8-1.6-1c-0.6-0.2-1.2-0.3-1.9-0.3
			c-0.8,0-1.5,0.1-2.2,0.4c-0.6,0.3-1.2,0.7-1.6,1.2c-0.3,0.4-0.6,0.8-0.7,1.3c-0.2,0.3-0.4,0.7-0.5,1.1c-0.2,0.7-0.3,1.5-0.3,2.2
			c0,0.7,0.1,1.5,0.3,2.2c0.2,0.7,0.6,1.3,1,1.8c0.4,0.5,1,1,1.6,1.3c0.7,0.3,1.4,0.5,2.2,0.5c1.9,0.1,3.6-1,4.4-2.7
			c-0.2,0.6-0.4,1.3-0.6,1.9l-0.2,0.5l3.8,0.7l0.1-0.4c0.1-0.3,0.1-0.6,0.2-0.8l0.1-0.4h0.7H58l0.1,0.4l0.2,0.7l0.1,0.5l3.3-0.6h3.6
			v-0.5c0-0.1,0-0.3,0-0.4h0.3h0.6l1.6,1.9l0.2,0.2h0.4l2-1.1h2.1l2,0.1l2.6,0.2v-3.9h-0.2v-0.4h-0.3H76v-3.4h-0.2l0,0h0.5h0.5v-3.8
			h-0.2L76.7,67.5z M69.9,77.1l-0.5-0.8c0.2-0.3,0.4-0.6,0.5-1C69.9,75.9,69.9,76.5,69.9,77.1z M65.2,74.3c0-0.5,0-0.9,0-1.4
			s0-0.9,0-1.4h0.5c0.2,0,0.5,0.1,0.7,0.2c0.2,0.1,0.3,0.2,0.4,0.4c0.1,0.3,0.2,0.5,0.2,0.8c0,0.2,0,0.4-0.2,0.6
			c-0.1,0.2-0.3,0.3-0.4,0.4c-0.2,0.1-0.4,0.2-0.7,0.3L65.2,74.3z"/>
		<path class="st4" d="M14.7,61.5v0.2h1.9l-0.2-3.2v-0.9l-3.2,0.2v1.5l1.8,0.1l-0.4,0.4c-0.4,0.3-0.9,0.5-1.4,0.5
			c-0.3,0-0.7-0.1-1-0.3c-0.3-0.2-0.5-0.4-0.6-0.6c-0.2-0.3-0.3-0.6-0.3-0.8c0-0.3-0.1-0.6-0.1-0.9c0-0.3,0-0.6,0.1-0.9
			c0.1-0.3,0.2-0.6,0.4-0.8c0.2-0.2,0.4-0.4,0.6-0.6c0.5-0.3,1.1-0.3,1.6,0c0.2,0.1,0.5,0.2,0.7,0.4l1.3-1.5
			c-0.8-0.6-1.7-0.9-2.6-0.9c-0.3,0-0.5,0-0.8,0.1c-0.3,0.1-0.5,0.1-0.8,0.3c-0.4,0.2-0.7,0.4-1,0.7c-0.3,0.3-0.5,0.6-0.7,0.9
			c-0.2,0.4-0.3,0.7-0.4,1.1c-0.1,0.4-0.1,0.8-0.1,1.3c0,0.6,0.1,1.1,0.3,1.6c0.1,0.5,0.4,0.9,0.7,1.3c0.3,0.4,0.7,0.7,1.1,0.9
			c0.9,0.4,1.9,0.4,2.8,0.1L14.7,61.5z"/>
		<path class="st4" d="M17.4,61.7l1.9,0.3l0.1-0.5l0.2-0.9h0.2l0.9,0l0.9,0.1h0.2V61c0,0.2,0.1,0.4,0.1,0.6s0.1,0.3,0.1,0.4l1.9-0.3
			c-0.4-1.4-0.8-2.8-1.2-4.1s-0.8-2.7-1.3-4.2H20c-0.4,1.4-0.9,2.8-1.3,4.2S17.8,60.4,17.4,61.7z M20.2,58.7l0.2-0.6l0.4-1.6l0.2,1
			l0.1,0.6c0,0.2,0.1,0.4,0.2,0.6l0.1,0.3l-1.3,0L20.2,58.7z"/>
		<path class="st4" d="M29.4,61.5c0.5-0.1,1-0.4,1.3-0.8c0.3-0.4,0.5-0.9,0.5-1.5c0-0.3-0.1-0.5-0.2-0.8c-0.1-0.2-0.2-0.5-0.4-0.7
			l-0.1-0.2l0.1-0.2c0.4-0.5,0.6-1,0.6-1.6c0-0.4-0.1-0.8-0.3-1.1c-0.2-0.3-0.5-0.6-0.8-0.8c-0.3-0.2-0.7-0.3-1.1-0.4
			c-0.6-0.1-1.3-0.2-2-0.1h-0.7H25c0,1.4-0.1,2.7-0.1,4.1s-0.1,2.7-0.1,4.1h3.4C28.6,61.6,29,61.6,29.4,61.5z M26.7,56.5
			c0-0.2,0-0.4,0-0.6s0-0.4,0-0.6V55h0.3h0.8c0.3,0,0.5,0,0.8,0.1c0.2,0,0.5,0.1,0.7,0.2c0.3,0.2,0.5,0.5,0.3,0.9
			c0,0.1-0.1,0.2-0.2,0.2c-0.1,0.1-0.3,0.2-0.5,0.2c-0.2,0-0.3,0.1-0.5,0.1h-0.4h-1.2L26.7,56.5z M27,59.7h-0.2v-0.5
			c0-0.1,0-0.2,0-0.2v-0.3H27h0.8l0.8,0.1c0.2,0,0.4,0.1,0.6,0.1c0.1,0,0.2,0.1,0.3,0.3c0,0.1,0,0.2-0.1,0.3
			c-0.1,0.1-0.3,0.2-0.5,0.2c-0.2,0-0.4,0-0.6,0h-0.7L27,59.7z"/>
		<path class="st4" d="M36.4,61.5c0.5-0.1,1-0.4,1.3-0.8c0.3-0.4,0.5-0.9,0.5-1.5c0-0.3,0-0.5-0.2-0.8c-0.1-0.2-0.2-0.5-0.4-0.7
			l-0.1-0.2l0.1-0.2c0.4-0.5,0.6-1,0.6-1.6c0-0.4-0.1-0.8-0.3-1.1c-0.2-0.3-0.4-0.6-0.8-0.8c-0.3-0.2-0.7-0.3-1.1-0.4
			c-0.7-0.1-1.3-0.2-2-0.1h-0.7h-1.3c0,1.4-0.1,2.7-0.1,4.1s-0.1,2.7-0.1,4.1h3.4C35.6,61.6,36,61.6,36.4,61.5z M33.7,56.5
			c0-0.2,0-0.4,0-0.6s0-0.4,0-0.6V55H34h0.8c0.3,0,0.5,0,0.8,0.1c0.2,0,0.4,0.1,0.7,0.2c0.2,0.1,0.4,0.3,0.4,0.6
			c0,0.2-0.1,0.4-0.3,0.5c-0.1,0.1-0.3,0.2-0.5,0.2c-0.2,0-0.3,0.1-0.5,0.1h-0.4h-1.1L33.7,56.5z M34,59.8h-0.2v-0.5
			c0-0.1,0-0.2,0-0.2v-0.3H34h0.8l0.8,0.1c0.2,0,0.4,0.1,0.6,0.1c0.1,0,0.2,0.1,0.3,0.3c0,0.1,0,0.2-0.1,0.3
			c-0.1,0.1-0.3,0.2-0.5,0.2c-0.2,0-0.4,0-0.6,0h-0.7L34,59.8z"/>
		<path class="st4" d="M43.2,53.5h-1.6c-0.4,1.4-0.9,2.8-1.3,4.2s-0.9,2.7-1.3,4.1l1.9,0.3l0.1-0.5l0.2-0.9h0.2l0.9,0l0.9,0.1h0.2
			V61l0.2,0.6c0,0.1,0.1,0.3,0.1,0.4l1.9-0.3c-0.4-1.4-0.8-2.8-1.2-4.1S43.7,54.9,43.2,53.5z M41.7,59l0.1-0.3
			c0.1-0.2,0.1-0.4,0.2-0.6l0.4-1.6l0.2,1c0,0.2,0.1,0.4,0.2,0.6l0.2,0.6L43,59H41.7z"/>
		<path class="st4" d="M54.7,60.5c0.4-0.3,0.7-0.8,0.8-1.2c0.2-0.6,0.3-1.2,0.3-1.8c0-0.2,0-0.4-0.1-0.7c0-0.2-0.1-0.4-0.1-0.6
			c-0.1-0.4-0.3-0.9-0.6-1.2c-0.3-0.3-0.6-0.6-1-0.8c-0.4-0.2-0.8-0.4-1.2-0.5c-0.5-0.1-0.9-0.2-1.4-0.2h-1.6l-0.3,8.2h2.2
			c0.6,0,1.2-0.2,1.7-0.3C53.9,61.2,54.3,60.9,54.7,60.5z M51.7,59.7h-0.3l-0.2-4.8h0.3c0.3,0,0.6,0.1,0.9,0.1
			c0.3,0.1,0.6,0.2,0.8,0.4c0.3,0.2,0.5,0.4,0.6,0.7c0.2,0.4,0.3,0.7,0.3,1.1l0,0c0,0.4,0,0.8-0.2,1.2c-0.1,0.3-0.3,0.6-0.5,0.8
			c-0.2,0.2-0.5,0.3-0.8,0.4C52.3,59.6,52,59.7,51.7,59.7L51.7,59.7z"/>
		<path class="st4" d="M63.9,59.3c0.2-0.6,0.3-1.1,0.3-1.7c0-0.6-0.1-1.2-0.3-1.7c-0.1-0.5-0.4-1-0.7-1.4c-0.3-0.4-0.7-0.7-1.2-0.9
			c-1.1-0.4-2.3-0.4-3.3,0c-0.5,0.2-0.9,0.5-1.2,0.9c-0.3,0.4-0.6,0.9-0.7,1.4c-0.2,0.6-0.3,1.1-0.3,1.7c0,0.6,0.1,1.2,0.3,1.7
			c0.2,0.5,0.4,1,0.7,1.4c0.3,0.4,0.7,0.8,1.2,1c0.5,0.2,1.1,0.4,1.7,0.3c0.6,0,1.1-0.1,1.7-0.4c0.5-0.2,0.9-0.6,1.2-1
			C63.5,60.2,63.8,59.7,63.9,59.3z M62.1,58.4c-0.1,0.3-0.2,0.5-0.3,0.8c-0.1,0.2-0.3,0.4-0.6,0.6c-0.6,0.3-1.3,0.3-1.8,0
			c-0.2-0.1-0.4-0.3-0.6-0.6c-0.1-0.2-0.2-0.5-0.3-0.8c0-0.3-0.1-0.6-0.1-0.8c0-0.3,0-0.6,0.1-0.9c0-0.3,0.1-0.5,0.3-0.8
			c0.1-0.2,0.4-0.4,0.6-0.5c0.6-0.2,1.3-0.2,1.9,0c0.2,0.1,0.5,0.3,0.6,0.5c0.1,0.2,0.2,0.5,0.3,0.8c0,0.3,0.1,0.6,0.1,0.8
			C62.2,57.8,62.2,58.1,62.1,58.4z"/>
		<path class="st4" d="M65.8,60.6c0.3,0.4,0.7,0.7,1.2,0.9c0.5,0.2,1,0.3,1.6,0.3c0.4,0,0.8-0.1,1.2-0.2l0.4-0.1v0.2H72l-0.2-3.2
			v-0.9l-3.2,0.2v1.5l1.8,0.1l-0.4,0.4c-0.4,0.3-0.9,0.5-1.4,0.5c-0.3,0-0.7-0.1-1-0.3c-0.3-0.2-0.5-0.4-0.6-0.6
			c-0.2-0.3-0.3-0.6-0.3-0.8c-0.1-0.3-0.1-0.6-0.1-0.9c0-0.3,0-0.6,0.1-0.9c0.1-0.3,0.2-0.6,0.4-0.8c0.2-0.2,0.4-0.4,0.6-0.6
			c0.5-0.3,1.1-0.3,1.6,0c0.2,0.1,0.5,0.2,0.7,0.4l1.3-1.5c-0.8-0.6-1.7-0.9-2.6-0.9c-0.3,0-0.5,0-0.8,0.1c-0.3,0.1-0.5,0.1-0.8,0.3
			c-0.4,0.2-0.7,0.4-1,0.7c-0.3,0.3-0.5,0.6-0.7,0.9C65.1,55.6,65,56,65,56.3c-0.1,0.4-0.1,0.8-0.1,1.3c0,0.6,0.1,1.1,0.2,1.6
			C65.3,59.7,65.5,60.2,65.8,60.6z"/>
		<path class="st4" d="M76.4,53.3c-0.3,0-0.5,0-0.8,0.1c-0.3,0.1-0.5,0.1-0.8,0.3c-0.4,0.2-0.7,0.4-1,0.7c-0.3,0.3-0.5,0.6-0.7,0.9
			c-0.2,0.4-0.3,0.7-0.4,1.1c-0.1,0.4-0.1,0.8-0.1,1.3c0,0.6,0.1,1.1,0.3,1.6c0.1,0.5,0.4,0.9,0.7,1.3c0.3,0.4,0.7,0.7,1.2,0.9
			c0.5,0.2,1,0.3,1.6,0.3c0.4,0,0.8-0.1,1.2-0.2l0.4-0.1v0.2H80l-0.2-3.2v-0.9l-3.2,0.2v1.5l1.8,0.1l-0.4,0.4
			c-0.4,0.3-0.9,0.5-1.4,0.5c-0.3,0-0.7-0.1-1-0.3c-0.3-0.2-0.5-0.4-0.6-0.6c-0.1-0.3-0.2-0.6-0.3-0.8c0-0.3-0.1-0.6-0.1-0.9
			c0-0.3,0-0.6,0.1-0.9c0.1-0.3,0.2-0.6,0.4-0.8c0.2-0.2,0.4-0.4,0.6-0.6c0.5-0.3,1.1-0.3,1.6,0c0.2,0.1,0.5,0.2,0.7,0.4l1.3-1.5
			C78.4,53.6,77.4,53.3,76.4,53.3z"/>
		<path class="st4" d="M81.2,53l-1.3,0.8l2.3,4.6v0.1c0,0.6-0.1,1.1-0.1,1.7L82,61.7h2c0-0.5,0-1-0.1-1.5s0-1.1-0.1-1.7v-0.1v0
			l2.3-4.6l-1.2-0.7L83,56L81.2,53z"/>
		<path class="st4" d="M25.4,76.4c0.4-0.4,0.8-0.9,1-1.4c0.2-0.7,0.4-1.4,0.4-2.1c0-0.3,0-0.5-0.1-0.8c0-0.3-0.1-0.5-0.2-0.7
			c-0.1-0.5-0.4-1-0.7-1.5c-0.3-0.4-0.7-0.7-1.1-1c-0.4-0.3-0.9-0.5-1.5-0.6c-0.5-0.1-1.1-0.2-1.6-0.2h-1.9l-0.3,9.5h2.6
			c0.7,0,1.4-0.2,2-0.4C24.5,77.1,25,76.8,25.4,76.4z M21.9,75.3h-0.3l-0.2-5.4h0.3c0.4,0,0.7,0.1,1.1,0.2c0.3,0.1,0.7,0.2,0.9,0.4
			c0.3,0.2,0.5,0.5,0.7,0.8c0.2,0.4,0.3,0.8,0.3,1.3l0,0c0,0.5,0,1-0.2,1.4c-0.1,0.3-0.3,0.6-0.6,0.9c-0.3,0.2-0.6,0.4-0.9,0.4
			C22.6,75.3,22.2,75.4,21.9,75.3z"/>
		<path class="st4" d="M31.4,68.2h-1.9c-0.5,1.6-1,3.3-1.6,4.8s-1,3.1-1.5,4.7l2.3,0.4l0.1-0.6l0.3-1h0.2l1.1,0.1l1.1,0.1h0.2v0.2
			l0.2,0.7l0.1,0.5l2.3-0.4c-0.5-1.6-1-3.2-1.4-4.7S31.9,69.8,31.4,68.2z M29.6,74.6l0.1-0.3l0.2-0.7c0.1-0.2,0.1-0.5,0.2-0.7
			l0.3-0.9l0.2,0.9l0.2,0.7l0.2,0.7l0.1,0.3L29.6,74.6z"/>
		<path class="st4" d="M35.7,74c0,0.7-0.1,1.3-0.1,2l-0.1,1.7h2.3c0-0.6-0.1-1.1-0.1-1.7s-0.1-1.3-0.1-2l0,0l2.7-5.4l-1.5-0.9
			l-2.1,3.4l-2.1-3.4L33,68.6L35.7,74L35.7,74z"/>
		<path class="st4" d="M52.7,75.6L51,74.9c-0.2,0.3-0.5,0.5-0.8,0.7c-0.4,0.2-0.8,0.3-1.2,0.3c-0.5,0-1-0.1-1.4-0.4
			c-0.3-0.3-0.6-0.7-0.7-1.1c-0.2-0.4-0.2-0.9-0.2-1.4c0-0.5,0.1-0.9,0.3-1.4c0.2-0.4,0.4-0.8,0.8-1.1c0.6-0.5,1.4-0.6,2.1-0.2
			c0.3,0.1,0.5,0.3,0.8,0.5l1.5-1.8c-0.4-0.3-0.8-0.6-1.3-0.8c-0.5-0.2-1.1-0.3-1.7-0.3c-0.7,0-1.4,0.1-2,0.4c-0.5,0.2-1,0.6-1.4,1
			c-0.4,0.5-0.7,1.1-0.8,1.7c-0.2,0.6-0.3,1.3-0.3,2c0,0.7,0.1,1.3,0.3,1.9c0.2,0.6,0.5,1.1,0.8,1.6c0.4,0.4,0.8,0.8,1.4,1
			c0.6,0.3,1.2,0.4,1.9,0.4C50.6,78,52.1,77.1,52.7,75.6L52.7,75.6z"/>
		<path class="st4" d="M59.2,78.2l2.3-0.4c-0.5-1.6-1-3.2-1.4-4.7s-1-3.2-1.5-4.8h-1.9c-0.5,1.6-1,3.3-1.6,4.8s-1,3.1-1.5,4.7
			l2.3,0.4c0-0.2,0.1-0.4,0.1-0.6l0.3-1h0.2l1.1,0.1l1.1,0.1h0.2l0,0.2c0.1,0.2,0.1,0.5,0.2,0.7L59.2,78.2z M56.8,74.6l0.1-0.3
			c0.1-0.2,0.1-0.5,0.2-0.7c0.1-0.2,0.1-0.5,0.2-0.7l0.3-0.9l0.2,0.9l0.2,0.7l0.2,0.7l0.1,0.3L56.8,74.6z"/>
		<path class="st4" d="M66.6,76.7l1.7,2.1l1.6-0.9l-1.4-2.2l0.1-0.1c0.4-0.4,0.6-0.9,0.8-1.4c0.2-0.6,0.3-1.1,0.3-1.7
			c0-0.6-0.1-1.2-0.3-1.7c-0.2-0.5-0.5-0.9-0.9-1.3c-0.4-0.4-0.8-0.7-1.3-0.8c-0.8-0.2-1.5-0.3-2.3-0.3h-0.6h-1.7
			c0,1.6-0.1,3.2-0.1,4.8s-0.1,3.2-0.1,4.7h2.3c0-0.1,0-0.1,0-0.2c0-0.1,0-0.3,0-0.4v-0.3h0.3h0.8c0.3,0,0.5,0,0.8-0.1L66.6,76.7z
			 M64.8,74.4h-0.3v-0.3c0-0.7,0-1.3,0-2s0-1.3,0-1.9V70h0.3c0.4,0,0.7,0,1,0c0.3,0,0.6,0.1,0.9,0.3c0.3,0.1,0.5,0.4,0.7,0.7
			c0.2,0.4,0.3,0.8,0.3,1.2c0,0.4-0.1,0.7-0.3,1.1c-0.2,0.3-0.4,0.5-0.7,0.7c-0.3,0.2-0.6,0.3-0.9,0.4
			C65.5,74.3,65.2,74.4,64.8,74.4z"/>
		<path class="st4" d="M72.3,68.2H71c0,1.6-0.1,3.2-0.1,4.8s-0.1,3.2-0.1,4.7h1.7l2,0.1l1.8,0.1v-2.3c-0.4,0-0.9,0.1-1.3,0.1
			l-1.6,0.1H73v-0.3c0-0.2,0-0.4,0-0.6s0-0.4,0-0.6V74h0.3l1.3,0.1l1,0.1v-2.3l-1,0.1L73.3,72H73v-0.3c0-0.2,0-0.5,0-0.7
			s0-0.5,0-0.7v-0.3h0.3l1.7,0.1l1.4,0.1V68l-1.9,0.1L72.3,68.2z"/>
	</g>
</g>
<g>
	<path class="st3" d="M66.4,80.9l-0.1,0.8c0,0.2,0,0.5-0.1,0.7L65.4,81l-1.8,0.1l0-0.3L62.5,81c-0.6,0.1-1.1,0.2-1.7,0.2
		c-0.6,0.1-1.1,0.1-1.7,0.2l-2,0.1l-0.1,0.8c0,0.2,0,0.4,0,0.5c-0.2-0.2-0.5-0.4-0.8-0.5c-0.5-0.2-1-0.4-1.5-0.5
		c-0.5-0.1-1-0.1-1.6-0.1L50.7,82l0,0.1l-2.5-0.3L48,82.6c-0.1,0.2-0.1,0.5-0.2,0.7c0-0.2-0.1-0.3-0.1-0.5l-0.2-1l-3.2,0.8l-0.1-0.6
		l-4.2,1l0.1,0.4c-0.3-0.2-0.6-0.4-0.9-0.5c-0.6-0.2-1.3-0.3-2-0.3c-0.7,0.1-1.4,0.2-2,0.5c-0.6,0.3-1.1,0.7-1.5,1.2
		c-0.1,0.1-0.1,0.2-0.2,0.2c-0.2-0.3-0.5-0.6-0.9-0.8c-0.4-0.2-0.9-0.4-1.4-0.5c-0.5-0.1-0.9-0.1-1.4-0.1c-0.2,0-0.5,0-0.7,0.1
		c-0.2,0-0.5,0-0.7,0.1l-2.3,0.2l-0.1,0.8c-0.1,1.3-0.2,2.7-0.3,4c-0.1,1.3-0.2,2.6-0.3,4l-0.1,1.1l3.4-0.2l1.1-0.1
		c0.2,0,0.3,0,0.5,0c0.3,0,0.5-0.1,0.8-0.1c0.8-0.2,1.4-0.6,1.9-1.2c0.1-0.1,0.1-0.2,0.2-0.3c0,0,0,0,0,0c0.4,0.5,0.9,0.9,1.5,1.1
		c0.5,0.2,1,0.3,1.7,0.3c0.1,0,0.3,0,0.4,0c0.8-0.1,1.4-0.2,2-0.6c0.6-0.3,1.1-0.7,1.5-1.2c0.4-0.5,0.7-1.1,0.9-1.7
		c0.1-0.2,0.1-0.4,0.2-0.7l0.2,0.8c0.2,0.6,0.3,1.2,0.5,1.9l0.2,0.8l6.6-0.5l0.2-0.6c0.2-0.7,0.5-1.4,0.7-2c0.1-0.2,0.1-0.4,0.2-0.6
		l-0.3,3.2l3.4-0.2l0.8-0.1l0-0.1c0.4-0.1,0.8-0.2,1.1-0.4c0.5-0.2,0.9-0.4,1.3-0.7l-0.1,1l2.6-0.2c0.6,0,1.1,0,1.6,0l2.5,0l0-0.2
		l2.5-0.2l0-0.9c0,0,0,0,0,0l0.1,0.1l-0.1,0.8l0.5,0l0.2,0.3l0.7-0.4l3-0.2l0-0.9c0-1.3,0.1-2.6,0.1-4c0-1.3,0.1-2.6,0.1-4l0-1
		L66.4,80.9z M54.2,87.2l0-1.6c0,0,0,0,0,0c0,0,0.1,0.1,0.1,0.2c0,0.1,0.1,0.2,0.1,0.5c0,0.4-0.1,0.6-0.1,0.7l0,0
		C54.3,87.1,54.3,87.2,54.2,87.2C54.2,87.2,54.2,87.2,54.2,87.2z M37.5,87.7c0,0.2,0,0.4-0.1,0.6v0c0,0.1-0.1,0.3-0.1,0.4
		c0,0.1-0.1,0.1-0.2,0.2c-0.1,0-0.2,0.1-0.3,0.1c-0.2,0-0.2,0-0.3-0.1c0-0.1-0.1-0.2-0.1-0.3c0-0.2,0-0.4,0-0.5c0-0.2,0-0.4,0.1-0.6
		c0-0.1,0.1-0.2,0.1-0.3c0,0,0.1-0.1,0.1-0.1c0,0,0.1-0.1,0.4-0.1c0,0,0.1,0,0.1,0c0.1,0,0.2,0,0.2,0c0,0,0.1,0.1,0.1,0.2
		C37.5,87.3,37.6,87.5,37.5,87.7z"/>
	<g>
		<path class="st4" d="M26.5,92c0.1-1.3,0.2-2.6,0.3-4c0.1-1.3,0.2-2.6,0.3-4l1.5-0.1c0.2,0,0.4,0,0.7-0.1c0.2,0,0.5,0,0.7-0.1
			c0.4,0,0.8,0,1.2,0c0.4,0.1,0.7,0.2,1,0.3c0.3,0.2,0.6,0.4,0.7,0.7c0.2,0.3,0.3,0.7,0.2,1.1c0,0.6-0.3,1.2-0.7,1.7
			c0.2,0.2,0.3,0.4,0.4,0.6c0.1,0.2,0.1,0.5,0.1,0.8c0,0.6-0.2,1.1-0.6,1.5c-0.4,0.4-0.8,0.7-1.4,0.9c-0.2,0.1-0.4,0.1-0.6,0.1
			c-0.2,0-0.4,0-0.6,0.1l-1.1,0.1l0,0L26.5,92z M28.8,89.2c0,0.1,0,0.1,0,0.2c0,0.1,0,0.2,0,0.2c0.2,0,0.4,0,0.6,0
			c0.2,0,0.4,0,0.6,0c0.2,0,0.4,0,0.5-0.1c0.1,0,0.2-0.1,0.3-0.1c0.1-0.1,0-0.1-0.1-0.2c-0.1,0-0.3-0.1-0.5-0.1c-0.2,0-0.4,0-0.7,0
			C29.3,89.2,29.1,89.2,28.8,89.2z M28.9,85.8c0,0.2,0,0.4,0,0.6c0,0.2,0,0.4,0,0.6c0.1,0,0.3,0,0.4,0c0.1,0,0.3,0,0.4,0
			c0.1,0,0.2,0,0.4,0c0.2,0,0.3-0.1,0.4-0.1c0.1,0,0.3-0.1,0.4-0.2c0.1-0.1,0.2-0.2,0.2-0.3c0-0.1-0.1-0.2-0.2-0.3
			c-0.1-0.1-0.3-0.1-0.5-0.1c-0.2,0-0.4,0-0.7,0C29.4,85.8,29.1,85.8,28.9,85.8z"/>
		<path class="st4" d="M33.2,87.6c0-0.6,0.1-1.1,0.3-1.6c0.2-0.5,0.5-1,0.8-1.4c0.3-0.4,0.7-0.7,1.2-1c0.5-0.2,1-0.4,1.6-0.4
			c0.6,0,1.2,0,1.6,0.2c0.5,0.2,0.8,0.4,1.1,0.8c0.3,0.4,0.5,0.8,0.6,1.3c0.1,0.5,0.2,1,0.2,1.6c0,0.6-0.1,1.1-0.3,1.6
			c-0.2,0.5-0.4,1-0.8,1.4c-0.3,0.4-0.7,0.7-1.2,1c-0.5,0.3-1,0.4-1.7,0.5c-0.6,0-1.2,0-1.6-0.2c-0.5-0.2-0.8-0.5-1.1-0.8
			c-0.3-0.4-0.5-0.8-0.7-1.3C33.2,88.7,33.2,88.1,33.2,87.6z M35.5,87.4c0,0.2,0,0.5,0,0.7c0,0.2,0.1,0.4,0.2,0.6
			c0.1,0.2,0.3,0.3,0.4,0.4c0.2,0.1,0.4,0.1,0.7,0.1c0.3,0,0.5-0.1,0.7-0.2c0.2-0.1,0.4-0.3,0.5-0.5c0.1-0.2,0.2-0.4,0.3-0.6
			c0.1-0.2,0.1-0.5,0.1-0.7c0-0.3,0-0.5,0-0.7c0-0.2-0.1-0.4-0.2-0.6c-0.1-0.2-0.2-0.3-0.4-0.4c-0.2-0.1-0.4-0.1-0.8-0.1
			c-0.3,0-0.6,0.1-0.8,0.2c-0.2,0.1-0.4,0.3-0.5,0.4c-0.1,0.2-0.2,0.4-0.3,0.6C35.5,86.9,35.5,87.1,35.5,87.4z"/>
		<path class="st4" d="M45.9,88.5c-0.2,0.3-0.3,0.7-0.5,1c-0.2,0.3-0.3,0.7-0.5,1.1c0,0,0,0,0,0c0,0,0,0,0,0l-1.8,0.1
			c-0.2-0.7-0.3-1.3-0.5-1.9c-0.2-0.6-0.3-1.2-0.5-1.8c-0.2-0.6-0.3-1.2-0.5-1.8c-0.2-0.6-0.3-1.3-0.5-1.9l2.3-0.6
			c0.2,0.8,0.3,1.6,0.5,2.3c0.1,0.8,0.3,1.5,0.5,2.3c0.1-0.4,0.2-0.7,0.3-1.1c0.1-0.3,0.2-0.7,0.3-1c-0.1-0.4-0.2-0.7-0.3-1.1
			c-0.1-0.4-0.2-0.7-0.3-1.1l2.3-0.6c0.1,0.7,0.3,1.4,0.4,2.1c0.1,0.7,0.3,1.4,0.4,2.1c0.2-0.7,0.4-1.5,0.6-2.2
			c0.2-0.7,0.4-1.5,0.6-2.2l2.2,0.2c-0.2,0.7-0.5,1.4-0.7,2c-0.2,0.6-0.5,1.3-0.7,1.9c-0.2,0.6-0.5,1.3-0.7,1.9
			c-0.2,0.6-0.5,1.3-0.7,2l-1.8,0.1c-0.1-0.4-0.2-0.7-0.3-1.1C46.1,89.2,46,88.9,45.9,88.5z"/>
		<path class="st4" d="M57.4,85.9c0,0.7-0.2,1.2-0.4,1.7c-0.2,0.5-0.5,0.9-0.9,1.3c-0.4,0.3-0.8,0.6-1.3,0.8
			c-0.5,0.2-1.1,0.3-1.7,0.4l0,0l-2.3,0.2l0.7-7.9l1.5-0.1l0.3,0c0.5,0,0.9,0,1.3,0.1c0.4,0.1,0.8,0.2,1.2,0.4
			c0.4,0.2,0.7,0.4,0.9,0.8c0.3,0.3,0.4,0.7,0.5,1.2c0,0.2,0.1,0.4,0.1,0.6C57.4,85.4,57.4,85.6,57.4,85.9z M55.3,85.8
			c0-0.4-0.1-0.7-0.2-0.9c-0.1-0.2-0.3-0.4-0.4-0.5c-0.2-0.1-0.4-0.2-0.7-0.2c-0.3,0-0.5-0.1-0.8-0.1l-0.1,3.9
			c0.3,0,0.6-0.1,0.9-0.1c0.3-0.1,0.5-0.2,0.7-0.3s0.3-0.4,0.4-0.6C55.3,86.5,55.3,86.2,55.3,85.8z"/>
		<path class="st4" d="M57.3,89.8c0.1-1.3,0.2-2.6,0.3-4c0.1-1.3,0.2-2.6,0.3-4l1.2-0.1c0.6-0.1,1.1-0.2,1.7-0.2
			c0.6-0.1,1.1-0.1,1.7-0.2l-0.1,2.3c-0.5,0-0.9,0-1.3,0c-0.4,0-0.9,0-1.3,0c0,0.2,0,0.4,0,0.6c0,0.2,0,0.4,0,0.6
			c0.3-0.1,0.7-0.1,1-0.1c0.3,0,0.7-0.1,1-0.1l-0.1,2.3c-0.3,0-0.7,0-1,0c-0.3,0-0.7,0-1,0c0,0.2,0,0.3,0,0.5c0,0.2,0,0.3,0,0.5
			c0.4-0.1,0.9-0.1,1.3-0.2c0.4-0.1,0.9-0.1,1.3-0.2l-0.1,2.3c-0.5,0-1.1,0-1.6,0c-0.5,0-1.1,0-1.6,0L57.3,89.8z"/>
		<path class="st4" d="M62.3,89.5c0.1-1.3,0.2-2.6,0.3-4c0.1-1.3,0.2-2.6,0.3-4l1.9-0.1c0.3,0.6,0.7,1.2,1,1.8
			c0.3,0.6,0.7,1.2,1,1.8c0-0.6,0.1-1.3,0.1-1.9c0.1-0.6,0.1-1.2,0.1-1.9l1.9-0.1c0,1.3-0.1,2.6-0.1,3.9c0,1.3-0.1,2.6-0.1,3.9
			l-2.3,0.2v0l0,0c-0.3-0.6-0.6-1.2-0.9-1.8c-0.3-0.6-0.6-1.2-0.9-1.8c0,0.6,0,1.3,0,1.9c0,0.6,0,1.3,0,1.9L62.3,89.5z"/>
	</g>
</g>
<g>
	
		<text transform="matrix(1.0098 -7.091103e-02 -5.188402e-02 0.9987 134.4233 67.4183)" class="st4" style="font-family:'Mencran?'; font-size:11.9862px;">BOWDEN</text>
</g>
<g>
	
		<text transform="matrix(1.0098 -7.091103e-02 -5.188402e-02 0.9987 134.4235 80.3)" class="st4" style="font-family:'Mencran?'; font-size:11.9862px;">ADELAIDE</text>
</g>
<g>
	
		<text transform="matrix(1.0098 -7.091103e-02 -5.188402e-02 0.9987 134.4236 94.89)" class="st4" style="font-family:'Mencran?'; font-size:11.9862px;">BRISBANE</text>
</g>
</svg>
