<?xml version="1.0" encoding="utf-8"?>
<!-- Generator: Adobe Illustrator 25.0.1, SVG Export Plug-In . SVG Version: 6.00 Build 0)  -->
<svg version="1.1" id="Layer_1" xmlns="http://www.w3.org/2000/svg" xmlns:xlink="http://www.w3.org/1999/xlink" x="0px" y="0px"
	 viewBox="0 0 96.9 96.9" style="enable-background:new 0 0 96.9 96.9;" xml:space="preserve">
<style type="text/css">
	.st0{fill:#159BFF;}
	.st1{fill:none;}
	.st2{fill:#114393;}
	.st3{fill:#0C4D8E;}
	.st4{fill:#FFC95C;}
</style>
<g id="Layer_2_1_">
	<g id="Layer_1-2">
		<path class="st0" d="M48.5,93.6c25-0.1,45.1-20.3,45.1-45.3S73.3,3.2,48.3,3.2C23.4,3.3,3.2,23.5,3.3,48.4
			C3.3,73.3,23.5,93.6,48.5,93.6C48.5,93.6,48.5,93.6,48.5,93.6z"/>
		<path class="st0" d="M48.4,96.9c26.7,0,48.4-21.7,48.4-48.4S75.2,0,48.4,0S0,21.7,0,48.4C0,75.2,21.7,96.8,48.4,96.9z M10,22.5
			c3.3-4.9,7.6-9.1,12.5-12.5C38.2-0.5,58.7-0.5,74.4,10c4.9,3.3,9.2,7.6,12.5,12.5c14.3,21.3,8.7,50.2-12.7,64.5
			c-2.4,1.6-5,3.1-7.8,4.2c-5.7,2.4-11.9,3.6-18,3.7C22.8,94.8,2,74,2.1,48.3C2.1,39.1,4.9,30.1,10,22.5z"/>
		<path class="st1" d="M22.5,87c7.7,5.1,16.7,7.9,25.9,7.9c6.2,0,12.3-1.3,18-3.7c23.6-10,34.7-37.3,24.6-61
			c-1.2-2.7-2.6-5.3-4.2-7.8c-3.4-4.9-7.6-9.1-12.5-12.5C58.7-0.5,38.2-0.5,22.5,10c-4.9,3.3-9.1,7.6-12.5,12.5
			C-4.3,43.8,1.3,72.6,22.5,87z M3.3,48.4c0-25,20.2-45.3,45.2-45.3s45.3,20.2,45.3,45.2S73.6,93.6,48.6,93.6l0,0
			C23.6,93.7,3.3,73.5,3.3,48.4C3.3,48.5,3.3,48.5,3.3,48.4z"/>
		<path class="st2" d="M31.2,44.3c0,3,2.4,4.9,6.3,4.9c4.3,0,7.2-2.2,10.6-2.2s6.3,2.2,10.7,2.2c4,0,6.3-1.9,6.3-4.9
			c0-6.8-10-17.7-17-17.7S31.2,37.5,31.2,44.3z"/>
		<path class="st2" d="M32.2,32.2c2.6-0.6,3.8-3.5,3-6.6s-3.8-5-6.3-4.4s-4,3.5-3,6.6S29.6,32.8,32.2,32.2z"/>
		<path class="st2" d="M42.6,23.7c2.8-0.7,4.1-4.4,3.1-8.3s-4.2-6.3-6.8-5.6s-4.1,4.4-3.1,8.3S39.9,24.4,42.6,23.7z"/>
		<path class="st2" d="M64.1,32.2c2.6,0.6,5.4-1.4,6.3-4.4s-0.4-6-3-6.6s-5.4,1.4-6.3,4.4S61.6,31.6,64.1,32.2z"/>
		<path class="st2" d="M53.7,23.7c2.8,0.7,5.8-1.8,6.8-5.6s-0.3-7.5-3.1-8.3s-5.8,1.8-6.8,5.6S50.9,23,53.7,23.7z"/>
		<path class="st1" d="M61.4,56.3C61.3,56.2,61.2,56,61,56c-0.2-0.1-0.5-0.1-0.7-0.1s-0.5,0-0.7,0.1s-0.3,0.2-0.4,0.3
			c-0.1,0.2-0.2,0.4-0.2,0.6c0,0.3-0.1,0.5-0.1,0.8s0,0.5,0.1,0.8c0,0.2,0.1,0.4,0.2,0.6c0.1,0.2,0.2,0.3,0.4,0.4
			c0.4,0.2,0.9,0.2,1.3,0c0.2-0.1,0.3-0.2,0.4-0.4c0.1-0.2,0.2-0.4,0.2-0.6c0-0.2,0.1-0.5,0.1-0.8s0-0.5-0.1-0.8
			C61.5,56.6,61.5,56.5,61.4,56.3z"/>
		<path class="st1" d="M53.4,58.4c0.1-0.3,0.1-0.7,0.1-1s-0.1-0.6-0.2-0.9c-0.1-0.2-0.2-0.4-0.4-0.5s-0.4-0.2-0.6-0.3l-0.6-0.1
			l0.1,3.7c0.2,0,0.5,0,0.7-0.1c0.2,0,0.4-0.1,0.6-0.3C53.2,58.8,53.4,58.6,53.4,58.4z"/>
		<path class="st1" d="M20.7,58.6L20.7,58.6L20.7,58.6z"/>
		<path class="st1" d="M30.3,73.9l-0.1,0.2h0.1C30.3,74.1,30.3,74,30.3,73.9z"/>
		<path class="st1" d="M42.3,58.6L42.3,58.6L42.3,58.6z"/>
		<path class="st1" d="M24,73.9c0.1-0.4,0.2-0.8,0.1-1.2c0-0.4-0.1-0.7-0.3-1.1c-0.1-0.2-0.3-0.5-0.5-0.6c-0.2-0.2-0.5-0.3-0.8-0.3
			c-0.2,0-0.5-0.1-0.7-0.1l0.1,4.4c0.3,0,0.6,0,0.9-0.1c0.3,0,0.5-0.1,0.7-0.3C23.8,74.4,23.9,74.1,24,73.9z"/>
		<path class="st1" d="M66.9,73.1c0.1-0.2,0.2-0.5,0.2-0.8s0-0.7-0.2-1c-0.1-0.2-0.3-0.4-0.5-0.5s-0.5-0.2-0.8-0.2
			c-0.2,0-0.5,0-0.8,0c0,0.6,0,1.1,0,1.7s0,1.1,0,1.7c0.2,0,0.4-0.1,0.6-0.1c0.3-0.1,0.5-0.2,0.8-0.3C66.5,73.5,66.7,73.3,66.9,73.1
			z"/>
		<path class="st1" d="M28,59.4h-0.3h-0.5l0,0h0.4H28z"/>
		<path class="st1" d="M57.5,73.9l-0.1,0.2h0.1C57.5,74.1,57.5,74,57.5,73.9z"/>
		<path class="st1" d="M31.4,57.1c-0.1,0.2-0.2,0.5-0.4,0.7c0.1,0.2,0.2,0.4,0.3,0.6c0-0.2,0-0.5,0-0.7S31.4,57.3,31.4,57.1z"/>
		<path class="st1" d="M34.6,55.6h-0.5c0,0.1,0,0.2,0,0.3s0,0.3,0,0.4h0.2c0.3,0,0.5,0,0.8,0c0.1,0,0.3,0,0.4-0.1
			c0.1,0,0.2-0.1,0.3-0.1l0.1-0.1c0,0,0-0.1-0.1-0.1c-0.2-0.1-0.3-0.1-0.5-0.2C35,55.7,34.8,55.6,34.6,55.6z"/>
		<path class="st1" d="M35,59.4h-0.3h-0.5l0,0h0.4H35z"/>
		<path class="st1" d="M27.5,55.6H27c0,0.1,0,0.2,0,0.3s0,0.3,0,0.4h0.2c0.3,0,0.5,0,0.8,0c0.1,0,0.3,0,0.4-0.1
			c0.1,0,0.2-0.1,0.3-0.1l0.1-0.1c0,0,0-0.1-0.1-0.1c-0.2-0.1-0.3-0.1-0.5-0.2C28,55.7,27.8,55.6,27.5,55.6z"/>
		<path class="st1" d="M30.7,73.6l-0.1,0.2h0.1C30.7,73.7,30.7,73.7,30.7,73.6z"/>
		<path class="st1" d="M24.4,73.6c0.1-0.4,0.2-0.8,0.1-1.2c0-0.4-0.1-0.7-0.3-1.1c-0.1-0.2-0.3-0.5-0.5-0.6
			c-0.2-0.2-0.5-0.3-0.8-0.3c-0.2,0-0.5-0.1-0.7-0.1l0.1,4.4c0.3,0,0.6,0,0.9-0.1c0.3,0,0.5-0.1,0.7-0.3
			C24.1,74,24.3,73.8,24.4,73.6z"/>
		<path class="st1" d="M67.3,72.7c0.1-0.2,0.2-0.5,0.2-0.8c0-0.3,0-0.7-0.2-1c-0.1-0.2-0.3-0.4-0.5-0.5c-0.2-0.1-0.5-0.2-0.8-0.2
			c-0.2,0-0.5,0-0.8,0c0,0.6,0,1.1,0,1.7s0,1.1,0,1.7c0.2,0,0.4-0.1,0.6-0.1c0.3-0.1,0.5-0.2,0.8-0.3C66.9,73.1,67.1,72.9,67.3,72.7
			z"/>
		<path class="st1" d="M57.9,73.6l-0.1,0.2h0.1C57.9,73.7,57.9,73.7,57.9,73.6z"/>
		<path class="st3" d="M31.1,73.3l-0.2-0.7l-0.2-1l-0.3,1c-0.1,0.2-0.1,0.5-0.2,0.7L30,74l-0.1,0.3l1.5-0.1L31.3,74L31.1,73.3z
			 M30.7,73.6c0,0.1,0,0.1,0,0.2h-0.1L30.7,73.6z"/>
		<path class="st3" d="M58.4,73.3l-0.2-0.7l-0.2-1l-0.3,1c-0.1,0.2-0.1,0.5-0.2,0.7L57.3,74l-0.1,0.3l1.4-0.1L58.6,74L58.4,73.3z
			 M57.9,73.6c0,0.1,0,0.1,0,0.2h-0.1L57.9,73.6z"/>
		<g>
			<path class="st1" d="M53.2,54.9c-0.2-0.1-0.4-0.2-0.5-0.2l-0.3-0.1l0.1,2.8c0.2,0,0.4,0,0.5-0.1c0.2,0,0.4-0.1,0.6-0.3
				c0,0,0.1-0.1,0.1-0.1c0.1-0.3,0.1-0.5,0.1-0.8c0-0.3-0.1-0.6-0.2-0.8C53.5,55.2,53.4,55,53.2,54.9z"/>
			<path class="st1" d="M61.7,55.2c-0.1-0.1-0.2-0.2-0.3-0.3c-0.2-0.1-0.4-0.1-0.6-0.1c-0.2,0-0.4,0-0.6,0.1
				c-0.1,0.1-0.2,0.1-0.3,0.3c-0.1,0.1-0.1,0.3-0.2,0.5c0,0.2,0,0.5,0,0.8c0,0.2,0,0.5,0.1,0.7c0,0,0,0,0,0c0.1,0.2,0.2,0.3,0.4,0.4
				c0.4,0.2,0.9,0.2,1.3,0c0.1-0.1,0.3-0.2,0.3-0.3c0,0,0,0,0-0.1c0-0.2,0.1-0.5,0.1-0.7c0-0.2,0-0.5-0.1-0.7
				C61.8,55.5,61.7,55.3,61.7,55.2z"/>
			<path class="st1" d="M13.9,54.8c-0.3-0.2-0.6-0.2-0.9,0c-0.1,0.1-0.3,0.2-0.4,0.4c-0.1,0.2-0.2,0.4-0.2,0.6
				c-0.1,0.2-0.1,0.5-0.1,0.7c0,0.3,0,0.5,0.1,0.8c0,0,0,0.1,0,0.1c0.1,0.2,0.3,0.3,0.4,0.4h0v-1.8h0.3v-0.4l1.6-0.2l-0.2-0.2
				C14.4,55,14.2,54.9,13.9,54.8z"/>
			<path class="st1" d="M69.5,54.8c-0.3-0.2-0.6-0.2-0.9,0c-0.2,0.1-0.3,0.2-0.4,0.4c-0.1,0.2-0.2,0.4-0.3,0.6
				c-0.1,0.2-0.1,0.5-0.1,0.7c0,0.3,0,0.5,0.1,0.8c0,0,0,0.1,0,0.1c0.1,0.2,0.3,0.3,0.4,0.4v-1.8h0.3v-0.4l1.7-0.1l-0.2-0.1
				C69.9,55.1,69.7,54.9,69.5,54.8z"/>
			<path class="st1" d="M77.3,54.8c-0.3-0.2-0.6-0.2-0.9,0c-0.1,0.1-0.3,0.2-0.4,0.4c-0.1,0.2-0.2,0.4-0.3,0.6
				c-0.1,0.2-0.1,0.5-0.1,0.7c0,0.3,0,0.5,0.1,0.8c0,0,0,0.1,0,0.1c0.1,0.2,0.3,0.3,0.4,0.4v-1.8h0.3v-0.4l1.7-0.1L78,55.3
				C77.8,55.1,77.6,54.9,77.3,54.8z"/>
			<path class="st3" d="M45.6,56.3c-0.4-1.4-0.9-2.9-1.3-4.3l-0.1-0.4h0l-0.1-0.2l-0.1-0.2h-2.4v0.2l-0.1,0.2h-0.1l-0.1,0.4
				c-0.4,1.5-0.9,2.9-1.4,4.3l-0.6,1.9c0-0.3-0.1-0.7-0.2-1c0-0.1-0.1-0.1-0.1-0.2c0-0.1-0.1-0.2-0.1-0.3c0,0,0,0,0-0.1
				c0.3-0.5,0.4-1.1,0.4-1.7c0-0.5-0.1-0.9-0.3-1.3c0-0.3-0.1-0.5-0.3-0.7c-0.2-0.4-0.6-0.7-0.9-0.9c-0.4-0.2-0.8-0.4-1.2-0.5
				c-0.7-0.2-1.4-0.2-2.1-0.2h-0.7H32v0.2c0,0.1,0,0.1,0,0.2h-0.3V52c0,0.2,0,0.4,0,0.6c-0.2-0.4-0.5-0.7-0.9-0.9
				c-0.4-0.2-0.8-0.4-1.2-0.5c-0.7-0.1-1.4-0.2-2.1-0.1h-0.7H25v0.4h-0.3V52c0,1.5-0.1,2.9-0.1,4.3c0,0.6,0,1.2,0,1.8L24,56.2
				c-0.4-1.4-0.9-2.9-1.3-4.3l-0.1-0.4c0-0.1,0-0.1-0.1-0.2l-0.1-0.2h-2.4l0,0.2c0,0.1,0,0.1-0.1,0.2h-0.1l-0.1,0.4
				c-0.4,1.5-0.9,2.9-1.4,4.3c-0.3,0.8-0.5,1.5-0.8,2.3l-0.1-1.3v-1.6h-0.2v-0.4l-2.1,0.2l2-2.4l-0.4-0.3c0,0-0.1-0.1-0.1-0.1
				l0.2-0.2l-0.2-0.2c-0.9-0.8-2-1.2-3.2-1.1c-0.3,0-0.6,0-0.9,0.1c-0.3,0.1-0.6,0.2-0.9,0.3c-0.4,0.2-0.8,0.5-1.1,0.8
				c-0.3,0.3-0.5,0.7-0.7,1.1c-0.1,0.1-0.1,0.3-0.2,0.4l-0.1,0.1c-0.2,0.4-0.3,0.9-0.4,1.4c-0.1,0.5-0.1,0.9-0.1,1.4
				c0,0.6,0.1,1.3,0.3,1.9c0.2,0.6,0.5,1.1,0.9,1.6c0.4,0.5,0.9,0.8,1.4,1.1c0.6,0.3,1.3,0.4,1.9,0.4c0.4,0,0.7,0,1.1-0.1h2.7
				l2.9,0.5l0.3-1.4h0.5h0.6l0.1,0.3c0.1,0.2,0.1,0.4,0.2,0.6l0.1,0.5l2.9-0.5h2.7h1.2c0.4,0,0.9,0,1.3-0.1c0.6-0.2,1.1-0.5,1.5-0.9
				c0,0.2,0,0.3,0,0.5v0.5h3h1.2c0.4,0,0.9-0.1,1.3-0.1c0.7-0.1,1.3-0.5,1.8-1l0.1-0.1c-0.1,0.2-0.1,0.4-0.2,0.6l-0.2,0.5l3.5,0.6
				l0.3-1.4h0.5h0.6c0,0.1,0,0.2,0.1,0.3l0.2,0.6l0.1,0.5l3.5-0.6l-0.2-0.5C46.5,59.1,46.1,57.7,45.6,56.3z M13.1,55.5v0.4h-0.3v1.8
				h0c-0.2-0.1-0.3-0.3-0.4-0.4c0,0,0-0.1,0-0.1c0-0.3-0.1-0.5-0.1-0.8c0-0.2,0-0.5,0.1-0.7c0-0.2,0.1-0.4,0.2-0.6
				c0.1-0.1,0.2-0.3,0.4-0.4c0.3-0.2,0.6-0.2,0.9,0c0.2,0.1,0.5,0.3,0.6,0.5l0.2,0.2L13.1,55.5z"/>
			<path class="st3" d="M85,57.5l2.5-5.1l-0.5-0.2l0.1-0.3l-2.1-1.2l-1.7,2.7l-1.6-2.7l-2.2,1.3v0.1c-0.8-0.6-1.8-0.9-2.8-0.9
				c-0.3,0-0.6,0-0.9,0.1c-0.3,0.1-0.6,0.2-0.9,0.3c-0.4,0.2-0.8,0.5-1.1,0.8c-0.3,0.3-0.5,0.7-0.7,1.1c-0.1,0.1-0.1,0.3-0.2,0.4
				c0,0-0.1,0.1-0.1,0.1c-0.2,0.4-0.3,0.9-0.4,1.3c0,0,0,0.1,0,0.2l-1.9,0.1l2-2.4l-0.4-0.3l-0.1-0.1l0.2-0.2l-0.2-0.3
				c-0.9-0.8-2-1.2-3.2-1.2c-0.3,0-0.6,0-0.9,0.1c-0.3,0.1-0.6,0.2-0.9,0.3c-0.4,0.2-0.8,0.5-1.1,0.8c-0.3,0.3-0.6,0.7-0.8,1.1
				c-0.1,0.1-0.1,0.3-0.2,0.4s0,0.1-0.1,0.1C65,53.8,65,54,64.9,54.1c0,0,0-0.1-0.1-0.1c0,0,0-0.1,0-0.1c-0.2-0.6-0.4-1.1-0.8-1.5
				c-0.4-0.4-0.8-0.8-1.4-1c-1.2-0.5-2.5-0.5-3.7,0c-0.5,0.2-1,0.6-1.4,1c-0.3,0.4-0.6,0.8-0.7,1.3c-0.1,0.2-0.2,0.4-0.3,0.6v-0.1
				c-0.3-1-0.9-1.8-1.8-2.3c-0.4-0.3-0.9-0.4-1.4-0.5c-0.5-0.1-1-0.2-1.5-0.2h-2.2v0.4h-0.3l-0.3,9.7h3h0.5c0.5-0.1,1-0.2,1.5-0.3
				c0.6-0.2,1.1-0.5,1.5-0.9c0.4-0.4,0.7-0.9,0.9-1.4c0.2,0.5,0.4,1,0.8,1.4c0.4,0.5,0.9,0.9,1.5,1.1c1.3,0.6,2.7,0.6,4,0
				c0.6-0.3,1.1-0.7,1.5-1.2c0.3-0.4,0.6-0.9,0.7-1.3c0.2,0.5,0.4,0.9,0.7,1.3c0.4,0.5,0.9,0.8,1.4,1.1c0.6,0.3,1.3,0.4,1.9,0.4
				c0.4,0,0.7,0,1.1-0.1h3.2l-0.2-2c0.1,0.2,0.3,0.4,0.4,0.6c0.8,1,2,1.5,3.3,1.5c0.4,0,0.7,0,1.1-0.1h3.2l-0.3-4v-1.7h-0.2v-0.4
				l-2.1,0.2l1.4-1.7l1.9,3.8c0,0.5-0.1,1.1-0.1,1.6l-0.1,2.2h3.5v-0.5c-0.1-0.5-0.1-1.1-0.1-1.7C85.1,58.5,85,58,85,57.5z
				 M53.7,56.9C53.7,57,53.6,57,53.7,56.9c-0.2,0.2-0.5,0.3-0.7,0.3c-0.2,0-0.3,0.1-0.5,0.1l-0.1-2.8l0.3,0.1c0.2,0,0.4,0.1,0.5,0.2
				c0.2,0.1,0.3,0.3,0.4,0.5c0.1,0.3,0.2,0.5,0.2,0.8C53.8,56.4,53.7,56.7,53.7,56.9z M61.8,57.1C61.8,57.1,61.8,57.1,61.8,57.1
				c-0.1,0.2-0.2,0.3-0.4,0.4c-0.4,0.2-0.9,0.2-1.3,0c-0.2-0.1-0.3-0.2-0.4-0.4c0,0,0,0,0,0c0-0.2-0.1-0.4-0.1-0.7
				c0-0.2,0-0.5,0-0.8c0-0.2,0.1-0.3,0.2-0.5c0.1-0.1,0.2-0.2,0.3-0.3c0.2-0.1,0.4-0.1,0.6-0.1c0.2,0,0.4,0,0.6,0.1
				c0.1,0.1,0.3,0.1,0.3,0.3c0.1,0.1,0.1,0.3,0.2,0.5c0,0.2,0.1,0.5,0.1,0.7C61.9,56.6,61.9,56.9,61.8,57.1z M68.6,55.5v0.4h-0.3
				v1.8c-0.2-0.1-0.3-0.3-0.4-0.4c0,0,0-0.1,0-0.1c0-0.3-0.1-0.5-0.1-0.8c0-0.2,0-0.5,0.1-0.7c0.1-0.2,0.1-0.4,0.3-0.6
				c0.1-0.1,0.2-0.3,0.4-0.4c0.3-0.2,0.6-0.2,0.9,0c0.2,0.1,0.5,0.3,0.6,0.5l0.2,0.1L68.6,55.5z M76.4,55.5v0.4h-0.3v1.8
				c-0.2-0.1-0.3-0.3-0.4-0.4c0,0,0-0.1,0-0.1c0-0.3-0.1-0.5-0.1-0.8c0-0.2,0-0.5,0.1-0.7c0.1-0.2,0.1-0.4,0.3-0.6
				c0.1-0.1,0.2-0.3,0.4-0.4c0.3-0.2,0.6-0.2,0.9,0c0.2,0.1,0.4,0.3,0.6,0.5l0.1,0.1L76.4,55.5z"/>
		</g>
		<path class="st3" d="M38.8,73l2.8-5.7L41.2,67l0.1-0.3L39,65.4l-2,3.1L35,65.3l-2.4,1.4l0.1,0.3l-0.3,0.2c0-0.1-0.1-0.3-0.1-0.4
			l-0.1-0.4h0c0-0.1-0.1-0.2-0.1-0.2l0-0.2h-2.7v0.2c0,0.1-0.1,0.1-0.1,0.2h-0.1l-0.1,0.4c-0.4,1.5-0.9,2.9-1.4,4.3V71
			c0-0.3-0.1-0.6-0.2-0.8c-0.1-0.3-0.2-0.7-0.4-1c-0.2-0.5-0.4-0.9-0.7-1.3c-0.4-0.4-0.8-0.8-1.3-1.1c-0.5-0.3-1-0.5-1.6-0.6
			C23,66.1,22.4,66,21.9,66h-2.4v0.4h-0.2l-0.4,11h3.4h0.5c0.6-0.1,1.2-0.2,1.7-0.4c0.6-0.2,1.2-0.6,1.6-1l-0.2,0.8l-0.2,0.5
			l3.8,0.7l0.1-0.5c0.1-0.3,0.1-0.5,0.2-0.8l0.1-0.4h0.6h0.7l0.1,0.4c0.1,0.2,0.1,0.5,0.2,0.7l0.1,0.5l3.4-0.6H39v-0.5
			c0-0.7-0.1-1.3-0.1-2L38.8,73z M24,72.7c-0.2,0.2-0.5,0.3-0.7,0.3c-0.2,0-0.4,0.1-0.7,0.1l-0.1-3.4l0.4,0.1c0.2,0,0.5,0.1,0.7,0.3
			c0.2,0.1,0.3,0.3,0.4,0.5c0.1,0.3,0.2,0.7,0.2,1c0,0.3,0,0.7-0.1,1C24.1,72.6,24,72.7,24,72.7z M35.1,74.9l0,1
			c-0.4-1.4-0.8-2.8-1.2-4.1c-0.3-1.1-0.7-2.3-1-3.5l2.4,4.8C35.2,73.7,35.2,74.3,35.1,74.9z"/>
		<path class="st3" d="M76.7,69.9h0.5v-3.8H77l0.1-0.4h-0.3l-2.1,0.1L72.5,66h-1.8v0.2c0,0,0,0.1,0,0.2h-0.3v0.5
			c0,0.9,0,1.7-0.1,2.6c0,0,0-0.1,0-0.2c0-0.1-0.1-0.1-0.1-0.2c0-0.1-0.1-0.3-0.1-0.4c-0.2-0.6-0.6-1.1-1-1.5c-0.4-0.4-1-0.8-1.5-1
			c-0.6-0.2-1.2-0.3-1.9-0.3h-0.6h-0.6h-2.2v0.3c0,0,0,0.1,0,0.2h-0.3v0.5c0,1.7-0.1,3.3-0.1,5c0,0.8,0,1.7-0.1,2.5
			c-0.3-0.9-0.5-1.8-0.8-2.7c-0.5-1.6-1-3.3-1.5-5l-0.1-0.4c-0.1,0-0.1-0.1-0.1-0.1V66h-2.8l-0.1,0.2l-0.1,0.2h-0.1l-0.1,0.4
			c-0.5,1.7-1,3.4-1.6,5c-0.3,0.8-0.5,1.5-0.8,2.3L53.5,74v-0.1l0.1-0.2l-2.7-1l-0.1,0.2c-0.2,0.3-0.4,0.5-0.7,0.7
			c-0.3,0.2-0.6,0.3-1,0.3c-0.4,0-0.8-0.1-1.1-0.3c-0.2-0.1-0.3-0.3-0.4-0.5c-0.1-0.3-0.1-0.6-0.1-0.9c0-0.4,0.1-0.8,0.3-1.1
			c0.1-0.3,0.3-0.6,0.6-0.8c0.3-0.3,0.8-0.4,1.2-0.1c0.3,0.1,0.5,0.3,0.8,0.6l0.4,0.4l2.5-3L53,67.6l-0.1-0.1l0.2-0.2l-0.2-0.2
			c-0.5-0.4-1-0.8-1.6-1c-0.6-0.2-1.2-0.3-1.9-0.3c-0.8,0-1.5,0.1-2.2,0.4c-0.6,0.3-1.2,0.7-1.6,1.2c-0.3,0.4-0.6,0.8-0.7,1.3
			c-0.2,0.3-0.4,0.7-0.5,1.1c-0.2,0.7-0.3,1.5-0.3,2.2c0,0.7,0.1,1.5,0.3,2.2c0.2,0.7,0.6,1.3,1,1.8c0.4,0.5,1,1,1.6,1.3
			c0.7,0.3,1.4,0.5,2.2,0.5c1.9,0.1,3.6-1,4.4-2.7c-0.2,0.6-0.4,1.3-0.6,1.9l-0.2,0.5l3.8,0.7l0.1-0.5c0.1-0.3,0.1-0.5,0.2-0.8
			l0.1-0.4h0.7h0.7l0.1,0.4l0.2,0.7l0.1,0.5l3.3-0.6h3.6v-0.5c0-0.1,0-0.3,0-0.4h0.3h0.5l1.6,1.9l0.2,0.2h0.4l2-1.1h2.1l2,0.1
			l2.6,0.2v-3.9H77v-0.4h-0.3h-0.3v-3.4H76.7z M66.9,71.8c-0.2,0.1-0.5,0.2-0.8,0.3c-0.2,0-0.4,0-0.5,0.1c0-0.3,0-0.7,0-1
			c0-0.4,0-0.9,0-1.4H66c0.2,0,0.5,0.1,0.7,0.2c0.2,0.1,0.3,0.2,0.4,0.4c0.1,0.3,0.2,0.5,0.1,0.8c0,0.2,0,0.3-0.1,0.4
			C67.1,71.7,67,71.8,66.9,71.8z M70.3,75.3l-0.5-0.8c0.2-0.3,0.4-0.6,0.5-1C70.3,74.1,70.3,74.7,70.3,75.3z"/>
		<g>
			<path class="st4" d="M15.3,59.5v0.2h1.9l-0.2-3.2v-0.9l-3.2,0.2v1.5l1.8,0.1l-0.4,0.4c-0.4,0.3-0.9,0.5-1.4,0.5
				c-0.3,0-0.7-0.1-1-0.3c-0.3-0.2-0.5-0.4-0.6-0.6c-0.2-0.3-0.3-0.6-0.3-0.8c0-0.3-0.1-0.6-0.1-0.9c0-0.3,0-0.6,0.1-0.9
				c0.1-0.3,0.2-0.6,0.4-0.8c0.2-0.2,0.4-0.4,0.6-0.6c0.5-0.3,1.1-0.3,1.6,0c0.2,0.1,0.5,0.2,0.7,0.4l1.3-1.5
				c-0.8-0.6-1.7-0.9-2.6-0.9c-0.3,0-0.5,0-0.8,0.1c-0.3,0.1-0.5,0.1-0.8,0.3c-0.4,0.2-0.7,0.4-1,0.7c-0.3,0.3-0.5,0.6-0.7,0.9
				c-0.2,0.4-0.3,0.7-0.4,1.1C10,54.8,10,55.2,10,55.7c0,0.6,0.1,1.1,0.3,1.6c0.1,0.5,0.4,0.9,0.7,1.3c0.3,0.4,0.7,0.7,1.1,0.9
				c0.9,0.4,1.9,0.4,2.8,0.1L15.3,59.5z"/>
			<path class="st4" d="M17.9,59.7l1.9,0.3l0.1-0.5l0.2-0.9h0.2l0.9,0l0.9,0.1h0.2V59c0,0.2,0.1,0.4,0.1,0.6s0.1,0.3,0.1,0.4
				l1.9-0.3c-0.4-1.4-0.8-2.8-1.2-4.1s-0.8-2.7-1.3-4.2h-1.6c-0.4,1.4-0.9,2.8-1.3,4.2S18.3,58.4,17.9,59.7z M20.7,56.7l0.2-0.6
				l0.4-1.6l0.2,1l0.1,0.6c0,0.2,0.1,0.4,0.2,0.6l0.1,0.3l-1.3,0L20.7,56.7z"/>
			<path class="st4" d="M29.9,59.6c0.5-0.1,1-0.4,1.3-0.8c0.3-0.4,0.5-0.9,0.5-1.5c0-0.3-0.1-0.5-0.2-0.8c-0.1-0.2-0.2-0.5-0.4-0.7
				L31,55.7l0.1-0.2c0.4-0.5,0.6-1,0.6-1.6c0-0.4-0.1-0.8-0.3-1.1c-0.2-0.3-0.5-0.6-0.8-0.8c-0.3-0.2-0.7-0.3-1.1-0.4
				c-0.6-0.1-1.3-0.2-2-0.1h-0.7h-1.3c0,1.4-0.1,2.7-0.1,4.1s-0.1,2.7-0.1,4.1h3.4C29.1,59.7,29.5,59.6,29.9,59.6z M27.2,54.6
				c0-0.2,0-0.4,0-0.6s0-0.4,0-0.6V53h0.3h0.8c0.3,0,0.5,0,0.8,0.1c0.2,0,0.5,0.1,0.7,0.2c0.3,0.2,0.5,0.5,0.3,0.9
				c0,0.1-0.1,0.2-0.2,0.2c-0.1,0.1-0.3,0.2-0.5,0.2c-0.2,0-0.3,0.1-0.5,0.1h-0.4h-1.2L27.2,54.6z M27.6,57.8h-0.2v-0.5
				c0-0.1,0-0.2,0-0.2v-0.3h0.2h0.8l0.8,0.1c0.2,0,0.4,0.1,0.6,0.1c0.1,0,0.2,0.1,0.3,0.3c0,0.1,0,0.2-0.1,0.3
				c-0.1,0.1-0.3,0.2-0.5,0.2c-0.2,0-0.4,0-0.6,0h-0.7L27.6,57.8z"/>
			<path class="st4" d="M36.9,59.6c0.5-0.1,1-0.4,1.3-0.8c0.3-0.4,0.5-0.9,0.5-1.5c0-0.3,0-0.5-0.2-0.8c-0.1-0.2-0.2-0.5-0.4-0.7
				l-0.1-0.2l0.1-0.2c0.4-0.5,0.6-1,0.6-1.6c0-0.4-0.1-0.8-0.3-1.1c-0.2-0.3-0.4-0.6-0.8-0.8c-0.3-0.2-0.7-0.3-1.1-0.4
				c-0.7-0.1-1.3-0.2-2-0.1h-0.7h-1.3c0,1.4-0.1,2.7-0.1,4.1s-0.1,2.7-0.1,4.1h3.4C36.2,59.7,36.6,59.6,36.9,59.6z M34.3,54.6
				c0-0.2,0-0.4,0-0.6s0-0.4,0-0.6V53h0.3h0.8c0.3,0,0.5,0,0.8,0.1c0.2,0,0.4,0.1,0.7,0.2c0.2,0.1,0.4,0.3,0.4,0.6
				c0,0.2-0.1,0.4-0.3,0.5c-0.1,0.1-0.3,0.2-0.5,0.2c-0.2,0-0.3,0.1-0.5,0.1h-0.4h-1.1L34.3,54.6z M34.6,57.8h-0.2v-0.5
				c0-0.1,0-0.2,0-0.2v-0.3h0.2h0.8l0.8,0.1c0.2,0,0.4,0.1,0.6,0.1c0.1,0,0.2,0.1,0.3,0.3c0,0.1,0,0.2-0.1,0.3
				c-0.1,0.1-0.3,0.2-0.5,0.2c-0.2,0-0.4,0-0.6,0h-0.7L34.6,57.8z"/>
			<path class="st4" d="M43.8,51.5h-1.6c-0.4,1.4-0.9,2.8-1.3,4.2s-0.9,2.7-1.3,4.1l1.9,0.3l0.1-0.5l0.2-0.9H42l0.9,0l0.9,0.1H44V59
				l0.2,0.6c0,0.1,0.1,0.3,0.1,0.4l1.9-0.3c-0.4-1.4-0.8-2.8-1.2-4.1S44.2,52.9,43.8,51.5z M42.2,57l0.1-0.3
				c0.1-0.2,0.1-0.4,0.2-0.6l0.4-1.6l0.2,1c0,0.2,0.1,0.4,0.2,0.6l0.2,0.6l0.1,0.4H42.2z"/>
			<path class="st4" d="M55.2,58.6c0.4-0.3,0.7-0.8,0.8-1.2c0.2-0.6,0.3-1.2,0.3-1.8c0-0.2,0-0.4-0.1-0.7c0-0.2-0.1-0.4-0.1-0.6
				c-0.1-0.4-0.3-0.9-0.6-1.2c-0.3-0.3-0.6-0.6-1-0.8c-0.4-0.2-0.8-0.4-1.2-0.5c-0.5-0.1-0.9-0.2-1.4-0.2h-1.6L50,59.7h2.2
				c0.6,0,1.2-0.2,1.7-0.3C54.4,59.2,54.9,58.9,55.2,58.6z M52.2,57.7H52l-0.2-4.8h0.3c0.3,0,0.6,0.1,0.9,0.1
				c0.3,0.1,0.6,0.2,0.8,0.4c0.3,0.2,0.5,0.4,0.6,0.7c0.2,0.4,0.3,0.7,0.3,1.1l0,0c0,0.4,0,0.8-0.2,1.2c-0.1,0.3-0.3,0.6-0.5,0.8
				c-0.2,0.2-0.5,0.3-0.8,0.4C52.9,57.7,52.5,57.7,52.2,57.7L52.2,57.7z"/>
			<path class="st4" d="M64.5,57.3c0.2-0.6,0.3-1.1,0.3-1.7c0-0.6-0.1-1.2-0.3-1.7c-0.1-0.5-0.4-1-0.7-1.4c-0.3-0.4-0.7-0.7-1.2-0.9
				c-1.1-0.4-2.3-0.4-3.3,0c-0.5,0.2-0.9,0.5-1.2,0.9c-0.3,0.4-0.6,0.9-0.7,1.4c-0.2,0.6-0.3,1.1-0.3,1.7c0,0.6,0.1,1.2,0.3,1.7
				c0.2,0.5,0.4,1,0.7,1.4c0.3,0.4,0.7,0.8,1.2,1c0.5,0.2,1.1,0.4,1.7,0.3c0.6,0,1.1-0.1,1.7-0.4c0.5-0.2,0.9-0.6,1.2-1
				C64.1,58.2,64.3,57.8,64.5,57.3z M62.7,56.4c-0.1,0.3-0.2,0.5-0.3,0.8c-0.1,0.2-0.3,0.4-0.6,0.6c-0.6,0.3-1.3,0.3-1.8,0
				c-0.2-0.1-0.4-0.3-0.6-0.6c-0.1-0.2-0.2-0.5-0.3-0.8c0-0.3-0.1-0.6-0.1-0.8c0-0.3,0-0.6,0.1-0.9c0-0.3,0.1-0.5,0.3-0.8
				c0.1-0.2,0.4-0.4,0.6-0.5c0.6-0.2,1.3-0.2,1.9,0c0.2,0.1,0.5,0.3,0.6,0.5c0.1,0.2,0.2,0.5,0.3,0.8c0,0.3,0.1,0.6,0.1,0.8
				C62.8,55.8,62.7,56.1,62.7,56.4z"/>
			<path class="st4" d="M66.4,58.6c0.3,0.4,0.7,0.7,1.2,0.9c0.5,0.2,1,0.3,1.6,0.3c0.4,0,0.8-0.1,1.2-0.2l0.4-0.1v0.2h1.8l-0.2-3.2
				v-0.9l-3.2,0.2v1.5l1.8,0.1l-0.4,0.4c-0.4,0.3-0.9,0.5-1.4,0.5c-0.3,0-0.7-0.1-1-0.3c-0.3-0.2-0.5-0.4-0.6-0.6
				c-0.2-0.3-0.3-0.6-0.3-0.8c-0.1-0.3-0.1-0.6-0.1-0.9c0-0.3,0-0.6,0.1-0.9c0.1-0.3,0.2-0.6,0.4-0.8c0.2-0.2,0.4-0.4,0.6-0.6
				c0.5-0.3,1.1-0.3,1.6,0c0.2,0.1,0.5,0.2,0.7,0.4l1.3-1.5c-0.8-0.6-1.7-0.9-2.6-0.9c-0.3,0-0.5,0-0.8,0.1
				c-0.3,0.1-0.5,0.1-0.8,0.3c-0.4,0.2-0.7,0.4-1,0.7c-0.3,0.3-0.5,0.6-0.7,0.9c-0.1,0.3-0.2,0.7-0.3,1.1c-0.1,0.4-0.1,0.8-0.1,1.3
				c0,0.6,0.1,1.1,0.2,1.6C65.8,57.7,66.1,58.2,66.4,58.6z"/>
			<path class="st4" d="M77,51.3c-0.3,0-0.5,0-0.8,0.1c-0.3,0.1-0.5,0.1-0.8,0.3c-0.4,0.2-0.7,0.4-1,0.7c-0.3,0.3-0.5,0.6-0.7,0.9
				c-0.2,0.4-0.3,0.7-0.4,1.1c-0.1,0.4-0.1,0.8-0.1,1.3c0,0.6,0.1,1.1,0.3,1.6c0.1,0.5,0.4,0.9,0.7,1.3c0.3,0.4,0.7,0.7,1.2,0.9
				c0.5,0.2,1,0.3,1.6,0.3c0.4,0,0.8-0.1,1.2-0.2l0.4-0.1v0.2h1.9l-0.2-3.2v-0.9l-3.2,0.2v1.5l1.8,0.1l-0.4,0.4
				c-0.4,0.3-0.9,0.5-1.4,0.5c-0.3,0-0.7-0.1-1-0.3c-0.3-0.2-0.5-0.4-0.6-0.6c-0.1-0.3-0.2-0.6-0.3-0.8c0-0.3-0.1-0.6-0.1-0.9
				c0-0.3,0-0.6,0.1-0.9c0.1-0.3,0.2-0.6,0.4-0.8c0.2-0.2,0.4-0.4,0.6-0.6c0.5-0.3,1.1-0.3,1.6,0c0.2,0.1,0.5,0.2,0.7,0.4l1.3-1.5
				C79,51.6,78,51.3,77,51.3z"/>
			<path class="st4" d="M81.7,51.1l-1.3,0.8l2.3,4.6v0.1c0,0.6-0.1,1.1-0.1,1.7l-0.1,1.5h2c0-0.5,0-1-0.1-1.5s0-1.1-0.1-1.7v-0.1v0
				l2.3-4.6l-1.2-0.7L83.6,54L81.7,51.1z"/>
			<g>
				<path class="st4" d="M25.6,74.6c0.4-0.4,0.8-0.9,1-1.4c0.2-0.7,0.4-1.4,0.4-2.1c0-0.3,0-0.5-0.1-0.8c0-0.3-0.1-0.5-0.2-0.7
					c-0.1-0.5-0.4-1-0.7-1.5c-0.3-0.4-0.7-0.7-1.1-1c-0.4-0.3-0.9-0.5-1.5-0.6c-0.5-0.1-1.1-0.2-1.6-0.2h-1.9l-0.3,9.5h2.6
					c0.7,0,1.4-0.2,2-0.4C24.7,75.3,25.2,75,25.6,74.6z M22.1,73.6h-0.3l-0.2-5.4h0.3c0.4,0,0.7,0.1,1.1,0.2
					c0.3,0.1,0.7,0.2,0.9,0.4c0.3,0.2,0.5,0.5,0.7,0.8c0.2,0.4,0.3,0.8,0.3,1.3l0,0c0,0.5,0,1-0.2,1.4c-0.1,0.3-0.3,0.6-0.6,0.9
					c-0.3,0.2-0.6,0.4-0.9,0.4C22.8,73.6,22.5,73.6,22.1,73.6z"/>
				<path class="st4" d="M31.6,66.4h-1.9c-0.5,1.6-1,3.3-1.6,4.8s-1,3.1-1.5,4.7l2.3,0.4l0.1-0.6l0.3-1h0.2l1.1,0.1l1.1,0.1h0.2v0.2
					l0.2,0.7l0.1,0.5l2.3-0.4c-0.5-1.6-1-3.2-1.4-4.7S32.1,68.1,31.6,66.4z M29.8,72.9l0.1-0.3l0.2-0.7c0.1-0.2,0.1-0.5,0.2-0.7
					l0.3-0.9l0.2,0.9l0.2,0.7l0.2,0.7l0.1,0.3L29.8,72.9z"/>
				<path class="st4" d="M35.9,72.2c0,0.7-0.1,1.3-0.1,2L35.8,76h2.3c0-0.6-0.1-1.1-0.1-1.7s-0.1-1.3-0.1-2l0,0l2.7-5.4L39.1,66
					l-2.1,3.4L34.8,66l-1.6,0.9L35.9,72.2L35.9,72.2z"/>
				<path class="st4" d="M53,73.8l-1.7-0.6c-0.2,0.3-0.5,0.5-0.8,0.7c-0.4,0.2-0.8,0.3-1.2,0.3c-0.5,0-1-0.1-1.4-0.4
					c-0.3-0.3-0.6-0.7-0.7-1.1c-0.2-0.4-0.2-0.9-0.2-1.4c0-0.5,0.1-0.9,0.3-1.4c0.2-0.4,0.4-0.8,0.8-1.1c0.6-0.5,1.4-0.6,2.1-0.2
					c0.3,0.1,0.5,0.3,0.8,0.5l1.5-1.8c-0.4-0.3-0.8-0.6-1.3-0.8c-0.5-0.2-1.1-0.3-1.7-0.3c-0.7,0-1.4,0.1-2,0.4
					c-0.5,0.2-1,0.6-1.4,1c-0.4,0.5-0.7,1.1-0.8,1.7c-0.2,0.6-0.3,1.3-0.3,2c0,0.7,0.1,1.3,0.3,1.9c0.2,0.6,0.5,1.1,0.8,1.6
					c0.4,0.4,0.8,0.8,1.4,1c0.6,0.3,1.2,0.4,1.9,0.4C50.8,76.2,52.3,75.3,53,73.8L53,73.8z"/>
				<path class="st4" d="M59.4,76.4l2.3-0.4c-0.5-1.6-1-3.2-1.4-4.7s-1-3.2-1.5-4.8h-1.9c-0.5,1.6-1,3.3-1.6,4.8s-1,3.1-1.5,4.7
					l2.3,0.4c0-0.2,0.1-0.4,0.1-0.6l0.3-1h0.2l1.1,0.1l1.1,0.1H59l0,0.2c0.1,0.2,0.1,0.5,0.2,0.7L59.4,76.4z M57.1,72.9l0.1-0.3
					c0.1-0.2,0.1-0.5,0.2-0.7c0.1-0.2,0.1-0.5,0.2-0.7l0.3-0.9l0.2,0.9l0.2,0.7l0.2,0.7l0.1,0.3L57.1,72.9z"/>
				<path class="st4" d="M66.8,74.9l1.7,2.1l1.6-0.9l-1.4-2.2l0.1-0.1c0.4-0.4,0.6-0.9,0.8-1.4c0.2-0.6,0.3-1.1,0.3-1.7
					c0-0.6-0.1-1.2-0.3-1.7c-0.2-0.5-0.5-0.9-0.9-1.3c-0.4-0.4-0.8-0.7-1.3-0.8c-0.8-0.2-1.5-0.3-2.3-0.3h-0.6h-1.7
					c0,1.6-0.1,3.2-0.1,4.8s-0.1,3.2-0.1,4.7h2.4c0-0.1,0-0.1,0-0.2c0-0.1,0-0.3,0-0.4V75h0.3h0.8c0.3,0,0.5,0,0.8-0.1L66.8,74.9z
					 M65,72.7h-0.3v-0.3c0-0.7,0-1.3,0-2s0-1.3,0-1.9v-0.2H65c0.4,0,0.7,0,1,0c0.3,0,0.6,0.1,0.9,0.3c0.3,0.1,0.5,0.4,0.7,0.7
					c0.2,0.4,0.3,0.8,0.3,1.2c0,0.4-0.1,0.7-0.3,1.1c-0.2,0.3-0.4,0.5-0.7,0.7c-0.3,0.2-0.6,0.3-0.9,0.4
					C65.7,72.5,65.4,72.6,65,72.7z"/>
				<path class="st4" d="M72.5,66.4h-1.3c0,1.6-0.1,3.2-0.1,4.8S71,74.4,71,75.9h1.7l2,0.1l1.8,0.1v-2.3c-0.4,0-0.9,0.1-1.3,0.1
					L73.5,74h-0.3v-0.3c0-0.2,0-0.4,0-0.6s0-0.4,0-0.6v-0.3h0.3l1.3,0.1l1,0.1v-2.3l-1,0.1l-1.3,0.1h-0.3V70c0-0.2,0-0.5,0-0.7
					s0-0.5,0-0.7v-0.3h0.3l1.7,0.1l1.4,0.1v-2.2l-1.9,0.1L72.5,66.4z"/>
			</g>
		</g>
	</g>
</g>
<g>
	<path class="st3" d="M66.4,104.8l-0.1,0.8c0,0.2,0,0.5-0.1,0.7l-0.8-1.4l-1.8,0.1v-0.3l-1.1,0.2c-0.6,0.1-1.1,0.2-1.7,0.2
		c-0.6,0.1-1.1,0.1-1.7,0.2l-2,0.1l-0.1,0.8c0,0.2,0,0.4,0,0.5c-0.2-0.2-0.5-0.4-0.8-0.5c-0.5-0.2-1-0.4-1.5-0.5s-1-0.1-1.6-0.1
		l-2.4,0.3v0.1l-2.5-0.3l-0.2,0.8c-0.1,0.2-0.1,0.5-0.2,0.7c0-0.2-0.1-0.3-0.1-0.5l-0.2-1l-3.2,0.8l-0.1-0.6l-4.2,1l0.1,0.4
		c-0.3-0.2-0.6-0.4-0.9-0.5c-0.6-0.2-1.3-0.3-2-0.3c-0.7,0.1-1.4,0.2-2,0.5s-1.1,0.7-1.5,1.2c-0.1,0.1-0.1,0.2-0.2,0.2
		c-0.2-0.3-0.5-0.6-0.9-0.8c-0.4-0.2-0.9-0.4-1.4-0.5s-0.9-0.1-1.4-0.1c-0.2,0-0.5,0-0.7,0.1c-0.2,0-0.5,0-0.7,0.1l-2.3,0.2
		l-0.1,0.8c-0.1,1.3-0.2,2.7-0.3,4c-0.1,1.3-0.2,2.6-0.3,4l-0.1,1.1l3.4-0.2l1.1-0.1c0.2,0,0.3,0,0.5,0c0.3,0,0.5-0.1,0.8-0.1
		c0.8-0.2,1.4-0.6,1.9-1.2c0.1-0.1,0.1-0.2,0.2-0.3l0,0c0.4,0.5,0.9,0.9,1.5,1.1c0.5,0.2,1,0.3,1.7,0.3c0.1,0,0.3,0,0.4,0
		c0.8-0.1,1.4-0.2,2-0.6c0.6-0.3,1.1-0.7,1.5-1.2s0.7-1.1,0.9-1.7c0.1-0.2,0.1-0.4,0.2-0.7l0.2,0.8c0.2,0.6,0.3,1.2,0.5,1.9l0.2,0.8
		l6.6-0.5l0.2-0.6c0.2-0.7,0.5-1.4,0.7-2c0.1-0.2,0.1-0.4,0.2-0.6l-0.3,3.2l3.4-0.2l0.8-0.1v-0.1c0.4-0.1,0.8-0.2,1.1-0.4
		c0.5-0.2,0.9-0.4,1.3-0.7l-0.1,1l2.6-0.2c0.6,0,1.1,0,1.6,0h2.5v-0.2l2.5-0.2v-0.9l0,0l0.1,0.1l-0.1,0.8h0.5l0.2,0.3l0.7-0.4l3-0.2
		v-0.9c0-1.3,0.1-2.6,0.1-4c0-1.3,0.1-2.6,0.1-4v-1L66.4,104.8z M54.2,111.1v-1.6l0,0c0,0,0.1,0.1,0.1,0.2s0.1,0.2,0.1,0.5
		c0,0.4-0.1,0.6-0.1,0.7l0,0C54.3,111,54.3,111.1,54.2,111.1L54.2,111.1z M37.5,111.6c0,0.2,0,0.4-0.1,0.6l0,0
		c0,0.1-0.1,0.3-0.1,0.4s-0.1,0.1-0.2,0.2c-0.1,0-0.2,0.1-0.3,0.1c-0.2,0-0.2,0-0.3-0.1c0-0.1-0.1-0.2-0.1-0.3c0-0.2,0-0.4,0-0.5
		c0-0.2,0-0.4,0.1-0.6c0-0.1,0.1-0.2,0.1-0.3l0.1-0.1c0,0,0.1-0.1,0.4-0.1h0.1c0.1,0,0.2,0,0.2,0s0.1,0.1,0.1,0.2
		C37.5,111.2,37.6,111.4,37.5,111.6z"/>
</g>
<g>
	
		<text transform="matrix(1.0098 -7.090771e-02 -5.188159e-02 0.9987 26.6003 115.9499)" class="st4" style="font-family:'Mencran?'; font-size:11.2399px;">BOWDEN</text>
</g>
<g>
	
		<text transform="matrix(1.0098 -7.090770e-02 -5.188159e-02 0.9987 134.4233 80.3003)" class="st4" style="font-family:'Mencran?'; font-size:11.9868px;">ADELAIDE</text>
</g>
<g>
	
		<text transform="matrix(1.0098 -7.090770e-02 -5.188159e-02 0.9987 134.4234 94.8902)" class="st4" style="font-family:'Mencran?'; font-size:11.9868px;">BRISBANE</text>
</g>
<g>
	<path class="st2" d="M30.8,87.9v-5.5h2.1c0.4,0,0.9,0.1,1.2,0.4c0.2,0.2,0.3,0.5,0.3,1c0,0.2,0,0.4-0.2,0.7
		c-0.1,0.2-0.2,0.3-0.4,0.4c0.3,0,0.6,0.2,0.8,0.3c0.2,0.2,0.4,0.6,0.4,1c0,0.5-0.2,0.9-0.4,1.1c-0.3,0.3-0.8,0.5-1.5,0.5H30.8z
		 M32.2,84.6h0.3c0.1,0,0.4,0,0.5-0.2c0.1-0.1,0.1-0.2,0.1-0.4c0-0.1,0-0.3-0.1-0.4c-0.1-0.1-0.3-0.2-0.5-0.2h-0.3V84.6z M32.2,86.8
		h0.3c0.4,0,0.7,0,0.9-0.2c0.1-0.1,0.1-0.2,0.1-0.4c0-0.2-0.1-0.3-0.1-0.4c-0.2-0.2-0.5-0.2-0.9-0.2h-0.3V86.8z"/>
	<path class="st2" d="M40.9,87.2c-0.6,0.5-1.4,0.8-2.2,0.8c-0.8,0-1.6-0.3-2.2-0.8c-0.6-0.6-0.9-1.3-0.9-2.1c0-0.7,0.3-1.5,0.9-2.1
		c0.6-0.5,1.4-0.8,2.2-0.8c0.8,0,1.6,0.3,2.2,0.8c0.6,0.6,0.9,1.3,0.9,2.1C41.7,85.9,41.4,86.6,40.9,87.2z M37.6,84.1
		c-0.3,0.3-0.4,0.7-0.4,1.1c0,0.5,0.2,0.8,0.4,1c0.3,0.3,0.6,0.4,1.1,0.4c0.5,0,0.9-0.2,1.1-0.4c0.3-0.3,0.4-0.6,0.4-1.1
		c0-0.4-0.2-0.8-0.4-1.1c-0.3-0.3-0.7-0.4-1.1-0.4C38.3,83.6,37.9,83.8,37.6,84.1z"/>
	<path class="st2" d="M43.6,82.4l1,3.6l1.2-3.6h1.1l1.1,3.6l1-3.6h1.5l-1.8,5.5h-1.5l-1-3.2l-1.1,3.2h-1.5l-1.6-5.5H43.6z"/>
	<path class="st2" d="M51,87.9v-5.5h1.9c0.6,0,1.5,0.1,2.2,0.8c0.6,0.6,0.8,1.4,0.8,2c0,0.7-0.2,1.4-0.7,1.9
		c-0.4,0.4-1.2,0.8-2.1,0.8H51z M52.5,86.7h0.3c0.3,0,0.8,0,1.2-0.4c0.2-0.2,0.4-0.5,0.4-1.1c0-0.5-0.2-1-0.4-1.2
		c-0.3-0.3-0.8-0.3-1.1-0.3h-0.3V86.7z"/>
	<path class="st2" d="M59.9,83.6h-1.7v0.9h1.6v1.2h-1.6v1h1.7v1.2h-3.1v-5.5h3.1V83.6z"/>
	<path class="st2" d="M60.8,87.9v-5.5h1.4l2.6,3.4v-3.4h1.4v5.5h-1.4l-2.6-3.4v3.4H60.8z"/>
</g>
</svg>
