<?xml version="1.0" encoding="utf-8"?>
<!-- Generator: Adobe Illustrator 25.0.1, SVG Export Plug-In . SVG Version: 6.00 Build 0)  -->
<svg version="1.1" id="Layer_1" xmlns="http://www.w3.org/2000/svg" xmlns:xlink="http://www.w3.org/1999/xlink" x="0px" y="0px"
	 viewBox="0 0 96.9 96.9" style="enable-background:new 0 0 96.9 96.9;" xml:space="preserve">
<style type="text/css">
	.st0{fill:#094F8D;}
	.st1{fill:#159BFF;}
	.st2{fill:#FFC95C;}
</style>
<g id="Layer_2_1_">
	<g id="Layer_1-2">
		<path class="st0" d="M48.5,96.4c26.5-0.1,47.9-21.6,47.9-48S74.8,0.4,48.3,0.5C21.9,0.5,0.5,22,0.5,48.4
			c0,26.5,21.5,47.9,47.9,47.9C48.5,96.4,48.5,96.4,48.5,96.4z"/>
		<path class="st1" d="M48.5,93.6c25,0,45.1-20.3,45.1-45.3S73.3,3.2,48.3,3.3C23.4,3.3,3.2,23.5,3.3,48.4
			c0,24.9,20.2,45.2,45.2,45.2C48.5,93.6,48.5,93.6,48.5,93.6z"/>
		<path class="st2" d="M24.6,67.6c0,4.3,3.3,7,8.9,7c6.1,0,10.2-3.1,15-3.1s8.9,3.1,15,3.1c5.6,0,8.9-2.6,8.9-7
			c0-9.6-14.1-24.9-24-24.9S24.6,58,24.6,67.6z"/>
		<path class="st2" d="M25.9,50.5c3.6-0.8,5.4-5,4.2-9.3s-5.3-7.1-8.9-6.3s-5.6,5-4.2,9.3S22.3,51.3,25.9,50.5z"/>
		<path class="st2" d="M40.7,38.5c3.9-1,5.8-6.3,4.3-11.7s-5.8-8.9-9.6-7.9c-3.8,1-5.8,6.3-4.3,11.7C32.6,36,36.8,39.5,40.7,38.5z"
			/>
		<path class="st2" d="M71.1,50.5c3.6,0.8,7.7-2,8.9-6.3s-0.6-8.5-4.2-9.3c-3.6-0.8-7.7,2-8.9,6.3S67.4,49.7,71.1,50.5z"/>
		<path class="st2" d="M56.1,38.5c3.9,1,8.2-2.5,9.6-7.9S65.3,20,61.4,18.9c-3.9-1-8.2,2.5-9.6,7.9S52.2,37.5,56.1,38.5z"/>
	</g>
</g>
</svg>
