<svg xmlns="http://www.w3.org/2000/svg" width="96.86" height="96.86" viewBox="0 0 96.86 96.86"><defs><style>.cls-1{fill:#159bff;}.cls-2{fill:#fff;}.cls-3{fill:#0c4d8e;}.cls-4{fill:#ffc95c;stroke:#0c4d8e;stroke-miterlimit:10;stroke-width:0.75px;}</style></defs><g id="Layer_2" data-name="Layer 2"><g id="Layer_1-2" data-name="Layer 1"><path class="cls-1" d="M48.74,93.6A45.18,45.18,0,1,0,3.47,48.43,45.17,45.17,0,0,0,48.74,93.6Z"/><path class="cls-1" d="M48.43,96.86A48.43,48.43,0,1,0,0,48.43,48.45,48.45,0,0,0,48.43,96.86ZM10,22.49A47.56,47.56,0,0,1,22.49,10a46.48,46.48,0,0,1,51.88,0A47.56,47.56,0,0,1,86.9,22.49,46.51,46.51,0,0,1,66.48,91.24a47.35,47.35,0,0,1-18.05,3.65A46.46,46.46,0,0,1,10,22.49Z"/><path class="cls-2" d="M22.49,87a46.74,46.74,0,0,0,25.94,7.89,47.35,47.35,0,0,0,18.05-3.65A46.51,46.51,0,0,0,86.9,22.49,47.56,47.56,0,0,0,74.37,10a46.48,46.48,0,0,0-51.88,0A47.56,47.56,0,0,0,10,22.49,46.65,46.65,0,0,0,22.49,87ZM3.25,48.43A45.23,45.23,0,1,1,48.53,93.6,45.17,45.17,0,0,1,3.25,48.43Z"/><path class="cls-3" d="M24.45,69.4c0,4.38,3.39,7.06,9,7.06,6.21,0,10.3-3.11,15.24-3.11s9,3.11,15.24,3.11c5.64,0,9-2.68,9-7.06,0-9.73-14.25-25.25-24.27-25.25S24.45,59.67,24.45,69.4Z"/><path class="cls-3" d="M25.86,52.05c3.67-.85,5.51-5.08,4.24-9.46s-5.37-7.19-9-6.35-5.65,5.08-4.24,9.46S22.19,52.89,25.86,52.05Z"/><path class="cls-3" d="M40.82,39.91c4-1,5.93-6.35,4.37-11.85s-5.92-9-9.73-8-5.93,6.35-4.38,11.85S36.87,40.9,40.82,39.91Z"/><path class="cls-3" d="M71.58,52.05c3.67.84,7.76-2,9-6.35s-.57-8.61-4.23-9.46-7.76,2-9,6.35S67.91,51.2,71.58,52.05Z"/><path class="cls-3" d="M56.62,39.91c4,1,8.33-2.54,9.74-8S65.93,21.15,62,20s-8.32,2.54-9.73,8S52.67,38.93,56.62,39.91Z"/><path class="cls-4" d="M24.77,67.31c0,4.32,3.34,7,8.91,7,6.13,0,10.17-3.06,15-3.06s8.91,3.06,15,3.06c5.57,0,8.92-2.64,8.92-7,0-9.61-14.07-24.93-24-24.93S24.77,57.7,24.77,67.31Z"/><path class="cls-4" d="M26.16,50.18c3.62-.84,5.43-5,4.18-9.33s-5.3-7.11-8.92-6.27-5.57,5-4.18,9.33S22.54,51,26.16,50.18Z"/><path class="cls-4" d="M40.92,38.2c3.9-1,5.85-6.27,4.32-11.7s-5.85-8.91-9.61-7.94-5.85,6.27-4.32,11.7S37,39.18,40.92,38.2Z"/><path class="cls-4" d="M71.28,50.18c3.62.83,7.66-2,8.92-6.27s-.56-8.49-4.18-9.33-7.66,2-8.92,6.27S67.66,49.34,71.28,50.18Z"/><path class="cls-4" d="M56.52,38.2c3.9,1,8.22-2.51,9.61-7.94s-.42-10.58-4.32-11.7c-3.9-1-8.22,2.51-9.61,7.94S52.62,37.23,56.52,38.2Z"/></g></g></svg>