<svg id="Layer_1" data-name="Layer 1" xmlns="http://www.w3.org/2000/svg" xmlns:xlink="http://www.w3.org/1999/xlink" width="200" height="200" viewBox="0 0 200 200"><defs><style>.cls-1{fill:none;}.cls-2{opacity:0.2;}.cls-3{opacity:0.18;}.cls-4{opacity:0.16;}.cls-5{opacity:0.1;}.cls-6{opacity:0.12;}.cls-7{opacity:0.15;}.cls-8{fill:url(#New_Pattern_2);}</style><pattern id="New_Pattern_2" data-name="New Pattern 2" width="200" height="200" patternUnits="userSpaceOnUse" viewBox="0 0 200 200"><rect class="cls-1" width="200" height="200"/><path class="cls-2" d="M27.37,199.17c-1.87-.31-5,2.14-5.33,4-.13.83.41,1.43,1.48,1.6s2-.27,2.93-.11,1.6.88,2.74,1.07,1.78-.21,1.91-1C31.41,202.83,29.24,199.48,27.37,199.17Zm-3.43-.88a1.55,1.55,0,0,0-1.49-1.47,1.37,1.37,0,0,0-1.1,1.65,1.56,1.56,0,0,0,1.5,1.46A1.35,1.35,0,0,0,23.94,198.29Zm2.09-.16c.76-.06,1.29-1,1.18-2.06s-.81-1.88-1.58-1.82-1.29,1-1.18,2.07S25.26,198.2,26,198.13Zm6.75.43a1.55,1.55,0,0,0-1.89.9,1.36,1.36,0,0,0,.5,1.91,1.55,1.55,0,0,0,1.89-.9A1.35,1.35,0,0,0,32.78,198.56Zm-3.81.07c.7.31,1.63-.22,2.09-1.2s.25-2-.45-2.34-1.63.22-2.08,1.2A1.73,1.73,0,0,0,29,198.63Z"/><path class="cls-3" d="M170.93,184.25c-1.84.49-3.69,4-3.22,5.81.21.8,1,1.12,2,.85s1.72-1.08,2.63-1.31,1.81.14,2.93-.15,1.53-.92,1.32-1.73C176.12,185.93,172.77,183.77,170.93,184.25Zm-3.48.61a1.57,1.57,0,0,0-2-.73,1.37,1.37,0,0,0-.32,2,1.56,1.56,0,0,0,2,.72A1.36,1.36,0,0,0,167.45,184.86Zm1.83-1a1.72,1.72,0,0,0,.23-2.37c-.54-.93-1.51-1.38-2.18-1a1.72,1.72,0,0,0-.23,2.37C167.64,183.79,168.61,184.24,169.28,183.86Zm6.33-2.39a1.56,1.56,0,0,0-1.35,1.6,1.35,1.35,0,0,0,1.24,1.53,1.54,1.54,0,0,0,1.35-1.59A1.35,1.35,0,0,0,175.61,181.47Zm-3.44,1.63c.77,0,1.4-.87,1.41-1.95s-.61-2-1.37-2-1.39.87-1.4,2S171.41,183.1,172.17,183.1Z"/><path class="cls-4" d="M149.39,106.68a3.93,3.93,0,0,0-.06-.69,5.29,5.29,0,0,0-4.86,4.87,5.06,5.06,0,0,0,.69.06A4.24,4.24,0,0,0,149.39,106.68Zm5,4.24a5.21,5.21,0,0,1,.69,0,5.28,5.28,0,0,0-5-5,5.09,5.09,0,0,1,0,.69,4.94,4.94,0,0,1-4.94,4.94,5.36,5.36,0,0,1-.7-.05,5.29,5.29,0,0,0,5,5,5.06,5.06,0,0,1-.06-.69A5,5,0,0,1,154.34,110.92Zm-4.24,4.94a5.2,5.2,0,0,0,.06.69,5.3,5.3,0,0,0,4.87-4.87,5.36,5.36,0,0,0-.69-.06A4.25,4.25,0,0,0,150.1,115.86Z"/><path class="cls-5" d="M204.53,103.58a5.05,5.05,0,0,0-.06-.68,5.3,5.3,0,0,0-4.87,4.86,4,4,0,0,0,.69.06A4.24,4.24,0,0,0,204.53,103.58Zm4.94,4.24a5.36,5.36,0,0,1,.7.06,5.29,5.29,0,0,0-5-5,5.36,5.36,0,0,1,.06.69,5,5,0,0,1-5,5,5.21,5.21,0,0,1-.69,0,5.29,5.29,0,0,0,5,5,5.34,5.34,0,0,1-.05-.69A5,5,0,0,1,209.47,107.82Zm-4.23,5a3.82,3.82,0,0,0,.06.68,5.28,5.28,0,0,0,4.86-4.86,3.85,3.85,0,0,0-.69-.06A4.24,4.24,0,0,0,205.24,112.77Z"/><path class="cls-6" d="M180,137.69c-1.46.34-3,3.09-2.65,4.51.15.64.73.91,1.56.71s1.38-.81,2.1-1,1.43.15,2.31-.07,1.23-.69,1.08-1.33C184.07,139.1,181.47,137.34,180,137.69Zm-2.76.41a1.22,1.22,0,0,0-1.53-.61,1.07,1.07,0,0,0-.3,1.53,1.24,1.24,0,0,0,1.54.61A1.07,1.07,0,0,0,177.25,138.1Zm1.47-.75a1.37,1.37,0,0,0,.22-1.87c-.4-.74-1.16-1.12-1.7-.84a1.37,1.37,0,0,0-.22,1.87A1.39,1.39,0,0,0,178.72,137.35Zm5-1.77a1.23,1.23,0,0,0-1.1,1.23,1.07,1.07,0,0,0,1,1.24,1.23,1.23,0,0,0,1.1-1.23A1.08,1.08,0,0,0,183.76,135.58ZM181,136.8c.61,0,1.12-.66,1.15-1.51s-.44-1.55-1-1.56-1.12.66-1.15,1.51S180.41,136.79,181,136.8Z"/><path class="cls-4" d="M49.39,156.68a3.93,3.93,0,0,0-.06-.69,5.29,5.29,0,0,0-4.86,4.87,5.06,5.06,0,0,0,.69.06A4.24,4.24,0,0,0,49.39,156.68Zm5,4.24A5.21,5.21,0,0,1,55,161a5.28,5.28,0,0,0-5-5,5.09,5.09,0,0,1,.05.69,4.94,4.94,0,0,1-4.94,4.94,5.36,5.36,0,0,1-.7-.05,5.29,5.29,0,0,0,5,5,5.06,5.06,0,0,1-.06-.69A5,5,0,0,1,54.34,160.92Zm-4.24,4.94a5.2,5.2,0,0,0,.06.69A5.3,5.3,0,0,0,55,161.68a5.36,5.36,0,0,0-.69-.06A4.25,4.25,0,0,0,50.1,165.86Z"/><path class="cls-2" d="M127.37,149.17c-1.87-.31-5,2.14-5.33,4-.13.83.41,1.43,1.48,1.6s2-.27,2.93-.11,1.6.88,2.74,1.07,1.78-.21,1.91-1C131.41,152.83,129.24,149.48,127.37,149.17Zm-3.43-.88a1.55,1.55,0,0,0-1.49-1.47,1.37,1.37,0,0,0-1.1,1.65,1.56,1.56,0,0,0,1.5,1.46A1.35,1.35,0,0,0,123.94,148.29Zm2.09-.16c.76-.06,1.29-1,1.18-2.06s-.81-1.88-1.58-1.82-1.29,1-1.18,2.07S125.26,148.2,126,148.13Zm6.75.43a1.55,1.55,0,0,0-1.89.9,1.36,1.36,0,0,0,.5,1.91,1.55,1.55,0,0,0,1.89-.9A1.35,1.35,0,0,0,132.78,148.56Zm-3.81.07c.7.31,1.63-.22,2.09-1.2s.25-2-.45-2.34-1.63.22-2.08,1.2A1.73,1.73,0,0,0,129,148.63Z"/><path class="cls-5" d="M104.53,153.58a5.05,5.05,0,0,0-.06-.68,5.3,5.3,0,0,0-4.87,4.86,4,4,0,0,0,.69.06A4.24,4.24,0,0,0,104.53,153.58Zm4.94,4.24a5.36,5.36,0,0,1,.7.06,5.29,5.29,0,0,0-5-5,5.36,5.36,0,0,1,.06.69,5,5,0,0,1-4.95,4.95,5.21,5.21,0,0,1-.69-.05,5.29,5.29,0,0,0,5,5,5.34,5.34,0,0,1,0-.69A5,5,0,0,1,109.47,157.82Zm-4.23,5a3.82,3.82,0,0,0,.06.68,5.28,5.28,0,0,0,4.86-4.86,3.85,3.85,0,0,0-.69-.06A4.24,4.24,0,0,0,105.24,162.77Z"/><path class="cls-6" d="M80,187.69c-1.46.34-3,3.09-2.65,4.51.15.64.73.91,1.56.71s1.38-.81,2.1-1,1.43.15,2.31-.07,1.23-.69,1.08-1.33C84.07,189.1,81.47,187.34,80,187.69Zm-2.76.41a1.22,1.22,0,0,0-1.53-.61,1.07,1.07,0,0,0-.3,1.53,1.24,1.24,0,0,0,1.54.61A1.07,1.07,0,0,0,77.25,188.1Zm1.47-.75a1.37,1.37,0,0,0,.22-1.87c-.4-.74-1.16-1.12-1.7-.84a1.37,1.37,0,0,0-.22,1.87A1.39,1.39,0,0,0,78.72,187.35Zm5-1.77a1.23,1.23,0,0,0-1.1,1.23,1.07,1.07,0,0,0,1,1.24,1.23,1.23,0,0,0,1.1-1.23A1.08,1.08,0,0,0,83.76,185.58ZM81,186.8c.61,0,1.12-.66,1.15-1.51s-.44-1.55-1-1.56-1.12.66-1.15,1.51S80.41,186.79,81,186.8Z"/><path class="cls-2" d="M27.37,99.17c-1.87-.31-5,2.14-5.33,4-.13.83.41,1.43,1.48,1.6s2-.27,2.93-.11,1.6.88,2.74,1.07,1.78-.21,1.91-1C31.41,102.83,29.24,99.48,27.37,99.17Zm-3.43-.88a1.55,1.55,0,0,0-1.49-1.47,1.37,1.37,0,0,0-1.1,1.65,1.56,1.56,0,0,0,1.5,1.46A1.35,1.35,0,0,0,23.94,98.29ZM26,98.13c.76-.06,1.29-1,1.18-2.06s-.81-1.88-1.58-1.82-1.29,1-1.18,2.07S25.26,98.2,26,98.13Zm6.75.43a1.55,1.55,0,0,0-1.89.9,1.36,1.36,0,0,0,.5,1.91,1.55,1.55,0,0,0,1.89-.9A1.35,1.35,0,0,0,32.78,98.56ZM29,98.63c.7.31,1.63-.22,2.09-1.2s.25-2-.45-2.34-1.63.22-2.08,1.2A1.73,1.73,0,0,0,29,98.63Z"/><path class="cls-5" d="M4.53,103.58a5.05,5.05,0,0,0-.06-.68A5.3,5.3,0,0,0-.4,107.76a4,4,0,0,0,.69.06A4.24,4.24,0,0,0,4.53,103.58Zm4.94,4.24a5.36,5.36,0,0,1,.7.06,5.29,5.29,0,0,0-5-5,5.36,5.36,0,0,1,.06.69,5,5,0,0,1-4.95,5,5.21,5.21,0,0,1-.69,0,5.29,5.29,0,0,0,5,5,5.34,5.34,0,0,1,0-.69A5,5,0,0,1,9.47,107.82Zm-4.23,5a3.82,3.82,0,0,0,.06.68,5.28,5.28,0,0,0,4.86-4.86,3.85,3.85,0,0,0-.69-.06A4.24,4.24,0,0,0,5.24,112.77Z"/><path class="cls-7" d="M15.21,161.44c-1.21-.37-3.52,1-3.89,2.17-.16.53.15,1,.84,1.19s1.36,0,2,.18,1,.73,1.73,1,1.2,0,1.36-.52C17.58,164.23,16.43,161.82,15.21,161.44ZM13,160.55a1,1,0,0,0-.87-1.1.9.9,0,0,0-.87,1,1,1,0,0,0,.86,1.11A.92.92,0,0,0,13,160.55Zm1.39.08c.52,0,.95-.54,1-1.26S15,158,14.5,158s-.95.55-1,1.27S13.9,160.61,14.41,160.63Zm4.46.88a1.06,1.06,0,0,0-1.34.43.91.91,0,0,0,.17,1.32,1,1,0,0,0,1.33-.43A.92.92,0,0,0,18.87,161.51Zm-2.54-.28c.44.27,1.1,0,1.49-.62a1.14,1.14,0,0,0-.09-1.59c-.43-.27-1.1,0-1.49.61A1.17,1.17,0,0,0,16.33,161.23Z"/><path class="cls-3" d="M170.93,84.25c-1.84.49-3.69,4-3.22,5.81.21.8,1,1.12,2,.85s1.72-1.08,2.63-1.31,1.81.14,2.93-.15,1.53-.92,1.32-1.73C176.12,85.93,172.77,83.77,170.93,84.25Zm-3.48.61a1.57,1.57,0,0,0-2-.73,1.37,1.37,0,0,0-.32,2,1.56,1.56,0,0,0,2,.72A1.36,1.36,0,0,0,167.45,84.86Zm1.83-1a1.72,1.72,0,0,0,.23-2.37c-.54-.93-1.51-1.38-2.18-1a1.72,1.72,0,0,0-.23,2.37C167.64,83.79,168.61,84.24,169.28,83.86Zm6.33-2.39a1.56,1.56,0,0,0-1.35,1.6,1.35,1.35,0,0,0,1.24,1.53A1.54,1.54,0,0,0,176.85,83,1.35,1.35,0,0,0,175.61,81.47Zm-3.44,1.63c.77,0,1.4-.87,1.41-1.95s-.61-2-1.37-2-1.39.87-1.4,2S171.41,83.1,172.17,83.1Z"/><path class="cls-4" d="M149.39,6.68a3.93,3.93,0,0,0-.06-.69,5.29,5.29,0,0,0-4.86,4.87,5.06,5.06,0,0,0,.69.06A4.24,4.24,0,0,0,149.39,6.68Zm5,4.24A5.21,5.21,0,0,1,155,11a5.28,5.28,0,0,0-5-5,5.09,5.09,0,0,1,0,.69,4.94,4.94,0,0,1-4.94,4.94,5.36,5.36,0,0,1-.7,0,5.29,5.29,0,0,0,5,5,5.06,5.06,0,0,1-.06-.69A5,5,0,0,1,154.34,10.92Zm-4.24,4.94a5.2,5.2,0,0,0,.06.69A5.3,5.3,0,0,0,155,11.68a5.36,5.36,0,0,0-.69-.06A4.25,4.25,0,0,0,150.1,15.86Z"/><path class="cls-5" d="M204.53,3.58a5.05,5.05,0,0,0-.06-.68,5.3,5.3,0,0,0-4.87,4.86,4,4,0,0,0,.69.06A4.24,4.24,0,0,0,204.53,3.58Zm4.94,4.24a5.36,5.36,0,0,1,.7.06,5.29,5.29,0,0,0-5-5,5.36,5.36,0,0,1,.06.69,5,5,0,0,1-5,4.95,5.21,5.21,0,0,1-.69,0,5.29,5.29,0,0,0,5,5,5.34,5.34,0,0,1-.05-.69A5,5,0,0,1,209.47,7.82Zm-4.23,4.95a3.82,3.82,0,0,0,.06.68,5.28,5.28,0,0,0,4.86-4.86,3.85,3.85,0,0,0-.69-.06A4.24,4.24,0,0,0,205.24,12.77Z"/><path class="cls-6" d="M180,37.69c-1.46.34-3,3.09-2.65,4.51.15.64.73.91,1.56.71s1.38-.81,2.1-1,1.43.15,2.31-.07,1.23-.69,1.08-1.33C184.07,39.1,181.47,37.34,180,37.69Zm-2.76.41a1.22,1.22,0,0,0-1.53-.61,1.07,1.07,0,0,0-.3,1.53,1.24,1.24,0,0,0,1.54.61A1.07,1.07,0,0,0,177.25,38.1Zm1.47-.75a1.37,1.37,0,0,0,.22-1.87c-.4-.74-1.16-1.12-1.7-.84a1.37,1.37,0,0,0-.22,1.87A1.39,1.39,0,0,0,178.72,37.35Zm5-1.77a1.23,1.23,0,0,0-1.1,1.23,1.07,1.07,0,0,0,1,1.24,1.23,1.23,0,0,0,1.1-1.23A1.08,1.08,0,0,0,183.76,35.58ZM181,36.8c.61,0,1.12-.66,1.15-1.51s-.44-1.55-1-1.56-1.12.66-1.15,1.51S180.41,36.79,181,36.8Z"/><path class="cls-3" d="M70.93,134.25c-1.84.49-3.69,4-3.22,5.81.21.8,1,1.12,2,.85s1.72-1.08,2.63-1.31,1.81.14,2.93-.15,1.53-.92,1.32-1.73C76.12,135.93,72.77,133.77,70.93,134.25Zm-3.48.61a1.57,1.57,0,0,0-2-.73,1.37,1.37,0,0,0-.32,2,1.56,1.56,0,0,0,2,.72A1.36,1.36,0,0,0,67.45,134.86Zm1.83-1a1.72,1.72,0,0,0,.23-2.37c-.54-.93-1.51-1.38-2.18-1a1.72,1.72,0,0,0-.23,2.37C67.64,133.79,68.61,134.24,69.28,133.86Zm6.33-2.39a1.56,1.56,0,0,0-1.35,1.6,1.35,1.35,0,0,0,1.24,1.53A1.54,1.54,0,0,0,76.85,133,1.35,1.35,0,0,0,75.61,131.47Zm-3.44,1.63c.77,0,1.4-.87,1.41-1.95s-.61-2-1.37-2-1.39.87-1.4,2S71.41,133.1,72.17,133.1Z"/><path class="cls-4" d="M49.39,56.68a3.93,3.93,0,0,0-.06-.69,5.29,5.29,0,0,0-4.86,4.87,5.06,5.06,0,0,0,.69.06A4.24,4.24,0,0,0,49.39,56.68Zm5,4.24A5.21,5.21,0,0,1,55,61a5.28,5.28,0,0,0-5-5,5.09,5.09,0,0,1,.05.69,4.94,4.94,0,0,1-4.94,4.94,5.36,5.36,0,0,1-.7,0,5.29,5.29,0,0,0,5,5,5.06,5.06,0,0,1-.06-.69A5,5,0,0,1,54.34,60.92ZM50.1,65.86a5.2,5.2,0,0,0,.06.69A5.3,5.3,0,0,0,55,61.68a5.36,5.36,0,0,0-.69-.06A4.25,4.25,0,0,0,50.1,65.86Z"/><path class="cls-2" d="M127.37,49.17c-1.87-.31-5,2.14-5.33,4-.13.83.41,1.43,1.48,1.6s2-.27,2.93-.11,1.6.88,2.74,1.07,1.78-.21,1.91-1C131.41,52.83,129.24,49.48,127.37,49.17Zm-3.43-.88a1.55,1.55,0,0,0-1.49-1.47,1.37,1.37,0,0,0-1.1,1.65,1.56,1.56,0,0,0,1.5,1.46A1.35,1.35,0,0,0,123.94,48.29Zm2.09-.16c.76-.06,1.29-1,1.18-2.06s-.81-1.88-1.58-1.82-1.29,1-1.18,2.07S125.26,48.2,126,48.13Zm6.75.43a1.55,1.55,0,0,0-1.89.9,1.36,1.36,0,0,0,.5,1.91,1.55,1.55,0,0,0,1.89-.9A1.35,1.35,0,0,0,132.78,48.56Zm-3.81.07c.7.31,1.63-.22,2.09-1.2s.25-2-.45-2.34-1.63.22-2.08,1.2A1.73,1.73,0,0,0,129,48.63Z"/><path class="cls-5" d="M104.53,53.58a5.05,5.05,0,0,0-.06-.68,5.3,5.3,0,0,0-4.87,4.86,4,4,0,0,0,.69.06A4.24,4.24,0,0,0,104.53,53.58Zm4.94,4.24a5.36,5.36,0,0,1,.7.06,5.29,5.29,0,0,0-5-5,5.36,5.36,0,0,1,.06.69,5,5,0,0,1-4.95,5,5.21,5.21,0,0,1-.69-.05,5.29,5.29,0,0,0,5,5,5.34,5.34,0,0,1,0-.69A5,5,0,0,1,109.47,57.82Zm-4.23,5a3.82,3.82,0,0,0,.06.68,5.28,5.28,0,0,0,4.86-4.86,3.85,3.85,0,0,0-.69-.06A4.24,4.24,0,0,0,105.24,62.77Z"/><path class="cls-6" d="M80,87.69c-1.46.34-3,3.09-2.65,4.51.15.64.73.91,1.56.71s1.38-.81,2.1-1,1.43.15,2.31-.07,1.23-.69,1.08-1.33C84.07,89.1,81.47,87.34,80,87.69Zm-2.76.41a1.22,1.22,0,0,0-1.53-.61,1.07,1.07,0,0,0-.3,1.53,1.24,1.24,0,0,0,1.54.61A1.07,1.07,0,0,0,77.25,88.1Zm1.47-.75a1.37,1.37,0,0,0,.22-1.87c-.4-.74-1.16-1.12-1.7-.84A1.37,1.37,0,0,0,77,86.51,1.39,1.39,0,0,0,78.72,87.35Zm5-1.77a1.23,1.23,0,0,0-1.1,1.23,1.07,1.07,0,0,0,1,1.24,1.23,1.23,0,0,0,1.1-1.23A1.08,1.08,0,0,0,83.76,85.58ZM81,86.8c.61,0,1.12-.66,1.15-1.51s-.44-1.55-1-1.56S80,84.39,80,85.24,80.41,86.79,81,86.8Z"/><path class="cls-7" d="M115.21,111.44c-1.21-.37-3.52,1-3.89,2.17-.16.53.15,1,.84,1.19s1.36,0,2,.18,1,.73,1.73,1,1.2,0,1.36-.52C117.58,114.23,116.43,111.82,115.21,111.44Zm-2.19-.89a1,1,0,0,0-.87-1.1.9.9,0,0,0-.87,1,1,1,0,0,0,.86,1.11A.92.92,0,0,0,113,110.55Zm1.39.08c.52,0,1-.54,1-1.26S115,108,114.5,108s-1,.55-1,1.27S113.9,110.61,114.41,110.63Zm4.46.88a1.06,1.06,0,0,0-1.34.43.91.91,0,0,0,.17,1.32,1,1,0,0,0,1.33-.43A.92.92,0,0,0,118.87,111.51Zm-2.54-.28c.44.27,1.1,0,1.49-.62a1.14,1.14,0,0,0-.09-1.59c-.43-.27-1.1,0-1.49.61A1.17,1.17,0,0,0,116.33,111.23Z"/><path class="cls-2" d="M27.37-.83c-1.87-.31-5,2.14-5.33,4-.13.83.41,1.43,1.48,1.6s2-.27,2.93-.11,1.6.88,2.74,1.07,1.78-.21,1.91-1C31.41,2.83,29.24-.52,27.37-.83Zm-3.43-.88a1.55,1.55,0,0,0-1.49-1.47,1.37,1.37,0,0,0-1.1,1.65,1.56,1.56,0,0,0,1.5,1.46A1.35,1.35,0,0,0,23.94-1.71ZM26-1.87c.76-.06,1.29-1,1.18-2.06s-.81-1.88-1.58-1.82-1.29,1-1.18,2.07S25.26-1.8,26-1.87Zm6.75.43a1.55,1.55,0,0,0-1.89.9,1.36,1.36,0,0,0,.5,1.91,1.55,1.55,0,0,0,1.89-.9A1.35,1.35,0,0,0,32.78-1.44ZM29-1.37c.7.31,1.63-.22,2.09-1.2s.25-2-.45-2.34-1.63.22-2.08,1.2A1.73,1.73,0,0,0,29-1.37Z"/><path class="cls-5" d="M4.53,3.58a5.05,5.05,0,0,0-.06-.68A5.3,5.3,0,0,0-.4,7.76a4,4,0,0,0,.69.06A4.24,4.24,0,0,0,4.53,3.58ZM9.47,7.82a5.36,5.36,0,0,1,.7.06,5.29,5.29,0,0,0-5-5,5.36,5.36,0,0,1,.06.69A5,5,0,0,1,.29,8.53a5.21,5.21,0,0,1-.69,0,5.29,5.29,0,0,0,5,5,5.34,5.34,0,0,1,0-.69A5,5,0,0,1,9.47,7.82ZM5.24,12.77a3.82,3.82,0,0,0,.06.68,5.28,5.28,0,0,0,4.86-4.86,3.85,3.85,0,0,0-.69-.06A4.24,4.24,0,0,0,5.24,12.77Z"/><path class="cls-7" d="M15.21,61.44c-1.21-.37-3.52,1-3.89,2.17-.16.53.15,1,.84,1.19s1.36,0,2,.18,1,.73,1.73,1,1.2,0,1.36-.52C17.58,64.23,16.43,61.82,15.21,61.44ZM13,60.55a1,1,0,0,0-.87-1.1.9.9,0,0,0-.87,1,1,1,0,0,0,.86,1.11A.92.92,0,0,0,13,60.55Zm1.39.08c.52,0,.95-.54,1-1.26S15,58,14.5,58s-.95.55-1,1.27S13.9,60.61,14.41,60.63Zm4.46.88a1.06,1.06,0,0,0-1.34.43.91.91,0,0,0,.17,1.32A1,1,0,0,0,19,62.83.92.92,0,0,0,18.87,61.51Zm-2.54-.28c.44.27,1.1,0,1.49-.62A1.14,1.14,0,0,0,17.73,59c-.43-.27-1.1,0-1.49.61A1.17,1.17,0,0,0,16.33,61.23Z"/><path class="cls-3" d="M70.93,34.25c-1.84.49-3.69,4-3.22,5.81.21.8,1,1.12,2,.85s1.72-1.08,2.63-1.31,1.81.14,2.93-.15,1.53-.92,1.32-1.73C76.12,35.93,72.77,33.77,70.93,34.25Zm-3.48.61a1.57,1.57,0,0,0-2-.73,1.37,1.37,0,0,0-.32,2,1.56,1.56,0,0,0,2,.72A1.36,1.36,0,0,0,67.45,34.86Zm1.83-1a1.72,1.72,0,0,0,.23-2.37c-.54-.93-1.51-1.38-2.18-1a1.72,1.72,0,0,0-.23,2.37C67.64,33.79,68.61,34.24,69.28,33.86Zm6.33-2.39a1.56,1.56,0,0,0-1.35,1.6A1.35,1.35,0,0,0,75.5,34.6,1.54,1.54,0,0,0,76.85,33,1.35,1.35,0,0,0,75.61,31.47ZM72.17,33.1c.77,0,1.4-.87,1.41-2S73,29.2,72.21,29.2s-1.39.87-1.4,1.95S71.41,33.1,72.17,33.1Z"/><path class="cls-7" d="M115.21,11.44c-1.21-.37-3.52,1-3.89,2.17-.16.53.15,1,.84,1.19s1.36,0,2,.18,1,.73,1.73,1,1.2,0,1.36-.52C117.58,14.23,116.43,11.82,115.21,11.44ZM113,10.55a1,1,0,0,0-.87-1.1.9.9,0,0,0-.87,1,1,1,0,0,0,.86,1.11A.92.92,0,0,0,113,10.55Zm1.39.08c.52,0,1-.54,1-1.26S115,8,114.5,8s-1,.55-1,1.27S113.9,10.61,114.41,10.63Zm4.46.88a1.06,1.06,0,0,0-1.34.43.91.91,0,0,0,.17,1.32,1,1,0,0,0,1.33-.43A.92.92,0,0,0,118.87,11.51Zm-2.54-.28c.44.27,1.1,0,1.49-.62A1.14,1.14,0,0,0,117.73,9c-.43-.27-1.1,0-1.49.61A1.17,1.17,0,0,0,116.33,11.23Z"/></pattern></defs><rect class="cls-8" width="200" height="200"/></svg>