<svg xmlns="http://www.w3.org/2000/svg" width="202" height="130.29" viewBox="0 0 202 130.29"><defs>
<style>.cls-1{fill:#474b57;}</style>
</defs><g id="Layer_2" data-name="Layer 2"><g id="Layer_4" data-name="Layer 4"><path class="cls-1" d="M109,54.29s48,10,50,10c-3.53,10.43,37.18,23.61,43,30-3,35-91.87-27.95-130,6-12,7-44,30-49,30-34.67-2.07,16.86-33.6,21-41,2-1,3-12,3-12-18.25-11.63-66.33-39.55-1-22C54,57.29,77,54.29,109,54.29Z"/><path class="cls-1" d="M41,79.29c1.08,2.1,0,4-1,7-4.61,8.95-22.26,19.33-28,23-9.06,1.71-10.18-6.6-12-13C2,95.67,39.66,75.08,41,79.29Z"/><path class="cls-1" d="M162.64,35.91c1,1,17.62,4.38,23,3C194,30.41,201.56,17.52,196,6.29c3.92-5.5-70.72,4.52-70.14,6.85C99.14-14.45,100.6,3.52,122,47.29c0,0,35,7,36,7,7.26-1.5,12.52-1.79,21.64-10.38C176.59,44.61,165.64,41.91,162.64,35.91Z"/></g></g></svg>