<svg xmlns="http://www.w3.org/2000/svg" width="207.9" height="206.87" viewBox="0 0 207.9 206.87"><defs><style>.cls-1{fill:#474b57;}</style></defs><g id="Layer_2" data-name="Layer 2"><g id="Layer_4" data-name="Layer 4"><path class="cls-1" d="M59.2,79.68S43.36,96.08,32,127C32,127,.67,109.59.35,112.58s-1.85,7.84,5.57,13.67,21.15,18.37,21.15,18.37c.69,14.06,3.07,41.75,8.39,62.25,0,0,9.25-1.84,10.52-4.31s6.26-30.09,6.9-36.06c30.41-21,12.48-30.48,29.53-50.13,4.3-2.55,20.39-11.88,22.81-15.65,0,0,35.33-1.22,37.53-3s4.06-9.62,2.49-13.81S59.2,79.68,59.2,79.68Z"/><path class="cls-1" d="M95.55,115.78s12-8.71,14.26-11c0,0,23.35-2,30.67,4.78-1.38,16.59-14.58,10.6-23.08,8.81Z"/><path class="cls-1" d="M72.38,153.52s-5,9.51-12.65,14.73c.57.36,12.68,27,17,29,1,.11,8.6-5.11,8.92-8.09S72.38,153.52,72.38,153.52Z"/><path class="cls-1" d="M177.38,9.06c28.47-7.07,19.73,21.43-1,26.09C147.86,42.22,156.6,13.72,177.38,9.06ZM148.63,32.6c3.67,33.9,62.14,9.44,59.16-16C204.12-17.29,145.65,7.17,148.63,32.6Z"/><path class="cls-1" d="M129,28.86S96.76,29.71,73.53,40c-1.57,0-9.41-6-16.05-9.78-.93-.52-5.24-1.56-5-.53C63.44,71,66.69,74.61,111.3,72.21c.54-2.11,9.77-12.48,15.43-23.13C129,44.56,132.65,33.48,129,28.86Z"/></g></g></svg>