<svg xmlns="http://www.w3.org/2000/svg" width="243.49" height="195.77" viewBox="0 0 243.49 195.77"><defs><style>.cls-1{fill:#474b57;}</style></defs><g id="Layer_2" data-name="Layer 2"><g id="Layer_4" data-name="Layer 4"><path class="cls-1" d="M52.13,72.68c18.19-4.36,61.31-11.41,80-11,7.74,19.18-31.65,22.53-36,24-24,5.7-14.14,57-44,72.68-2.24,4.77-5,39.42-22.5,34.82l-4.5-56.5s-21-14-23-18-5-10,4-8,26,7,26,7C34.71,113.41,39.48,73.21,52.13,72.68Z"/><path class="cls-1" d="M70.13,145.68s-4,11-13,16l10.52,24s12.48,3,11.48-3C79.13,182.68,76.13,156.68,70.13,145.68Z"/><path class="cls-1" d="M173.36,148.3s4,11,13,16l-10.52,24s-12.48,3-11.48-3C164.36,185.3,167.36,159.3,173.36,148.3Z"/><path class="cls-1" d="M85.27,37.8c4,1,16.08,3.15,22.34-.27,4.55-7,7.28-15,5.12-22.29a19,19,0,0,0-4.56-7.7C110,1.88,49.77,29.8,50.9,31.61c-29.69-16.27-23.78-1.52,5.66,29.75,0,0,31.23-4.92,32.07-5.18,5.08-2.8,9.21-5.53,14.64-13.38C101.15,43.52,88.27,42.8,85.27,37.8Z"/><path class="cls-1" d="M199.38,34.47C200.79,32.88,146.46-5.28,147.3.62c-11.34,8.3-8.14,23.18-1.59,35.45,3.9,1.31,10.22,2.32,20.41,1.86,0,0-3.85,5.87-16.85,4.87,4.16,7.44,6.55,8.28,10.36,11.38.79.41,30,11,30,11C224.15,39.63,231.5,23.74,199.38,34.47Z"/><path class="cls-1" d="M83.27,105.8s4-11.7,7-13a23.6,23.6,0,0,1,12.85,9.56C95.72,117.27,83.27,105.8,83.27,105.8Z"/><path class="cls-1" d="M151.27,81.8a65.83,65.83,0,0,0-5-7c-5.74,4-13.8,7.47-26.64,15.38,0,0-1.72,6.07,10,9,8,2,23-9,23-9,1.91.82,1.24-1.11,2.64.62A29.46,29.46,0,0,0,151.27,81.8Z"/><path class="cls-1" d="M237.36,113.3c-9,2-26,7-26,7-2.58-4.27-7.35-44.47-20-45-9.89-3.56-17-6-22.62-7.27C164,62.68,149.5,46.88,141.27,45.8c-10.35,10.08,6.61,24.81,6.56,24.85,2,2.24,7.62,8.69,8.44,11.15,1,3,6.08,21.51,6.08,21.51h0c6.43,17.84,8.13,47.51,29,57.67,2.22,5.07,5,39.71,23.27,34.2l3.73-55.88s21-14,23-18S246.36,111.3,237.36,113.3Z"/></g></g></svg>